<?xml version="1.0" encoding="UTF-8"?>
<svg id="Layer_2" data-name="Layer 2" xmlns="http://www.w3.org/2000/svg" viewBox="0 0 363.29 383.38">
  <defs>
    <style>
      .cls-1 {
        fill: #2c4b5b;
      }

      .cls-2 {
        fill: #d2eeef;
      }

      .cls-3 {
        fill: #dcd1b2;
      }

      .cls-4 {
        fill: #d5a362;
      }

      .cls-5 {
        fill: #525142;
      }

      .cls-6 {
        fill: #d49e5e;
      }

      .cls-7 {
        fill: #fdfaeb;
      }

      .cls-8 {
        fill: #f3f9ec;
      }

      .cls-9 {
        fill: #234657;
      }

      .cls-10 {
        fill: #cc9253;
      }

      .cls-11 {
        fill: #eacb99;
      }

      .cls-12 {
        fill: #fcfdf8;
      }

      .cls-13 {
        fill: #336b81;
      }

      .cls-14 {
        fill: #f6f5e6;
      }
    </style>
  </defs>
  <g id="Layer_1-2" data-name="Layer 1">
    <path class="cls-7" d="M106.71,319.59c-32.85-21.57-68.2-39.31-98.65-64.52-1.37-1.13-1.92-1.5-2.8,.12-2.1-12.81,4.61-20.14,15.29-25.44,11.42-5.68,22.59-11.84,33.88-17.79,0,2.15-.14,4.31,0,6.46,.89,13.62-3.54,27.41,1.31,40.91,0,0,.02,.02,.02,.02,.28,.37,.56,.73,.84,1.1l.12,.12c.29,.3,.57,.59,.86,.89,0,0,.15,.14,.15,.14,3.92,4.04,9.06,3.67,14.04,3.87,22.35,2.46,44.71,4.93,67.07,7.35,.49,.05,1.05-.49,1.58-.75-.85-.74-1.6-1.65-2.56-2.19-17.74-9.78-35.51-19.52-53.27-29.27-.62-10.51-1.25-21.01-1.87-31.52-.07-4.68-.13-9.35-.2-14.03,19.51-10.88,39.01-21.77,58.53-32.63,9.25-5.15,18.53-10.24,27.79-15.36-.9,39.29-1.6,78.58-2.84,117.85-.31,9.68,2.2,16.5,12.01,19.37,.57,.54,1.09,1.46,1.72,1.55,27.13,3.67,54.27,7.27,81.42,10.85,.49,.06,1.04-.3,1.56-.47-.73-.64-1.36-1.45-2.19-1.91-20.38-11.16-40.78-22.29-61.18-33.42-.3-9.96-.59-19.93-.89-29.89,3.44,2,6.89,4,10.34,6,19.98,11.87,39.96,23.74,59.94,35.61,10.82,6.12,21.63,12.25,32.45,18.37-17.62,10.51-35.24,21.01-52.85,31.52"/>
    <path class="cls-10" d="M248.31,322.5c17.62-10.51,35.24-21.01,52.85-31.52,10.92-6.14,22.1-11.88,32.7-18.53,9.58-6.01,20.64-10.04,27.68-19.69l1.4,.52c-.35,6.07-.71,12.14-1.06,18.22l-3.08,7.36c-1.24,1.37-2.48,2.74-3.72,4.11l-4.88,3.96c-32.96,19.16-65.52,39.05-98.95,57.35-24.78,13.56-46.02,34.1-75.26,39.09-4.93-2.86-9.85-5.71-14.78-8.57,8.95-.03,8.81-5.74,7.6-12.14-.36-1.91-2.83-3.66-.49-5.81,18.87,7.24,31.39-6.16,45.62-14.03,11.45-6.78,22.91-13.56,34.36-20.33Z"/>
    <path class="cls-1" d="M55.72,259.32c-4.85-13.49-.42-27.28-1.31-40.91-.14-2.14,0-4.3,0-6.46,.92-23.62,1.84-47.24,2.73-70.86,.03-.87-.35-1.76-.55-2.64-.63,.48-1.28,.94-1.89,1.45-15.23,12.64-42.29,8.46-53.73-8.28-1.6-2.33-1.33-3.7,1.48-4.89,15.52-6.53,29.86-16.14,47.84-16.24,2.27-.01,7.97-7.5,5.96-13.44-7.44-21.99-.71-41.95,8.17-61.68,1.17-2.59,2.49-1.3,3.63,.19,12.75,16.69,20.4,34.72,14.57,56.2-.71,2.61-.51,3.95,2.13,5.56,2.34,1.43,5.48,4.62,5.25,6.71-1.34,12.35,8.21,14.75,15.93,19.7,12.35,7.92,17.23,20.71,19.17,34.67,.29,2.11,2.34,6.36-1.5,6.53-4.85,.21-10.44,2.47-14.75-2.13-18.16-2.48-5.19-1.84-2.59-2.74-2.6-2.69-1.42-3.37-2.13-5.06,3.16,1,6.28,2.21,9.51,2.89,1.06,.22,5.03,3.73,3.46-1.69-3.62-12.53-9.62-23.45-21.77-29.69-5.64-2.89-12.28-6.27-17.4-.71-5.26,5.71,2.59,9.45,4.3,14.17-2.42,1.96-7.75-5.74-7.82,1.42-.2,19.5,.74,39.02,1.2,58.53,.43,17.97,1.72,35.95-.62,53.89-.85-33.56-1.57-67.12-2.67-100.67-.19-5.88,1.36-12.28-2.92-17.57-.6-1.52-1.19-3.04-1.79-4.57-.53,1.61-1.46,3.21-1.52,4.84-1.47,39.05-2.84,78.1-4.23,117.15-.5-15.29-.99-30.59-1.51-45.88-.04-1.13-.22-2.25-.34-3.38-.62,1.08-1.58,2.1-1.81,3.25-3.45,17.31-2.41,34.85-2.46,52.33Zm5.64-143.38c.59,4.73,2.91,8.37,7.99,7.2,5.12-1.18,6.94-5.19,4.98-10.39-2.03-4.36-5.77-4.58-9.62-3.53-3.29,.89-3.94,3.63-3.35,6.73Zm-13.21,3.31c-12.01,.52-22.94,4.34-32.99,10.85-1.5,1.83-1.54,1.88,.55,3.23,12.89,8.39,25.44,7.89,37.26-1.95,2.8-2.33,7.22-4.56,4.85-9.69-2.17-4.71-6.33-2.07-9.67-2.45Zm22.16-64.26c-.95-1.87-1.89-3.75-2.84-5.62-.4,.6-1.04,1.16-1.16,1.81-1.44,7.93-2.81,15.87-4.19,23.81-2,8.88,.3,17.02,4.45,24.78,1.35,2.53,2.99,3.68,4.69,0,6.95-15.1,7.05-30.01-.95-44.77Z"/>
    <path class="cls-6" d="M168.33,356.87c-2.33,2.15,.13,3.89,.49,5.81,1.2,6.4,1.34,12.11-7.6,12.14-48.92-30.51-97.96-60.83-146.67-91.67-9.94-6.29-9.77-17.43-9.3-27.95,.88-1.62,1.44-1.25,2.8-.12,30.45,25.21,65.81,42.95,98.65,64.52,.87,.57,2.26,.36,3.41,.51,6.34,4.28,12.69,8.57,19.03,12.85,13.06,7.97,26.12,15.94,39.18,23.91Z"/>
    <path class="cls-9" d="M178,284.3c-9.81-2.87-12.32-9.69-12.01-19.37,1.24-39.28,1.94-78.57,2.84-117.85,.66-14.53,1.32-29.06,1.98-43.58-.01-.41-.02-.81-.04-1.22-.26,.2-.52,.4-.78,.6-9.24,10.13-20.61,13.29-33.85,10.31-.34-.06-.68-.12-1.01-.18-8.42-2.03-15.66-5.96-21.01-12.96-.06-1.19-.12-2.38-.18-3.57,2.65-1.52,5.3-3.04,7.95-4.55,3.07,.31,5.58-.29,6.25-3.86l4.9-3.08c3.55,.04,4.35,2.89,5.5,5.38,0,0-.03,0-.03,0-.45,.24-.89,.49-1.34,.73-1.18,.7-2.36,1.39-3.54,2.09-2.37-.26-4.28,.14-4.38,3.09-.33,.26-.67,.52-1,.78-.99,.75-1.99,1.51-2.98,2.26,.28,.33,.57,.65,.85,.98,.31,1.11-.22,3.52,2.18,1.41,.96,.49,1.91,.99,2.87,1.48,.47,.23,.94,.46,1.41,.69l.32-.03s.25,.19,.25,.19c.73,.26,1.47,.52,2.2,.77,0,0-.12-.08-.12-.08,1.38,.34,2.75,.67,4.13,1.01l-.09-.12c4.75,2.12,9.4,2.82,13.73-.97l-.09,.09c.99-.4,1.99-.8,2.98-1.2,0,0-.08,.14-.08,.14,.44-.24,.88-.47,1.32-.71,0,0-.03,.02-.03,.02,.88-.5,1.77-1.01,2.65-1.51,0,0-.02,.07-.02,.07,.42-.27,.84-.55,1.26-.82l-.11,.12c.41-.3,.82-.61,1.23-.91,0,0-.04,.03-.04,.03,.6-.46,1.2-.92,1.8-1.38,0,0-.09,.16-.09,.16,.42-.36,.83-.71,1.25-1.07,.67-.57,1.34-1.15,2-1.72,.7-.67,1.4-1.33,2.09-2,.02-.65,.04-1.3,.06-1.95,6.66-2.14,11.99-.94,15.04,5.99l.08,.37c.27,.55,.55,1.09,.82,1.64v.02c.35,.66,.68,1.32,1.02,1.98l.2,.16-.06,.25,.87,1.6,.2,.15-.05,.25c.23,.53,.46,1.05,.68,1.58,4.68,11.25,13.03,18.65,24.16,23.16,.52,.24,1.03,.47,1.55,.71l.25-.1s.19,.19,.19,.19l-4.16,6.6c-5.36-2.51-10.72-5.02-16.08-7.53-.08,.1-.25,.22-.23,.3,.05,.23,.18,.44,.28,.66,.31,4,.62,7.99,.92,11.99,.69,21,1.37,42,2.06,63-6.42-2.95-7.22-9.19-8.78-14.99-.72-14.79-1.31-29.59-2.21-44.36-.61-9.99-1.67-19.96-2.52-29.94-1.07-3.39-2.09-6.8-3.23-10.17-.26-.78-.93-1.43-1.41-2.13-.13,.76-.35,1.52-.37,2.28-1.35,54.25-2.69,108.5-4.04,162.75-.07,2.67-.26,5.34,2.77,6.71,.65,.04,1.3,.09,1.95,.13,.34-.09,.68-.18,1.03-.26,.39,.23,.78,.45,1.17,.68l.35,.14,.34-.16c.71-.06,1.43-.12,2.14-.18,.74,1.4-4.1,3.85,.77,4.43,5.81,.69,.72,2.11,.27,3.22l.09-.07c-.34,.18-.69,.36-1.03,.54-2.07,.24-4.14,.47-6.21,.71Z"/>
    <path class="cls-1" d="M184.2,98c-3.05-6.93-8.37-8.14-15.04-5.99-2.93-1.87-.93-7.64-6.12-7.72-8.81-.57-16.84,2.05-24.52,6.06-1.15-2.49-1.95-5.34-5.5-5.38,6.18-4.44,13.03-7.39,20.61-8.07,12.53-1.13,16.32-7.53,13.33-19.51-4.9-19.67,.96-37.8,9.15-55.42,1.59-3.42,3.17-1.72,4.66,.2,12.99,16.81,19.17,35.24,13.19,56.44-.66,2.33-.48,3.43,1.68,4.73,5.04,3.04,8.82,7.87,7.48,13.58-1.92,8.19,2.58,11.15,8.11,15.21,13.65,10.01,19.43,24.84,17.01,40.78-1.65,10.87-11.84,3.34-18.29,3.66,1.39-2.2,2.77-4.4,4.16-6.6,2-1.66,7.18,4.55,6.64-1.8-1.36-16.16-8.39-29.03-24.08-35.93-6.57-2.89-10.11-.02-12.48,5.77Zm.91-19.09c-.9-4.74-4.48-5.37-8.31-5.07-3.64,.29-5.69,2.41-5.53,6.27,.31,4.6,1.72,8.93,6.87,9.39,8.16,.73,3.82-7.56,6.96-10.6Zm-11.29-34.02c-.92,7.68,1.47,14.68,4.57,21.49,.42,.92,1.59,1.64,2.58,2.07,.25,.11,1.39-1.14,1.7-1.93,5.97-15.22,7.38-30.45-.13-45.64-.96-2.09-1.93-4.17-2.89-6.26-.86,2.24-2.14,4.41-2.52,6.72-1.27,7.82-2.23,15.69-3.31,23.54Z"/>
    <path class="cls-1" d="M216.29,157.36c19.21-17.79,38.27-15.16,58.68-1.24,12.98,8.85,27.58,15.35,41.56,22.69,3.19,1.67,4.7,3.58,4.63,7.31-.18,9.65,.02,19.31,.07,28.97,.28,5.41,.57,10.82,.85,16.23-3.29,4.44,3.05,12.49-5.6,14.91-3.07-10.35-8.99-7.85-15.35-3.41-6.64,3.1-13.28,6.21-19.92,9.31-5.09-5.26-2.23-23.19,4.05-26.42,6.19-3.18,11.9-7.62,18.39-9.81,15.51-5.23,11-17.62,9.57-27.62-1.04-7.28-8.97-10.78-15.65-7.45-9.98,4.97-17.66,13.4-24.37,22.33-2.37,3.16-3.46,7.28-5.13,10.96-.34-4.52-.68-9.05-1.01-13.57,6.87-8.67,15.02-15.93,24.18-22.09,1.25-.84,4.02-1.36,.64-3.28-14-7.98-27.81-16.31-41.98-23.96-8.28-4.47-34.52,11.45-34.87,20.68-.37,4.34-.74,8.67-1.12,13.01-8.8-4.57-7.57-18.79,2.38-27.52Z"/>
    <path class="cls-14" d="M216.29,157.36c-9.95,8.73-11.18,22.95-2.38,27.52,17.3,10.05,34.6,20.09,51.9,30.14,.11,15.98,.23,31.95,.34,47.93-3.97-2.7-9.57-3.35-11.27-8.92,.05-7.31-.61-14.72,.32-21.91,1.59-12.27-8.45-14.33-15.73-16.67-2.32-.74-.82,8.87-1.41,13.7-.48,3.91,.06,7.95,.15,11.94-.29,1.49-.59,2.98-.88,4.47-2.83-1.84-5.66-3.68-8.49-5.52,.01-7.3-.81-14.71,.23-21.86,1.96-13.48-9.07-16.41-17.06-18.92-2.89-.91-.93,10.32-1.9,15.92-.49,2.88,.05,5.94,.13,8.92-.25,1.5-.5,3-.75,4.5-3.64-2.22-7.29-4.45-10.93-6.67-.55-5.65-1.09-11.3-1.64-16.95-.69-21-1.37-42-2.06-63,7.14,5.13,14.28,10.25,21.42,15.38Z"/>
    <path class="cls-9" d="M104.14,155c.71,1.69,1.42,3.37,2.13,5.06-1.71,.59-3.42,1.18-5.13,1.77-.66-.29-1.32-.58-1.99-.88-1.34-.66-2.68-1.32-4.02-1.99-.34-.53-.68-1.07-1.02-1.6,.09,.21,.21,.41,.24,.62,.01,.06-.22,.17-.33,.25,.4-4.49-2.95-2.76-5.07-3.07,0,0,.09,.06,.09,.06-.62-.42-1.23-.83-1.85-1.25-.37-.28-.75-.55-1.12-.83-.07-2.51-1.67-3.19-3.83-3.19-1.21-.57-2.02-.93-1.91,1.14,.79,14.64,1.47,29.3,2.19,43.94,.07,4.68,.13,9.35,.2,14.03-.19,12.81-1.06,25.65-.37,38.41,.72,13.49-6.61,16.21-17.59,15.43-2.36-.17-4.69-.87-7.03-1.33,0,0-.15-.14-.15-.14-.29-.3-.57-.59-.86-.89,0,0-.12-.12-.12-.13-.28-.37-.56-.73-.84-1.1,0,0-.02-.02-.02-.02,.06-17.48-.98-35.02,2.46-52.33,.23-1.16,1.19-2.17,1.81-3.25,.12,1.13,.3,2.25,.34,3.38,.51,15.29,1.01,30.59,1.51,45.88,.13,.59,.25,1.18,.38,1.77l1.16,1.1s-.09-.09-.09-.09c3.19,4.53,6.47,4.16,9.82,.18h-.02c.63-.7,1.27-1.41,1.9-2.13h-.02c2.34-17.95,1.05-35.93,.62-53.9-.47-19.51-1.4-39.02-1.2-58.53,.07-7.16,5.4,.54,7.82-1.42,.31,.33,.62,.66,.93,.99,.33,.35,.66,.7,1,1.04,.33,.34,.66,.68,.99,1.01,.36,.32,.73,.64,1.09,.96,.32,.29,.64,.58,.97,.87,.4,.33,.81,.67,1.21,1l-.13-.14c.61,.43,1.22,.87,1.83,1.3h.02c.38,.32,.76,.62,1.14,.92,0,0-.05-.06-.05-.06,.22,3.31,2.63,3.13,4.94,3.1h0c.42,.27,.85,.54,1.27,.82l-.1-.13c.92,3.44,2.99,4.57,6.33,3.16l.28-.03,.19,.21Z"/>
    <path class="cls-7" d="M322.08,231.31c-.28-5.41-.57-10.82-.85-16.23,10.86,6.26,21.65,12.64,32.6,18.75,7.83,4.37,10.49,10.9,9.12,19.45-.61,.02-1.22,.03-1.83,.05-13.01-7.34-26.03-14.68-39.04-22.02Z"/>
    <path class="cls-1" d="M128.13,88.05c-.67,3.57-3.18,4.17-6.25,3.86,2.08-1.29,4.17-2.58,6.25-3.86Z"/>
    <path class="cls-1" d="M88.95,155.17c2.12,.31,5.47-1.42,5.07,3.07-1.7-1.02-3.38-2.04-5.07-3.07Z"/>
    <path class="cls-1" d="M82.24,149.97c2.16,0,3.76,.68,3.83,3.19-1.28-1.06-2.56-2.13-3.83-3.19Z"/>
    <path class="cls-1" d="M113.94,96.47c.06,1.19,.12,2.38,.18,3.57-1.17-1.13-2.43-2.26-.18-3.57Z"/>
    <path class="cls-1" d="M99.16,160.95c.66,.29,1.32,.58,1.99,.88-.66-.29-1.32-.58-1.99-.88Z"/>
    <path class="cls-1" d="M87.19,153.99c.62,.42,1.23,.83,1.85,1.25-.62-.41-1.23-.83-1.85-1.25Z"/>
    <path class="cls-1" d="M94.11,157.37c.34,.53,.68,1.07,1.02,1.6-.34-.53-.68-1.07-1.02-1.6Z"/>
    <path class="cls-1" d="M193.94,129.99c-.1-.22-.23-.43-.28-.66-.02-.08,.15-.2,.23-.3,.19,.31,.21,.63,.05,.96Z"/>
    <path class="cls-1" d="M135.13,113c.34,.06,.68,.12,1.01,.18-.34-.06-.68-.12-1.01-.18Z"/>
    <path class="cls-4" d="M322.08,231.31c13.01,7.34,26.03,14.68,39.04,22.02-7.06,9.24-17.87,13.23-27.26,19.12-10.6,6.65-21.77,12.39-32.7,18.53-10.82-6.12-21.63-12.25-32.45-18.37,.14-.52,.28-1.05,.42-1.57,3.69-1.97,7.38-3.94,11.07-5.91,5.66-3,11.32-6.01,16.97-9.01,6.43-3.3,12.87-6.6,19.3-9.89,8.65-2.43,2.31-10.48,5.6-14.91Z"/>
    <path class="cls-4" d="M178,284.3c2.07-.24,4.14-.47,6.21-.71,.34-.18,.69-.36,1.03-.54,0,0-.09,.07-.09,.07,14.98-.86,13.95-11.94,14.18-22.22,20.4,11.13,40.8,22.26,61.18,33.42,.83,.45,1.47,1.26,2.19,1.91-.52,.17-1.07,.53-1.56,.47-27.15-3.57-54.29-7.18-81.42-10.85-.63-.09-1.15-1.01-1.72-1.55Z"/>
    <path class="cls-6" d="M84.59,240.61c17.76,9.75,35.53,19.48,53.27,29.27,.96,.53,1.71,1.45,2.56,2.19-.53,.26-1.09,.81-1.58,.75-22.36-2.42-44.71-4.89-67.07-7.35,14.19-3.17,12.31-14.63,12.82-24.85Z"/>
    <path class="cls-1" d="M199.33,260.9c-.22,10.28,.8,21.36-14.18,22.22,.45-1.11,5.55-2.54-.27-3.22-4.87-.57-.03-3.03-.77-4.43,4.61-.75,6.19-3.4,6.04-8.06-.8-25.8-1.37-51.61-2.01-77.41,1.56,5.8,2.36,12.04,8.78,14.99,.55,5.65,1.09,11.3,1.64,16.94-.04,3.03-.08,6.05-.12,9.08,.3,9.96,.59,19.93,.89,29.89Z"/>
    <path class="cls-1" d="M266.15,262.95c5.93,1.37,3.3,5.89,2.62,9.69-20-11.88-40-23.76-60-35.64,.25-2.86,.49-5.73,.74-8.59l1.96-.34c3.26,6.94,11.1,8.53,17.37,11.96,2.83,1.84,5.66,3.68,8.49,5.52,.29-1.49,.59-2.98,.88-4.47,1.99,8.91,8.77,11.65,16.67,12.94,1.7,5.57,7.3,6.22,11.27,8.92Z"/>
    <path class="cls-1" d="M84.59,240.61c-.51,10.22,1.37,21.68-12.82,24.85-4.99-.2-10.12,.17-14.05-3.87,2.34,.46,4.67,1.17,7.03,1.33,10.98,.78,18.32-1.94,17.59-15.43-.69-12.76,.19-25.6,.37-38.41,.62,10.51,1.25,21.01,1.87,31.52Z"/>
    <path class="cls-10" d="M209.5,228.6c-.24,2.8-.48,5.61-.72,8.41-3.45-2-6.89-4-10.34-6,.04-3.03,.08-6.06,.13-9.08,3.65,2.22,7.29,4.45,10.93,6.67Z"/>
    <path class="cls-1" d="M56.71,260.56c.29,.3,.57,.59,.86,.89-.29-.3-.57-.59-.86-.89Z"/>
    <path class="cls-1" d="M55.75,259.34c.28,.37,.56,.73,.84,1.1-.28-.37-.56-.73-.84-1.1Z"/>
    <path class="cls-3" d="M85.14,143.02c-.33-.34-.66-.68-.99-1.01-.33-.35-.66-.7-1-1.04-.31-.33-.62-.66-.93-.99-1.71-4.72-9.56-8.46-4.3-14.17,5.13-5.56,11.76-2.19,17.4,.71,12.16,6.24,18.15,17.16,21.77,29.69,1.57,5.42-2.4,1.92-3.46,1.69-3.23-.68-6.35-1.89-9.51-2.89,0,0-.19-.21-.19-.21,0,0-.28,.03-.28,.03-2.11-1.05-4.22-2.11-6.33-3.16,0,0,.1,.13,.1,.13-.42-.27-.85-.55-1.27-.82,0,0,0,0,0,0-1.65-1.03-3.29-2.06-4.94-3.1,0,0,.05,.06,.05,.06-.38-.3-.76-.6-1.14-.91,0,0-.02-.01-.02-.01-.61-.43-1.22-.87-1.83-1.3,0,0,.13,.14,.13,.14-.4-.33-.81-.67-1.21-1-.32-.29-.64-.58-.97-.87-.36-.32-.73-.64-1.09-.96Z"/>
    <path class="cls-3" d="M69.4,135.58c4.29,5.29,2.73,11.69,2.92,17.57,1.1,33.55,1.82,67.11,2.67,100.67,0,0,.02,0,.02,0-.63,.71-1.27,1.43-1.9,2.14,0,0,.02-.01,.02-.01-1.33,.24-2.66,.48-3.99,.71,.09-40.36,.17-80.72,.26-121.08Z"/>
    <path class="cls-8" d="M69.4,135.58c-.09,40.36-.17,80.72-.26,121.08-1.95-.3-3.89-.59-5.84-.89,0,0,.09,.09,.09,.09-.39-.37-.77-.73-1.16-1.1-.13-.59-.25-1.18-.38-1.77,1.39-39.05,2.77-78.1,4.23-117.15,.06-1.63,.99-3.22,1.52-4.84,.6,1.52,1.19,3.04,1.79,4.57Z"/>
    <path class="cls-3" d="M70.31,54.99c7.99,14.76,7.89,29.67,.95,44.77-1.7,3.69-3.34,2.54-4.69,0-4.15-7.75-6.44-15.89-4.45-24.78,2.73-6.67,5.46-13.34,8.19-20Z"/>
    <path class="cls-3" d="M48.15,119.25c3.34,.37,7.5-2.26,9.67,2.45,2.36,5.13-2.05,7.36-4.85,9.69-11.83,9.84-24.38,10.34-37.26,1.95-2.08-1.36-2.05-1.41-.55-3.23,13.49,3.96,23.1-3.87,32.99-10.85Z"/>
    <path class="cls-8" d="M48.15,119.25c-9.89,6.98-19.5,14.82-32.99,10.85,10.04-6.51,20.97-10.33,32.99-10.85Z"/>
    <path class="cls-11" d="M61.36,115.94c-.6-3.1,.06-5.83,3.35-6.73,3.85-1.05,7.59-.83,9.62,3.53-3,6.44-8.22,3.86-12.96,3.2Z"/>
    <path class="cls-4" d="M61.36,115.94c4.75,.66,9.97,3.24,12.96-3.2,1.96,5.21,.15,9.21-4.98,10.39-5.08,1.17-7.4-2.46-7.99-7.2Z"/>
    <path class="cls-14" d="M70.31,54.99c-2.73,6.67-5.46,13.34-8.19,20,1.39-7.94,2.75-15.88,4.19-23.81,.12-.65,.76-1.21,1.16-1.81,.95,1.87,1.89,3.75,2.84,5.62Z"/>
    <path class="cls-3" d="M188.14,190c.65,25.8,1.22,51.61,2.01,77.41,.14,4.66-1.43,7.32-6.04,8.06-.71,.06-1.43,.12-2.14,.18-.24-.25-.47-.24-.7,.02-.39-.23-.78-.45-1.17-.68,.32-14.6,.65-29.2,.95-43.8,.79-38.5,1.57-77,2.35-115.5,.86,9.98,1.91,19.94,2.52,29.94,.9,14.78,1.49,29.57,2.21,44.36Z"/>
    <path class="cls-8" d="M183.41,115.69c-.78,38.5-1.56,77-2.35,115.5-.3,14.6-.63,29.2-.95,43.8-.34,.09-.68,.18-1.03,.26-.65-.04-1.3-.09-1.95-.13-3.03-1.37-2.84-4.04-2.77-6.71,1.35-54.25,2.69-108.5,4.04-162.75,.02-.76,.24-1.52,.37-2.28,.48,.71,1.14,1.35,1.41,2.13,1.14,3.37,2.17,6.78,3.23,10.17Z"/>
    <path class="cls-3" d="M184.2,98c2.37-5.79,5.91-8.67,12.48-5.77,15.69,6.9,22.72,19.78,24.08,35.93,.53,6.35-4.64,.14-6.64,1.8l-.19-.19s-.25,.1-.25,.1c-.52-.24-1.03-.47-1.55-.71-11.13-4.51-19.49-11.92-24.16-23.16-.23-.53-.46-1.05-.68-1.58l.05-.25s-.2-.15-.2-.15c-.29-.53-.58-1.06-.87-1.6l.06-.25-.2-.16c-.34-.66-.68-1.32-1.01-1.98,0,0,0-.02,0-.02-.27-.55-.55-1.09-.82-1.64l-.08-.37Z"/>
    <path class="cls-3" d="M163.05,84.29c5.18,.08,3.18,5.85,6.12,7.72-.02,.65-.04,1.3-.06,1.95-.7,.67-1.4,1.33-2.09,2-.67,.57-1.34,1.15-2,1.72-.42,.36-.83,.71-1.25,1.07,0,0,.09-.16,.09-.16-.6,.46-1.2,.92-1.8,1.37,0,0,.04-.03,.04-.03-.41,.3-.82,.61-1.23,.91,0,0,.11-.12,.11-.12-.42,.27-.84,.55-1.26,.82,0,0,.02-.07,.02-.07-.88,.5-1.77,1-2.65,1.51,0,0,.03-.02,.03-.02-.44,.24-.88,.47-1.32,.71,0,0,.08-.14,.08-.13-.99,.4-1.99,.8-2.98,1.2,0,0,.09-.09,.09-.08-4.58,.32-9.15,.65-13.73,.97,0,0,.09,.12,.09,.13-1.38-.34-2.75-.67-4.13-1.01,0,0,.12,.08,.12,.08-.73-.26-1.47-.52-2.2-.77,0,0-.25-.19-.25-.19,0,0-.32,.03-.32,.03-.47-.23-.94-.46-1.41-.69-.96-.49-1.91-.99-2.87-1.48-.05-.24-.09-.49-.14-.73,13.68-1.27,25.07-7.34,34.89-16.68Z"/>
    <path class="cls-12" d="M163.05,84.29c-9.82,9.34-21.21,15.41-34.89,16.68-.68-.22-1.36-.45-2.04-.67-.28-.33-.57-.65-.85-.98,.99-.75,1.99-1.51,2.98-2.26,.33-.26,.67-.52,1-.78,1.46-1.03,2.92-2.06,4.38-3.09l3.54-2.09c.45-.24,.89-.49,1.34-.73,0,0,.03,0,.03,0,7.68-4.02,15.7-6.64,24.52-6.06Z"/>
    <path class="cls-1" d="M139.25,105.62c4.58-.32,9.15-.64,13.73-.97-4.33,3.79-8.98,3.08-13.73,.97Z"/>
    <path class="cls-1" d="M133.62,93.19c-1.46,1.03-2.92,2.06-4.38,3.09,.11-2.95,2.01-3.35,4.38-3.09Z"/>
    <path class="cls-1" d="M128.24,97.06c-.99,.75-1.99,1.51-2.98,2.26,.99-.75,1.99-1.51,2.98-2.26Z"/>
    <path class="cls-1" d="M126.12,100.3c.68,.22,1.36,.45,2.04,.67,.04,.24,.09,.49,.14,.73-2.39,2.11-1.87-.29-2.18-1.41Z"/>
    <path class="cls-1" d="M135.21,104.73c1.38,.34,2.75,.68,4.13,1.01-1.38-.34-2.75-.68-4.13-1.01Z"/>
    <path class="cls-1" d="M167.01,95.96c.7-.67,1.4-1.33,2.09-2-.7,.67-1.4,1.33-2.09,2Z"/>
    <path class="cls-1" d="M157.08,102.98c.88-.5,1.77-1,2.65-1.51-.88,.5-1.77,1-2.65,1.51Z"/>
    <path class="cls-1" d="M152.89,104.73c.99-.4,1.99-.8,2.98-1.2-.99,.4-1.99,.8-2.98,1.2Z"/>
    <path class="cls-1" d="M177.13,275.13c.65,.04,1.3,.09,1.95,.13-.65-.04-1.3-.09-1.95-.13Z"/>
    <path class="cls-1" d="M162.05,99.96c.6-.46,1.2-.92,1.8-1.37-.6,.46-1.2,.92-1.8,1.37Z"/>
    <path class="cls-1" d="M185.11,100.04c.34,.66,.68,1.32,1.01,1.98l-1.01-1.98Z"/>
    <path class="cls-1" d="M133.14,104.03c.73,.26,1.46,.52,2.2,.77-.73-.26-1.46-.52-2.2-.77Z"/>
    <path class="cls-1" d="M138.5,90.36c-.45,.24-.89,.49-1.34,.73,.45-.24,.89-.49,1.34-.73Z"/>
    <path class="cls-1" d="M163.75,98.74c.42-.36,.83-.71,1.25-1.07-.42,.36-.83,.71-1.25,1.07Z"/>
    <path class="cls-1" d="M184.28,98.37c.27,.55,.55,1.09,.82,1.64-.27-.55-.55-1.09-.82-1.64Z"/>
    <path class="cls-1" d="M160.86,100.84c.41-.3,.82-.61,1.23-.91-.41,.3-.82,.61-1.23,.91Z"/>
    <path class="cls-1" d="M159.72,101.55c.42-.27,.84-.55,1.26-.82-.42,.27-.84,.55-1.26,.82Z"/>
    <path class="cls-1" d="M185.24,283.05c-.35,.18-.69,.36-1.03,.54,.35-.18,.69-.36,1.03-.54Z"/>
    <path class="cls-1" d="M181.28,275.67c.22-.26,.46-.27,.7-.02,0,0-.34,.16-.34,.16l-.35-.14Z"/>
    <path class="cls-1" d="M212.14,129.16c.51,.24,1.03,.47,1.55,.71-.51-.24-1.03-.47-1.55-.71Z"/>
    <path class="cls-1" d="M187.29,104.41c.23,.53,.46,1.05,.68,1.58-.23-.53-.46-1.05-.68-1.58Z"/>
    <path class="cls-1" d="M186.27,102.42c.29,.53,.58,1.06,.87,1.6-.29-.53-.58-1.06-.87-1.6Z"/>
    <path class="cls-1" d="M155.79,103.67c.44-.24,.88-.47,1.32-.71-.44,.24-.88,.47-1.32,.71Z"/>
    <path class="cls-1" d="M131.16,103.19c.47,.23,.94,.46,1.41,.69-.47-.23-.94-.46-1.41-.69Z"/>
    <path class="cls-2" d="M169.99,102.87c.26-.2,.52-.4,.78-.6,.01,.41,.02,.81,.04,1.22-.27-.21-.54-.41-.82-.62Z"/>
    <path class="cls-3" d="M182.54,20.89c7.51,15.19,6.1,30.42,.13,45.64-.31,.79-1.45,2.04-1.7,1.93-.99-.43-2.16-1.15-2.58-2.07-3.1-6.81-5.49-13.81-4.57-21.49,2.9-8,5.81-16,8.71-24.01Z"/>
    <path class="cls-8" d="M182.54,20.89c-2.9,8-5.81,16-8.71,24.01,1.08-7.85,2.03-15.72,3.31-23.54,.38-2.32,1.65-4.49,2.52-6.72,.96,2.09,1.93,4.17,2.89,6.26Z"/>
    <path class="cls-4" d="M185.11,78.91c-3.15,3.04,1.19,11.33-6.96,10.6-5.15-.46-6.56-4.8-6.87-9.4,4.71,.71,9.51,2.52,13.83-1.2Z"/>
    <path class="cls-11" d="M185.11,78.91c-4.32,3.73-9.12,1.92-13.83,1.2-.17-3.86,1.88-5.98,5.53-6.27,3.83-.3,7.4,.33,8.31,5.07Z"/>
    <path class="cls-12" d="M215.02,171.88c.35-9.22,26.59-25.15,34.87-20.68,14.17,7.65,27.98,15.98,41.98,23.96,3.38,1.93,.61,2.44-.64,3.28-9.16,6.17-17.31,13.43-24.18,22.1-.32,.18-.64,.36-.97,.54-17.02-9.73-34.05-19.47-51.07-29.2Z"/>
    <path class="cls-5" d="M266.09,201.08c.32-.18,.64-.36,.97-.54,.34,4.52,.68,9.05,1.01,13.57,1.67-3.68,2.76-7.8,5.13-10.96,6.7-8.93,14.39-17.36,24.37-22.33,6.68-3.33,14.62,.18,15.65,7.45,1.43,10,5.94,22.39-9.57,27.62-6.49,2.19-12.2,6.63-18.39,9.81-6.29,3.23-4.72,35.09-5.05,39.43-3.69,1.97-7.38,3.94-11.07,5.91,.87-3.39-2.98,7.32-2.98-8.09s-.23-31.96-.34-47.93c.09-4.65,.19-9.3,.28-13.94Z"/>
    <path class="cls-6" d="M266.09,201.08c-.09,4.65-.18,9.3-.28,13.94-17.3-10.05-34.6-20.09-51.91-30.14,.37-4.33,.74-8.67,1.12-13.01,17.02,9.73,34.05,19.47,51.07,29.2Z"/>
    <path class="cls-5" d="M297.18,256.12c1.62-3.15,3.2-6.33,4.88-9.44,.89-1.65,3.1-3.46-.94-3.86,6.36-4.44,12.28-6.95,15.35,3.41-6.43,3.3-12.86,6.6-19.3,9.89Z"/>
    <path class="cls-13" d="M228.84,240.03c-7.32-4-16.79-5.5-18.6-15.94-.08-2.98-.63-6.04-.13-8.92,.96-5.61-.99-16.83,1.9-15.92,7.99,2.51,19.02,5.44,17.06,18.92-1.04,7.15-.21,14.56-.23,21.86Z"/>
    <path class="cls-13" d="M254.88,254.03c-7.9-1.3-14.68-4.04-16.67-12.94-.09-3.98-.63-8.02-.15-11.94,.6-4.83-.91-14.44,1.41-13.7,7.28,2.33,17.32,4.39,15.73,16.67-.93,7.2-.27,14.6-.32,21.91Z"/>
    <path class="cls-1" d="M63.3,255.77c1.95,.3,3.89,.59,5.84,.89,1.33-.24,2.66-.48,3.99-.71-3.35,3.99-6.63,4.36-9.82-.18Z"/>
    <path class="cls-1" d="M97.33,151.66c2.11,1.05,4.22,2.11,6.33,3.16-3.34,1.41-5.41,.28-6.33-3.16Z"/>
    <path class="cls-1" d="M91.23,147.88c1.65,1.03,3.29,2.06,4.94,3.1-2.31,.03-4.72,.22-4.94-3.1Z"/>
    <path class="cls-1" d="M73.1,255.96c.63-.71,1.27-1.43,1.9-2.14-.63,.71-1.27,1.43-1.9,2.14Z"/>
    <path class="cls-1" d="M88.28,145.71c.61,.43,1.22,.87,1.83,1.3-.61-.43-1.22-.87-1.83-1.3Z"/>
    <path class="cls-1" d="M62.23,254.76c.39,.37,.77,.73,1.16,1.1-.38-.37-.77-.73-1.16-1.1Z"/>
    <path class="cls-1" d="M96.16,150.97c.42,.27,.85,.55,1.27,.82-.42-.27-.85-.55-1.27-.82Z"/>
    <path class="cls-1" d="M90.13,147.03c.38,.3,.76,.6,1.14,.91-.38-.3-.76-.6-1.14-.91Z"/>
    <path class="cls-1" d="M87.19,144.85c.4,.33,.81,.67,1.21,1-.4-.33-.81-.67-1.21-1Z"/>
    <path class="cls-1" d="M85.14,143.02c.36,.32,.73,.64,1.09,.96-.36-.32-.73-.64-1.09-.96Z"/>
    <path class="cls-1" d="M83.16,140.96c.33,.35,.66,.7,1,1.04-.33-.35-.66-.7-1-1.04Z"/>
    <path class="cls-7" d="M178,360.32c-12.44-.96-71.29-40.73-71.29-40.73l141.6,2.91s-57.86,38.78-70.31,37.82Z"/>
    <polyline class="cls-1" points="214.25 184.89 216.57 241.43 209.12 237 208.34 173.96"/>
    <polyline class="cls-5" points="301.04 242.82 316.39 246.23 280.12 265.14 280.22 250.96"/>
  </g>
</svg>