<?xml version="1.0" encoding="UTF-8"?>
<svg id="Layer_2" data-name="Layer 2" xmlns="http://www.w3.org/2000/svg" viewBox="0 0 358.76 316.22">
  <defs>
    <style>
      .cls-1 {
        fill: #2c4b5b;
      }

      .cls-2 {
        fill: #d5a362;
      }

      .cls-3 {
        fill: #d49e5e;
      }

      .cls-4 {
        fill: #fdfaeb;
      }

      .cls-5 {
        fill: #cc9253;
      }

      .cls-6 {
        fill: #fcfdf8;
      }
    </style>
  </defs>
  <g id="Layer_1-2" data-name="Layer 1">
    <path class="cls-4" d="M51.54,192.16s.02,.02,.02,.02c.28,.37,.56,.73,.84,1.1l.12,.12s.57,.59,.86,.89c0,0,.15,.14,.15,.14"/>
    <path class="cls-4" d="M101.84,252.43c-32.85-21.57-68.2-39.31-98.65-64.52-.68-.57-1.16-.94-1.58-.97-.88-.07-1.5-.92-1.55-1.81-.69-11.04,5.78-17.66,15.62-22.55,11.42-5.68,22.59-11.84,33.88-17.79l109.45-57.5c.27-.14,.56-.21,.86-.21l44.5,.38c.35,0,.68,.1,.97,.29l150.55,96.96c1.07,.69,1.13,2.23,.11,2.99l-11.15,8.44c-.05,.04-.11,.08-.17,.11l-137.64,81.85"/>
    <path class="cls-5" d="M244.13,255.34c17.62-10.51,35.24-21.01,52.85-31.52,10.92-6.14,22.1-11.88,32.7-18.53,9.58-6.01,20.64-10.04,27.68-19.69l1.4,.52c-.35,6.07-.71,12.14-1.06,18.22l-3.08,7.36c-1.24,1.37-2.48,2.74-3.72,4.11l-4.88,3.96c-32.96,19.16-65.52,39.05-98.95,57.35-24.78,13.56-46.02,34.1-75.26,39.09-4.93-2.86-9.85-5.71-14.78-8.57,8.95-.03,8.81-5.74,7.6-12.14-.36-1.91-2.83-3.66-.49-5.81,18.87,7.24,31.39-6.16,45.62-14.03,11.45-6.78,22.91-13.56,34.36-20.33Z"/>
    <path class="cls-3" d="M164.14,289.71c-2.33,2.15,.13,3.89,.49,5.81,1.2,6.4,1.34,12.11-7.6,12.14-48.92-30.51-97.96-60.83-146.67-91.67C.43,209.69,.6,198.56,1.07,188.03c.88-1.62,1.44-1.25,2.8-.12,30.45,25.21,65.81,42.95,98.65,64.52,.87,.57,2.26,.36,3.41,.51,6.34,4.28,12.69,8.57,19.03,12.85,13.06,7.97,26.12,15.94,39.18,23.91Z"/>
    <path class="cls-4" d="M173.82,293.16c-12.44-.96-71.29-40.73-71.29-40.73l141.6,2.91s-57.86,38.78-70.31,37.82Z"/>
    <path class="cls-4" d="M160.09,87.08s9.34-4.37,22.86-4.37,22.63,4.75,22.63,4.75l-45.48-.38Z"/>
    <path class="cls-4" d="M205.57,87.47s150.03,89.22,150.03,95.13,1.21,5,1.21,5"/>
    <path class="cls-2" d="M247.37,165.5c26.03,14.68,59.25,25.08,85.28,39.76-14.12,18.49-20.35,16.18-39.12,27.95-21.21,13.3-43.55,24.78-65.4,37.05-21.63-12.25-43.27-24.5-64.89-36.74,.29-1.05,.57-2.09,.85-3.14,7.38-3.94,14.76-7.88,22.14-11.81,11.32-6.01,22.63-12.02,33.95-18.03,12.87-6.6,25.73-13.19,38.6-19.79,17.29-4.85-17.97-6.38-11.39-15.26Z"/>
    <path class="cls-4" d="M65.63,182.97c39.96,23.74,79.92,47.48,119.88,71.22"/>
    <path class="cls-1" d="M175.65,127.22l-97.53-58.02,3.1,122.62-14.9-8.85-1.56-126.1L142.52,0l53.13,28.31c25.96,17.7,67.78,38.33,95.75,53.01"/>
    <path class="cls-4" d="M292.24,171.59c-.57-10.82-1.13-21.64-1.7-32.46"/>
    <path class="cls-5" d="M67.08,166.16c-.48,5.61-.96,11.21-1.44,16.81"/>
    <path class="cls-6" d="M78.13,52.72L147.87,11.37c28.35,15.3,55.96,31.96,83.96,47.92,6.76,3.85,1.22,4.89-1.27,6.57-18.31,12.33-34.62,26.85-48.36,44.19-.64,.36-1.29,.72-1.93,1.08-34.05-19.47-68.09-38.93-102.14-58.4Z"/>
    <polygon class="cls-6" points="81.23 191.82 81.23 191.82 78.13 69.2 175.65 127.22 291.39 81.32 290.32 182.97 175.65 238.94 81.23 191.82"/>
    <polyline class="cls-1" points="182.83 124.71 182.83 235.9 175.65 238.94 169.32 235.78 169.32 123.46"/>
  </g>
</svg>