<?xml version="1.0" encoding="UTF-8"?>
<svg id="Layer_2" data-name="Layer 2" xmlns="http://www.w3.org/2000/svg" viewBox="0 0 374.3 292.48">
  <defs>
    <style>
      .cls-1 {
        fill: #73b8c8;
      }

      .cls-2 {
        fill: #2c4b5b;
      }

      .cls-3 {
        fill: #59a5b8;
      }

      .cls-4 {
        fill: #d5a362;
      }

      .cls-5 {
        fill: #525142;
      }

      .cls-6 {
        fill: #d49e5e;
      }

      .cls-7 {
        fill: #fdfaeb;
      }

      .cls-8 {
        fill: #f3f9ec;
      }

      .cls-9 {
        fill: #234657;
      }

      .cls-10 {
        fill: #5fabbe;
      }

      .cls-11 {
        fill: #cc9253;
      }

      .cls-12 {
        fill: #a7cfd4;
      }

      .cls-13 {
        fill: #5aa8bc;
      }

      .cls-14 {
        fill: #835e3b;
      }

      .cls-15 {
        fill: #f6f5e6;
      }
    </style>
  </defs>
  <g id="Layer_1-2" data-name="Layer 1">
    <path class="cls-7" d="M.67,137.78c.1-15.58,12.57-19.08,23.5-24.1,1.66-.76,3.28-1.61,4.92-2.42,18.57,11.7,37.15,23.4,55.72,35.11-6.61,2.25-13.21,4.54-19.84,6.74-2.3,.76-2.92,1.44-.41,2.9,12.36,7.22,24.69,14.5,37.02,21.75,1.86,6.42-3.01,14.64,6.62,19.07,7.62,3.5,10.54-5.85,16.83-4.45,13.08,7.85,26.16,15.69,39.24,23.54,.61,.32,1.23,.64,1.84,.96l.14-.18c.38,.34,.75,.69,1.13,1.03,.65,.38,1.3,.77,1.95,1.15,12.39,7.53,24.77,15.07,37.16,22.6-9.61,9.82-21.14,11.32-33.83,7.79l-.09,.16c-.69-.47-1.39-.95-2.08-1.42-.71-.41-1.42-.83-2.14-1.24-.18-.23-.41-.35-.7-.38-34.18-21.55-68.66-42.64-102.44-64.81-21.72-14.26-46.21-24.54-64.55-43.79Z"/>
    <path class="cls-11" d="M172.66,249.26c12.69,3.53,24.21,2.02,33.83-7.79,2.33-1.2,4.74-2.26,6.98-3.61,34.17-20.67,68.36-41.3,102.44-62.11,15.62-9.54,31.01-19.44,46.51-29.18,5.55-.3,8.01-5.2,11.89-7.99-.39,7.04-.79,14.09-1.18,21.13-.93,1.94-1.87,3.88-2.81,5.82-2,2-4,4-6,6-1.3,.73-2.61,1.46-3.91,2.19-44.08,26.53-88.09,53.19-132.3,79.5-15.59,9.28-29.38,23.13-49.77,21.35-2.27-1.42-4.53-2.84-6.8-4.25,4.92-2.77,9.61-5.59,5.6-12.45-1.63-2.79-2.99-5.73-4.47-8.6Z"/>
    <path class="cls-2" d="M125.03,192.36c-6.28-1.4-9.2,7.96-16.83,4.45-9.64-4.43-4.76-12.65-6.62-19.07,3.85-15.51-.44-26.66-16.77-31.39-18.57-11.7-37.15-23.4-55.72-35.11-6.26-8.12-6.19-14.79,3.6-20.42C79.3,64.04,125.85,37.15,172.23,9.97c6.36-3.73,11.2-4.24,17.72-.27,40.78,24.79,81.8,49.17,122.74,73.68,2.6,1.56,5.21,3.1,7.82,4.65,1.35,.82,2.7,1.65,4.05,2.47,.98,.5,1.96,1,2.94,1.5,.47,1.73,1.39,2.69,3.31,1.95,0,0,.2,.07,.2,.08-.55,4.22-3.53,4.83-7,4.7-1.21-.7-2.42-1.4-3.63-2.11l-1.58-.99c-.49-.28-.98-.56-1.47-.83-.67-.39-1.35-.79-2.02-1.18l.07,.04c-.54-.34-1.07-.67-1.61-1.01l-.24,.1-.13-.23c-.41-.28-.83-.55-1.24-.83l.09,.12c-.27-.13-.54-.27-.81-.4-41.84-24.93-83.68-49.87-125.53-74.8-2.41-1.44-4.63-3.22-7.77-1.39-42.91,25.06-85.84,50.07-128.77,75.09-.7,.38-1.39,.76-2.09,1.14l.05-.06c-1.69,1.01-3.39,2.01-5.08,3.02,0,0,.12-.08,.12-.08-.71,.39-1.42,.78-2.13,1.17-.6,.33-1.21,.67-1.81,1-.45,.26-.9,.53-1.35,.79,0,0,.03-.1,.03-.1-6.95,3.99-1.07,6.26,1.49,7.88,32.62,20.58,65.36,40.95,98.07,61.37-6.03-1.05-.98,7.63-6.31,7.18,0,0,.02,.02,.02,.02-.3-.1-.59-.21-.89-.31-3.6,5.85,2.3,13.94-4.48,19.04Zm-14.95-17.18c1.7,4.18-2.47,10.73,2.31,12.17,3.2,.97,7.62-3.65,7.35-9.64-.28-6.26,.51-13.97-7.37-13.96-4.33,0-.49,7.57-2.28,11.43Z"/>
    <path class="cls-6" d="M172.66,249.26c1.48,2.87,2.84,5.82,4.47,8.6,4.01,6.85-.67,9.68-5.6,12.45-46.81-29.24-93.63-58.48-140.44-87.71-3.38-2.11-6.64-4.5-10.22-6.22C4.51,168.48-2.27,155.71,.67,137.78c18.34,19.26,42.82,29.53,64.55,43.79,33.77,22.17,68.25,43.26,102.43,64.81-.12,.22-.25,.45-.37,.67,.36-.1,.72-.2,1.07-.29,.71,.41,1.42,.83,2.14,1.24,.7,.47,1.39,.95,2.08,1.42l.09-.16Z"/>
    <path class="cls-9" d="M165.83,185.38h.35s.26,.24,.26,.24c.32,.78,.64,1.56,.96,2.33,.36-.42,.72-.85,1.09-1.27l-.12-.38c.69,.07,1.38,.15,2.07,.22,.35,.24,.69,.48,1.04,.71l.87,.46-.07-.06c.66,.42,1.33,.84,1.99,1.26l-.12-.1c1.06,.68,2.11,1.36,3.17,2.04,11.55,10.17,21.52,11.66,35.61,1.18,35.99-26.78,73.46-51.61,110.82-76.5,10-6.66,12.77-10.95,.27-16.79,3.47,.12,6.44-.49,7-4.7,6.41,3.17,12.52,6.58,11.78,15.27-2.83,9.32-12.1,11.77-18.46,17.33-6.09,4.01-11.99,8.36-18.31,11.97-11.89,6.79-22.05,13.74-18.81,30.48,1.82,9.4-15.05,19.59-23.76,15.35-.54-.32-1.07-.64-1.61-.96-.47-.32-.93-.63-1.4-.95h0c-.65-.45-1.31-.89-1.96-1.34-1.57-8.87-6.17-5.4-10.4-2.44-13.27,9.28-26.48,18.66-39.71,28-.36,.25-.72,.5-1.07,.75,0,0,.08-.08,.08-.08-.39,.34-.78,.69-1.17,1.03v-.21c-1.26,.77-2.5,1.55-3.75,2.32l-.04,.02c-.36,.31-.73,.61-1.09,.92,0,0,.05-.08,.05-.08-.67,.36-1.34,.73-2.01,1.09,0,0,.03-.02,.03-.02-.38,.33-.76,.65-1.14,.98l.02-.14c-8.97-.71-14.65-8.16-22.56-11.04l-.11,.14c-.39-.32-.77-.64-1.16-.97l.03,.04-1.04-.82c-.09-.23-.26-.32-.51-.25l-3.42-2.06,.03,.06c-2.33-1.36-4.66-2.72-7-4.07v.11c-.36-.24-.72-.47-1.09-.71-.3-.14-.62-.22-.95-.24l-1.07-1.08c-.54-.33-1.09-.66-1.63-.99-.46-.3-.92-.59-1.38-.89l-.04-.02c-1.26-.76-2.51-1.51-3.77-2.27l-.02,.08c-1.06-.61-2.11-1.23-3.17-1.84l.02,.02c-.65-.4-1.3-.81-1.94-1.21l.08,.13c-1.8-1.49-3.6-2.98-5.41-4.47l.02-.05m136.33-18.43c-.13-.25,1.38-5.91-.41-4.85-4.78,2.84-12.6,4.65-10.75,13.24,.49,2.26-1.5,7.03,2.24,6.24,5.86-1.24,12.18-3.97,8.93-14.63Z"/>
    <path class="cls-7" d="M324.34,126.62c6.36-5.56,15.63-8.01,18.46-17.33,10.36,7.92,25.75,9.36,30.91,23.93,.58,1.65,.41,3.56,.59,5.35-3.88,2.79-6.34,7.69-11.89,7.99-12.69-6.64-25.38-13.29-38.07-19.93Z"/>
    <path class="cls-12" d="M204.34,289.57c.7,.97,1.4,1.94,2.11,2.91-.7-.97-1.4-1.94-2.11-2.91Z"/>
    <path class="cls-9" d="M324.56,90.5c-1.35-.82-2.7-1.65-4.05-2.47,1.35,.82,2.7,1.65,4.05,2.47Z"/>
    <path class="cls-9" d="M330.82,93.95c-1.92,.74-2.84-.22-3.31-1.95,1.1,.65,2.21,1.3,3.31,1.95Z"/>
    <path class="cls-15" d="M314.52,1.52c.27-.51,.53-1.02,.8-1.52-.26,.51-.53,1.02-.8,1.52Z"/>
    <path class="cls-4" d="M324.34,126.62c12.69,6.64,25.38,13.29,38.07,19.93-15.5,9.74-30.89,19.65-46.51,29.18-34.08,20.81-68.27,41.44-102.44,62.11-2.24,1.35-4.65,2.42-6.98,3.61-12.39-7.53-24.77-15.07-37.16-22.6,.39-6.2,11.74-8.17,6.41-16.58,7.91,2.88,13.59,10.33,22.56,11.04-2.88,1.86-4.28,5.88-8.72,5.68-.63-.03-2.39,3.5-1.91,4.16,2.89,4.04,4.12-1.14,6.07-1.77,11.93-3.88,24.71-4.13,36.31-9.89,8.56-4.26,12.62-14.59,22.75-15.87,6.97-.88,10.47-4.28,10.67-11.22,8.71,4.24,25.58-5.95,23.76-15.35-3.24-16.73,6.92-23.69,18.81-30.48,6.32-3.61,12.22-7.95,18.31-11.97Z"/>
    <path class="cls-6" d="M175.74,202.28c5.33,8.41-6.02,10.38-6.41,16.58-.65-.38-1.3-.77-1.95-1.15-.38-.34-.75-.69-1.13-1.03,0,0-.14,.18-.13,.18-.12-.56-.25-1.12-.37-1.69-.49,.24-.98,.49-1.47,.73-13.08-7.85-26.16-15.69-39.24-23.54,6.78-5.1,.88-13.19,4.48-19.04,.25,.23,.55,.34,.89,.31,0,0-.02-.02-.02-.02,2.66,1.68,5.32,3.36,7.97,5.04v-.05c1.32,.73,2.65,1.45,3.97,2.18l-.1,.13c1.41,1.19,2.83,2.38,4.24,3.56l1.16,.96s-.08-.13-.08-.13c.65,.4,1.3,.81,1.94,1.21l-.02-.02c1.06,.61,2.11,1.23,3.17,1.84,0,0,.02-.08,.01-.08,.05,2.76,2.15,2.12,3.77,2.27,0,0,.04,.02,.04,.02,.46,.3,.92,.59,1.38,.89,.54,.33,1.09,.66,1.63,.99,.36,.36,.71,.72,1.07,1.08,.33,.02,.65,.1,.95,.24,.37,.24,.73,.47,1.1,.71,0,0-.01-.11-.01-.11-.21,5.73,4.01,3.84,7,4.07,0,0-.03-.06-.03-.06,1.14,.69,2.28,1.37,3.42,2.06,.24-.06,.41,.02,.51,.25,.35,.27,.69,.55,1.04,.82,0,0-.03-.04-.03-.04,.39,.32,.77,.64,1.16,.97l.11-.14Z"/>
    <path class="cls-6" d="M84.81,146.36c16.33,4.73,20.62,15.88,16.77,31.39-12.34-7.25-24.66-14.53-37.02-21.75-2.51-1.47-1.88-2.14,.41-2.9,6.63-2.2,13.23-4.49,19.84-6.74Z"/>
    <path class="cls-4" d="M164.27,215.9c.49-.24,.98-.49,1.47-.73,.12,.56,.25,1.12,.37,1.69-.62-.32-1.23-.64-1.84-.95Z"/>
    <path class="cls-11" d="M168.35,246.76c-.36,.1-.72,.2-1.07,.29,.12-.22,.25-.45,.37-.67,.29,.03,.52,.15,.7,.38Z"/>
    <path class="cls-11" d="M172.57,249.42c-.69-.47-1.39-.95-2.08-1.42,.69,.47,1.39,.95,2.08,1.42Z"/>
    <path class="cls-4" d="M166.25,216.68c.38,.34,.75,.69,1.13,1.03-.38-.34-.75-.69-1.13-1.03Z"/>
    <path class="cls-15" d="M171.48,187.24c-.35-.24-.69-.48-1.04-.71-.62-.75-1.12-2.63-2.07-.22,0,0,.12,.38,.12,.38-.68-.35-1.36-.71-2.05-1.06l-.26-.24s-.35,0-.35,0c-.47-.59-.95-1.18-1.42-1.77-2.61-4.46-6.88-6.49-11.56-7.91l-.27,.02-.14-.23c-.45-.28-.89-.56-1.34-.85-.32,.05-.55-.07-.69-.35-.34-.25-.68-.49-1.02-.74l.03,.02c-.48-.3-.96-.61-1.44-.91-.27,.09-.46,0-.57-.25-.43-.26-.86-.52-1.29-.77-.57-.36-1.13-.72-1.7-1.08-.43-.28-.87-.56-1.3-.83l-.02,.03c.39-5.18,4.4-4.04,7.58-4.35,0,0,.44,.05,.44,.05,.43-.31,.87-.62,1.3-.93,.56-.36,1.12-.71,1.68-1.07,.43-.33,.87-.67,1.3-1l-.06,.03,3-2.07-.03,.09c.37-.31,.75-.62,1.12-.93,0,0,.02-.01,.02-.01,.64-.39,1.28-.79,1.93-1.18,0,0-.1-.02-.1-.02,1.84,1.43,5.81-2.89,6.26,2.31v-.04c-1.01,.69-2.01,1.38-3.02,2.08,0,0,.03-.11,.03-.11-.37,.31-.74,.62-1.12,.92,0,0-.04,.03-.04,.03-.63,.4-1.26,.81-1.88,1.21l.09-.12c-.38,.34-.76,.68-1.14,1.02l.07-.03c-1,.73-2,1.45-3,2.18,.05,.25,.03,.5-.08,.74-.66,3.85,.53,5.03,4.07,2.84l1.92,1.1,1.88,1.12,.09,.04c.38,.29,.76,.57,1.14,.86l-.03-.1c1.06,2.66,2.49,4.68,5.84,3.39,.33-.01,.66-.02,.98-.02,0,.26,.04,.51,.08,.77,.37,.32,.73,.65,1.1,.97l-.06-.1c.68,.37,1.36,.73,2.04,1.1l-.04-.03c1.01,.68,2.01,1.36,3.02,2.04l-.03-.02c1.02,.67,2.03,1.34,3.05,2.01l-.05-.03c.37,.35,.74,.7,1.11,1.05,.32,.02,.62,.11,.91,.26,.35,.24,.71,.49,1.06,.73l-.07-.06c.37,.34,.75,.68,1.12,1.02l-.09-.12c.74,.37,1.48,.73,2.23,1.1,11.22,7.33,16.41-3.83,23.95-7.81,.93-.65,1.86-1.29,2.79-1.94,3.49-2.23,7.33-4.07,10.35-6.82,2.47-2.25,12.62-3.29,2.62-9.32-.38-.31-.77-.62-1.15-.94l.08,.12c-.67-.38-1.33-.77-2-1.15l.02,.02c-1.04-.64-2.08-1.29-3.12-1.93l.03,.06c-.2-2.63-2.22-2.07-3.85-2.2h-.02c-.46-.31-.92-.6-1.38-.9-.26,.04-.49-.04-.66-.24-.36-.27-.72-.53-1.08-.8v.09c2.02-3.39-9.69-3.27-2.07-8.09l.17,.08c.43,.27,.86,.54,1.28,.8,.59,.32,1.18,.64,1.77,.95,1.03,3.12,3.36,4.13,6.42,3.97,.25-.03,.44,.05,.59,.26,.44,.27,.87,.53,1.31,.8,.56,.34,1.11,.67,1.67,1.01l1.39,.99c.25-.06,.45,.01,.62,.2,.37,.27,.74,.55,1.11,.82l-.02-.13c1,.72,1.99,1.43,2.99,2.15,.32,.03,.63,.12,.93,.25,.36,.24,.73,.49,1.09,.73l-.02-.11c.23,3.63,2.85,3.15,5.25,3.04h.27c3.57,.02,6.5-.91,7.31-4.96,0,0-.04,.06-.04,.06,.35-.28,.7-.56,1.05-.84,6.05-4.3,12.38-8.25,18.03-13.02,3.16-2.67,8.82-3.14,8.93-8.91-1.03-.69-2.05-1.38-3.08-2.08l.11,.05c-.67-.38-1.33-.77-2-1.15l.03,.02c-.64-.36-1.27-.72-1.91-1.09l-.07-.03c-.38-.29-.76-.58-1.15-.87l.09,.11c-.68-.37-1.36-.74-2.04-1.12l.04,.04c-1.04-.65-2.07-1.3-3.11-1.96l.11,.04c-.68-.37-1.35-.75-2.03-1.12v.03c0-3.88,3.13-2.82,5.26-3.34l-.13,.06c.72,.37,1.45,.75,2.17,1.12,.6,.35,1.19,.69,1.79,1.04,1.03,.65,2.07,1.3,3.1,1.95l-.08-.04c.67,.37,1.34,.74,2.02,1.1l-.03-.02c.36,.34,.72,.68,1.08,1.02,12.22,10.03,16.06-5.5,24.19-7.92,.93-.57,1.87-1.14,2.8-1.72,2.92-1.82,6.45-3.12,8.57-5.62,2.14-2.52,10.4-1.9,5.31-8.79l-1.33-.84c-.56-.32-1.13-.65-1.69-.97-1.04-.66-2.07-1.32-3.11-1.98l.03,.06c-.23-2.66-2.27-2.06-3.92-2.16l.02,.02c-.68-3.47-3.24-3.94-6.15-3.87l-.12,.1c-1.18-2.36,.15-5.45-3.14-7.34-9.13-5.26-17.69-11.57-27.02-16.4-14.33-7.42-25.75-21.32-43.98-20.29-.22,0-.41-.09-.56-.25l-1.29-.9c-.3,.04-.59,.1-.88,.17l.22-.33c-1.69-4.93-5.11-7.13-10.31-6.52l-.12,.03c.2-3.17-2.11-2.19-3.77-2.27v.06c-.09-1.22-.13-2.54-1.85-1.16-.27,.05-.55,.06-.83,.02-1.04,.68-2.08,1.36-3.13,2.04-.4,.28-.8,.56-1.21,.84-.6,.38-1.21,.76-1.81,1.13,0,0,.06-.04,.06-.04-.66,.39-1.33,.79-1.99,1.18l.09-.13c-.38,.34-.76,.68-1.14,1.02l.07-.07c-.37,.31-.74,.61-1.12,.92l-.03,.02c-.64,.38-1.28,.77-1.93,1.15,0,0,.07-.08,.07-.08-.37,.31-.74,.62-1.11,.93-.56,.37-1.12,.74-1.68,1.11l-1.31,.95c-.09,.3-.18,.6-.25,.91-.48,.05-.96,.09-1.43,.14-.43,.33-.87,.66-1.3,.99l.06-.02c-.67,.39-1.34,.77-2.02,1.16,0,0,.09-.14,.09-.14l-1.14,.97c-.53,.35-1.07,.7-1.6,1.05-.46,.33-.93,.67-1.39,1,0,0,.07-.03,.07-.03-1,.69-2,1.38-3,2.07l.02-.04c-1,.7-1.99,1.39-2.99,2.09l.02-.13c-.38,.33-.75,.65-1.13,.98h.02c-5.53-.48-7.08,4.89-10.67,7.27l-.17-.2-1.15,1.01,.07-.02c-1,.69-2,1.39-2.99,2.08,0,0,.02-.13,.02-.13-.37,.33-.75,.66-1.12,1l.03-.02c-.99,.71-1.97,1.41-2.96,2.12l.04-.1c-.38,.31-.75,.62-1.13,.93h-.02c-.64,.41-1.28,.81-1.92,1.22l.1-.12c-.38,.32-.77,.64-1.15,.96,0,0,.02-.01,.02-.01-.32,.25-.64,.51-.96,.76-.13,.22-.33,.33-.58,.33-.49,.33-.98,.65-1.46,.98,0,0,.05-.06,.05-.06-.36,.31-.72,.62-1.08,.93-.57,.37-1.13,.74-1.7,1.12-.43,.32-.86,.65-1.28,.97-.52,.35-1.04,.7-1.56,1.05-.48,.34-.95,.67-1.43,1.01,0,0,.08-.07,.08-.07l-1.11,.91c-.55,.38-1.11,.76-1.66,1.14l-1.32,.94h.02c-.65,.39-1.3,.79-1.95,1.19,0,0,.11-.13,.11-.13-.38,.34-.77,.68-1.15,1.01l.07-.03c-.99,.71-1.97,1.42-2.96,2.13v-.13c-.39,.34-.77,.68-1.16,1.02-.15,.56-.29,1.12-.44,1.67-1.85,1.44-3.7,2.87-5.54,4.31-.27,.07-.54,.08-.81,0-1.04,.68-2.09,1.35-3.13,2.03l.04-.04c-1.61,.18-3.95-.79-3.68,2.34l.09,.24c-6.1-.35-1.65-3.74-1.68-5.84l.05,.13c.37-.33,.74-.66,1.12-.99l-.03,.02c1.3-.53,4.05-.23,1.67-2.89-.56-.31-1.12-.61-1.68-.92-1.04-.67-2.07-1.35-3.11-2.02l.11,.05c-.7-.36-1.39-.73-2.09-1.09,0,0,.04,.07,.04,.07-1.02-.68-2.04-1.35-3.06-2.03,0,0,.02,.06,.02,.06,.1-2.18,.2-4.37,3.26-4.31h-.06c.35,.35,.71,.71,1.06,1.07l-.04-.08c.36,3.59,3,3.08,5.4,2.99,.53,.31,1.07,.62,1.6,.93,1.11,.69,2.22,1.37,3.33,2.06,.81-.3,1.61-.61,2.42-.91,.38-.27,.76-.53,1.14-.8,.59-.41,1.19-.82,1.78-1.22,.42-.32,.84-.64,1.27-.96,.37-.31,.73-.63,1.1-.94,.61-.44,1.23-.89,1.84-1.33,.35-.24,.69-.47,1.04-.71,.99-.7,1.98-1.39,2.97-2.09,0,0-.04,.04-.04,.04,1.02-.66,2.04-1.33,3.06-1.99l-.02,.02c.66-.38,1.32-.76,1.98-1.14,0,0-.06,.1-.06,.1,.36-.35,.73-.69,1.09-1.04,0,0-.09,.06-.09,.06,.37-.31,.75-.62,1.12-.94l.03-.02c.98-.69,1.96-1.38,2.93-2.08l-.03,.03c1-.71,2.01-1.42,3.01-2.13,.38-.26,.75-.53,1.13-.79,.63-.39,1.26-.78,1.89-1.17l-.08,.1c.37-.32,.74-.64,1.11-.97h0c.32-.24,.63-.49,.95-.73,.16-.23,.38-.34,.66-.34,.46-.32,.93-.65,1.39-.97,0,0-.05,.03-.05,.03,.65-.4,1.31-.81,1.96-1.21l-.08,.15c.37-.36,.75-.72,1.12-1.09-.33-.67-.66-1.34-.99-2.02-.35-.26-.7-.51-1.05-.77,0,0,.04,.07,.04,.07-1.15-2.39-2-4.63,2.21-4.23l-.11-.05c.67,.38,1.34,.76,2.01,1.14l-.04-.02,1.13,.99v-.14c.52,.68,1.05,1.37,1.59,2.05,.73-.66,1.46-1.31,2.2-1.97,0,0-.04,.05-.04,.05,1.01-.68,2.02-1.36,3.03-2.04l-.03,.04c.99-.71,1.98-1.41,2.97-2.12,0,0-.03,.06-.03,.06,4.65-.47,8.62-1.91,10.08-6.99,0,0-.03,.05-.03,.05,1.01-.69,2.02-1.37,3.03-2.06l-.03,.09c.38-.29,.75-.58,1.13-.87l.08-.05,1.86-1.19-.09,.1c.37-.32,.75-.64,1.12-.96,.56-.36,1.11-.71,1.67-1.07,.44-.32,.88-.64,1.32-.97l-.03,.02c.65-.4,1.31-.8,1.96-1.2l-.09,.14c.37-.35,.75-.71,1.12-1.06l-.09,.1c.38-.33,.75-.66,1.13-.98l-.03,.02c.68-.54,1.35-1.09,2.03-1.63,.19-.25,.45-.39,.77-.41,.4-.35,.81-.7,1.21-1.05,0-.3,.02-.6,.06-.91,.51-3.71-2.39-2.48-4.17-2.87l.04,.06c-.48-2.99-2.73-3.06-5.03-3.06l.02,.06c-.21-3.44-2.65-3.19-5.03-3.04v.07c-1.51-4.48-4.01-5.65-7.83-2.31-.28,.1-.58,.15-.88,.17-.37,.36-.74,.73-1.11,1.09l.08-.04c-.68,.44-1.36,.88-2.05,1.32-3.67,2.23-7.34,4.47-11.01,6.7l-2.09,1.44c-6.63,4.04-13.25,8.07-19.88,12.11,.67,.43,1.33,.85,2,1.28l-.03-.05c1.03,.66,2.05,1.33,3.08,1.99,0,0-.01-.06-.01-.06-.13,2.08-.02,4.34-3.13,4.18,0,0,0,0,0,0-2.67-1.94-3.5-8.17-8.87-3.8,0,0,.04-.13,.04-.13-.38,.25-.75,.51-1.13,.76-.3,.1-.61,.17-.92,.19-.37,.33-.75,.66-1.12,.99-4.84,2.97-9.67,5.93-14.51,8.9-.51,.27-1.02,.54-1.53,.82-2.76,1.46-5.55,2.85-8.26,4.39-3.66,2.09-7.24,4.29-10.86,6.45,3.05,1.86,6.09,3.71,9.14,5.57,.07,.58,.14,1.17,.2,1.75-1.68,.92-3.36,1.84-5.04,2.77-.28,.06-.55,.15-.81,.27-11.3-11.97-19.43-.15-28.6,3.82-1.32,.65-2.65,1.3-3.97,1.95-2.86,1.45-5.72,2.9-8.58,4.35-.71,.29-1.42,.57-2.14,.86-.28,.09-.57,.14-.87,.15-1.04,.68-2.08,1.37-3.12,2.05l.06-.05c-2.37-.09-4.81-.28-5.02,3.11,.05,.58,.09,1.15,.14,1.73-3.77-.81-9.36,2.86-10.55-4.29,0,0-.03,.1-.03,.1,.45-.26,.9-.53,1.35-.79,.6-.33,1.21-.67,1.81-1,.71-.39,1.42-.78,2.13-1.17,0,0-.12,.08-.12,.08,2.4,.19,4.87,.48,5.08-3.02,0,0-.05,.06-.05,.06,.7-.38,1.39-.76,2.09-1.14,42.93-25.02,85.87-50.03,128.77-75.09,3.13-1.83,5.35-.05,7.77,1.39,41.84,24.94,83.68,49.87,125.53,74.8,.19,.29,.46,.43,.81,.4,0,0-.09-.12-.09-.12,.41,.28,.83,.55,1.24,.83l.13,.23s.24-.1,.24-.1c.54,.34,1.07,.67,1.61,1.01,0,0-.07-.04-.07-.04,.67,.39,1.35,.79,2.02,1.18,.49,.28,.98,.56,1.47,.83,.53,.33,1.05,.66,1.58,.99,1.21,.7,2.42,1.4,3.63,2.11,12.5,5.84,9.73,10.13-.27,16.79-37.36,24.89-74.82,49.72-110.82,76.5-14.09,10.48-24.06,8.99-35.61-1.18-.12-2.14-1.48-2.34-3.17-2.04,0,0,.12,.1,.12,.1-.66-.42-1.33-.84-1.99-1.26,0,0,.07,.06,.07,.06-.29-.15-.58-.31-.87-.46Z"/>
    <path class="cls-8" d="M150.7,165.41c-3.18,.31-7.19-.83-7.58,4.35-.89-.36-1.79-.73-2.68-1.09-1.25-.75-2.5-1.49-3.75-2.24-32.71-20.42-65.46-40.8-98.07-61.37-2.56-1.62-8.44-3.89-1.49-7.88,1.19,7.15,6.78,3.48,10.55,4.29,4.76,2.6,9.53,5.21,14.29,7.81,1.15,.76,2.3,1.53,3.45,2.29,12.4,12.76,23.31,8.52,33.58-2.96,.49-.32,.98-.65,1.47-.97,4.94-3.43,9.87-6.85,14.81-10.28,.03,2.1-4.42,5.48,1.68,5.83-3.12,2.52-6.24,5.05-9.36,7.58-.72,.54-1.43,1.08-2.15,1.62-1.4,.87-2.73,1.87-4.21,2.6-16.82,8.27-11.23,14.39,1.87,19.81,1.41,.95,2.83,1.9,4.24,2.85,12.14,11.06,24.03,13.41,35.44-1.02,.9-.65,1.79-1.3,2.69-1.95,5.57-4.02,11.14-8.03,16.71-12.05-5.57-3.64-11.14-7.29-16.72-10.92-.26-.17-.63-.17-.95-.25-1.37-.93-2.73-1.86-4.1-2.78-5.33-3.36-10.65-6.71-15.98-10.07,1.85-1.44,3.7-2.87,5.54-4.31,5.79,3.53,11.59,7.05,17.38,10.58,1.36,.88,2.72,1.75,4.08,2.63,12.14,12.45,23.49,10.57,34.26-1.88,.99-.63,1.98-1.26,2.97-1.89q18.19-11.11-.2-21.64c-.57-.32-1.21-.52-1.82-.78-1.62-1.06-3.24-2.12-4.87-3.19-5.94-3.21-10.72-8.65-17.99-9.28,3.58-2.39,5.13-7.75,10.67-7.28-.05,1.57-4.57,1.92-1.72,3.81,5.54,3.68,11.6,6.57,17.45,9.78,.76,.74,1.52,1.48,2.28,2.22,12.15,11.87,23.62,10.79,34.49-1.79,.5-.3,1-.6,1.5-.91,5.22-3.98,10.44-7.96,15.66-11.94-5.17-3.37-10.34-6.75-15.52-10.11-.27-.17-.62-.23-.93-.34-.57-.51-1.14-1.02-1.71-1.53,18.23-1.02,29.65,12.88,43.98,20.29,9.34,4.83,17.89,11.15,27.02,16.4,3.29,1.9,1.96,4.98,3.14,7.34-13-8.62-26-17.26-39.28-.43-.92,.6-1.84,1.2-2.77,1.81-3.95,2.73-8.06,5.27-11.74,8.32-1.09,.9-6.72,1.53-1.82,4.7,5.41,3.5,11.2,6.41,16.82,9.58l2.9,1.79c.45,.56,.91,1.13,1.36,1.69-2.13,.52-5.26-.53-5.25,3.34-1.94-.85-3.89-1.7-5.83-2.55-.7-.5-1.39-1.01-2.09-1.51-11.04-11.26-21.67-10-31.99,1.05-1.02,.92-2.04,1.85-3.06,2.77-1.13,.64-2.26,1.29-3.4,1.91-10.99,6.01-17.54,12.2-.75,19.29-7.62,4.82,4.09,4.7,2.07,8.09-1.26-.49-2.53-.97-3.8-1.46-.95-.63-1.91-1.27-2.86-1.9-11.92-13.11-21.89-6.71-31.5,3.17-.94,.65-1.88,1.3-2.81,1.95-2.26,1.41-4.53,2.82-6.79,4.23-.45-5.2-4.41-.88-6.25-2.31,2.39-1.94,4.78-3.88,7.16-5.82,1.31-1,2.62-1.99,3.94-2.99,3.16-2.1,6.18-4.44,9.5-6.24,6.76-3.64,5.03-5.35-.14-9.96-13.15-11.73-21.07-1.27-30.21,5.4-.71,.56-1.42,1.12-2.14,1.69-5.56,4.07-11.11,8.14-16.67,12.21,4.79,3.39,9.59,6.78,14.38,10.18,1.2,.85,2.39,1.73,3.58,2.6Zm99.76-71.82c1.32-.99,2.64-1.99,3.96-2.98,4.93-3.38,9.79-6.85,14.8-10.11,2.56-1.66,1.94-2.35-.14-4.13-12.38-10.6-23.87-10.37-34.65,2.23-.7,.53-1.39,1.06-2.09,1.59-4.21,2.92-8.51,5.72-12.56,8.85-.95,.73-5.04,1.07-1.54,3.91,10.59,8.62,21.22,13.9,32.22,.63Zm-41.96,29.11c6.58-4.4,13.17-8.78,19.73-13.2,1.08-.73,2.21-1.19,.5-2.85-11.67-11.36-25.33-10.25-36.24,3.12-4.77,3.2-9.61,6.28-14.23,9.68-1.04,.76-4.49,.75-2.52,3.46,8.25,11.36,23.4,11.2,32.77-.21Z"/>
    <path class="cls-14" d="M110.08,175.18c1.79-3.85-2.05-11.42,2.28-11.43,7.88,0,7.08,7.7,7.37,13.96,.27,5.99-4.14,10.61-7.35,9.64-4.77-1.44-.61-8-2.31-12.17Z"/>
    <path class="cls-9" d="M136.69,166.43c1.25,.75,2.5,1.49,3.75,2.24-.65,3.34-3.74,6.16-2.08,9.98-2.66-1.68-5.32-3.36-7.97-5.04,5.34,.45,.28-8.24,6.31-7.18Z"/>
    <path class="cls-8" d="M47.34,91.37c-.21,3.5-2.68,3.21-5.08,3.02,1.69-1.01,3.39-2.01,5.08-3.02Z"/>
    <path class="cls-8" d="M49.38,90.29c-.7,.38-1.39,.76-2.09,1.14,.7-.38,1.39-.76,2.09-1.14Z"/>
    <path class="cls-8" d="M42.39,94.31c-.71,.39-1.42,.78-2.13,1.17,.71-.39,1.42-.78,2.13-1.17Z"/>
    <path class="cls-9" d="M317.33,94.8c-.67-.39-1.35-.79-2.02-1.18,.67,.39,1.35,.79,2.02,1.18Z"/>
    <path class="cls-9" d="M312.25,91.8c-.35,.03-.62-.1-.81-.4,.27,.13,.54,.27,.81,.4Z"/>
    <path class="cls-9" d="M130.39,173.63c-.34,.03-.64-.08-.89-.31,.3,.1,.59,.21,.89,.31Z"/>
    <path class="cls-9" d="M313.4,92.51c-.41-.28-.83-.55-1.24-.83,.41,.28,.83,.55,1.24,.83Z"/>
    <path class="cls-9" d="M315.38,93.65c-.54-.34-1.07-.67-1.61-1.01,.54,.34,1.07,.67,1.61,1.01Z"/>
    <path class="cls-9" d="M320.39,96.62c-.53-.33-1.05-.66-1.58-.99,.53,.33,1.05,.66,1.58,.99Z"/>
    <path class="cls-8" d="M38.44,96.48c-.45,.26-.9,.53-1.35,.79,.45-.26,.9-.53,1.35-.79Z"/>
    <path class="cls-6" d="M263.45,184.42c-.2,6.93-3.7,10.34-10.67,11.22-10.12,1.28-14.18,11.61-22.75,15.87-11.6,5.77-24.38,6.01-36.31,9.89-1.95,.63-3.17,5.81-6.07,1.77-.47-.66,1.28-4.19,1.91-4.16,4.44,.2,5.84-3.82,8.72-5.68,0,0-.02,.14-.02,.14,.38-.33,.76-.65,1.14-.98,0,0-.03,.02-.03,.02,.67-.36,1.34-.73,2.01-1.09,0,0-.05,.08-.05,.08,.36-.31,.73-.61,1.09-.92,0,0,.04-.02,.04-.02,1.62-.18,3.74,.47,3.74-2.32,0,0,.01,.21,.01,.21,.39-.34,.78-.69,1.17-1.03,0,0-.08,.08-.08,.08,.36-.25,.71-.5,1.07-.75,13.23-9.34,26.44-18.72,39.71-28,4.24-2.96,8.83-6.44,10.4,2.44,.65,.45,1.31,.89,1.96,1.34,0,0,0,0,0,0,.47,.32,.93,.63,1.4,.95,.54,.32,1.07,.64,1.61,.96Z"/>
    <path class="cls-5" d="M278.55,162.48c3.25,10.65-3.07,13.38-8.93,14.63-3.73,.79-1.75-3.98-2.24-6.24-1.85-8.59,5.97-10.39,10.75-13.24,1.79-1.06,.28,4.6,.41,4.85Z"/>
    <path class="cls-2" d="M138.35,178.65c-1.66-3.82,1.44-6.64,2.08-9.98,.89,.36,1.79,.73,2.68,1.09,0,0,.02-.03,.02-.03,.43,.28,.87,.56,1.3,.83,.57,.36,1.13,.72,1.7,1.08,.43,.26,.86,.52,1.29,.77,.11,.26,.3,.34,.57,.25,.48,.3,.96,.61,1.44,.91,0,0-.03-.02-.03-.02,.34,.25,.68,.49,1.02,.74,.14,.29,.37,.4,.69,.35,.45,.28,.89,.56,1.34,.85l.14,.23s.27-.02,.27-.02c1.21,1.23,2.42,2.47,3.63,3.7-4.75,.5-9.51,1-14.26,1.51,0,0,.1-.13,.1-.13-1.32-.73-2.64-1.45-3.97-2.18v.05Z"/>
    <path class="cls-8" d="M164.41,183.61c-1.27-.14-2.54-.28-3.8-.42-1.38-1.26-2.75-2.52-4.13-3.78-1.21-1.23-2.42-2.47-3.63-3.7,4.69,1.42,8.95,3.45,11.56,7.91Z"/>
    <path class="cls-4" d="M169.57,198.42c-2.99-.23-7.21,1.66-7-4.07,2.33,1.36,4.66,2.71,7,4.07Z"/>
    <path class="cls-4" d="M156.41,190.53c-1.62-.15-3.72,.49-3.77-2.27,1.26,.76,2.51,1.51,3.77,2.27Z"/>
    <path class="cls-4" d="M206.21,208.23c0,2.79-2.12,2.14-3.74,2.32,1.25-.77,2.49-1.55,3.74-2.32Z"/>
    <path class="cls-2" d="M166.44,185.62c.68,.35,1.36,.71,2.05,1.06-.36,.42-.72,.85-1.09,1.27-.32-.78-.64-1.56-.96-2.33Z"/>
    <path class="cls-4" d="M152.63,188.34c-1.06-.61-2.11-1.23-3.17-1.84,1.06,.61,2.11,1.23,3.17,1.84Z"/>
    <path class="cls-8" d="M174.15,188.8c1.69-.31,3.05-.11,3.17,2.04-1.06-.68-2.11-1.36-3.17-2.04Z"/>
    <path class="cls-4" d="M172.97,200.42c-1.14-.69-2.28-1.37-3.42-2.06,1.14,.69,2.28,1.37,3.42,2.06Z"/>
    <path class="cls-8" d="M168.37,186.3c.96-2.41,1.45-.53,2.07,.22-.69-.07-1.38-.15-2.07-.22Z"/>
    <path class="cls-4" d="M260.45,182.5c-.65-.45-1.31-.89-1.96-1.34,.65,.44,1.31,.89,1.96,1.34Z"/>
    <path class="cls-4" d="M149.48,186.51c-.65-.4-1.3-.81-1.94-1.21,.65,.4,1.3,.81,1.94,1.21Z"/>
    <path class="cls-8" d="M172.28,187.64c.66,.42,1.33,.84,1.99,1.26-.66-.42-1.33-.84-1.99-1.26Z"/>
    <path class="cls-4" d="M201.4,211.42c-.67,.36-1.34,.73-2.01,1.09,.67-.36,1.34-.73,2.01-1.09Z"/>
    <path class="cls-4" d="M261.84,183.45c-.47-.32-.93-.63-1.4-.95,.47,.32,.93,.63,1.4,.95Z"/>
    <path class="cls-4" d="M147.62,185.43l-1.16-.96c.39,.32,.77,.64,1.16,.96Z"/>
    <path class="cls-8" d="M171.48,187.24c.29,.15,.58,.31,.87,.46-.29-.15-.58-.31-.87-.46Z"/>
    <path class="cls-4" d="M157.83,191.45c-.46-.3-.92-.59-1.38-.89,.46,.3,.92,.59,1.38,.89Z"/>
    <path class="cls-4" d="M160.54,193.51c-.36-.36-.71-.72-1.07-1.08,.36,.36,.71,.72,1.07,1.08Z"/>
    <path class="cls-4" d="M162.59,194.46c-.37-.24-.73-.47-1.1-.71,.37,.24,.73,.47,1.1,.71Z"/>
    <path class="cls-4" d="M174.51,201.49c-.35-.28-.69-.55-1.04-.82,.35,.28,.69,.55,1.04,.82Z"/>
    <path class="cls-4" d="M175.63,202.42c-.38-.32-.77-.64-1.16-.97,.38,.32,.77,.64,1.16,.97Z"/>
    <path class="cls-4" d="M208.38,206.73c-.36,.25-.71,.5-1.07,.75,.36-.25,.71-.5,1.07-.75Z"/>
    <path class="cls-4" d="M207.39,207.4c-.39,.34-.78,.69-1.17,1.03,.39-.34,.78-.69,1.17-1.03Z"/>
    <path class="cls-4" d="M202.44,210.57c-.36,.31-.73,.61-1.09,.92,.36-.31,.73-.61,1.09-.92Z"/>
    <path class="cls-4" d="M199.42,212.48c-.38,.33-.76,.65-1.14,.98,.38-.33,.76-.65,1.14-.98Z"/>
    <path class="cls-9" d="M138.35,178.6c1.32,.73,2.65,1.45,3.97,2.18-1.32-.73-2.64-1.45-3.97-2.18Z"/>
    <path class="cls-13" d="M254.52,123.07c1.94,.85,3.89,1.7,5.83,2.56,0,0,0-.03,0-.03,.68,.37,1.35,.75,2.03,1.12,0,0-.11-.04-.11-.04,1.04,.65,2.07,1.3,3.1,1.96,0,0-.04-.04-.04-.04,.68,.37,1.36,.74,2.04,1.12,0,0-.09-.11-.09-.11,.38,.29,.76,.58,1.15,.87,0,0,.07,.03,.07,.03,.64,.36,1.27,.72,1.91,1.09,0,0-.03-.02-.03-.02,.67,.38,1.33,.77,2,1.15,0,0-.11-.05-.11-.05,1.03,.69,2.05,1.38,3.08,2.08-.11,5.77-5.77,6.24-8.93,8.91-5.65,4.77-11.98,8.72-18.03,13.02-.35,.28-.7,.56-1.05,.84,0,0,.04-.06,.04-.06-2.44,1.65-4.88,3.3-7.31,4.96,0,0-.27,0-.27,0-1.75-1.01-3.5-2.03-5.25-3.04,0,0,.02,.11,.02,.11-.36-.24-.73-.49-1.09-.73-.3-.13-.61-.21-.93-.25-1-.72-1.99-1.43-2.99-2.15,0,0,.02,.13,.02,.13-.37-.28-.74-.55-1.11-.82-.17-.19-.37-.26-.62-.2-.46-.33-.93-.66-1.39-.99-.56-.34-1.11-.67-1.67-1.01-.44-.27-.87-.53-1.31-.8-.14-.2-.34-.29-.59-.26-.56-.54-1.11-1.08-1.67-1.62,9.3-8.93,18.79-15.33,30.31-3.01,.86,.92,3.85,1.22,4.73,.47,1.94-1.63-.41-2.58-1.54-3.07-12.56-5.48-15.21-11.77-1.84-19.68,.76-.45,1.11-1.6,1.66-2.42Z"/>
    <path class="cls-13" d="M260.85,94.39c13.28-16.82,26.28-8.18,39.28,.43,0,0,.12-.1,.12-.1,2.05,1.29,4.1,2.58,6.15,3.87,0,0-.02-.02-.02-.02,1.31,.72,2.61,1.44,3.92,2.16,0,0-.03-.06-.03-.06,1.04,.66,2.07,1.32,3.11,1.98,.56,.32,1.13,.65,1.69,.97,.44,.28,.88,.56,1.32,.84,5.09,6.89-3.17,6.27-5.31,8.79-2.12,2.5-5.66,3.8-8.57,5.62-1.27-1.05-2.38-2.44-3.83-3.09-9.91-4.44-22.15-8.3-3.12-17.82,.51-.26,.97-1.96,.71-2.21-1.58-1.49-3.24-1.29-4.8,.25-8.35,8.23-16.85,9.65-25.78,.77-1.21-1.2-3.2-1.62-4.83-2.4Z"/>
    <path class="cls-3" d="M141.53,47.23c6.63-4.04,13.25-8.07,19.88-12.1,4.38,7.6,13.51,9,19.28,14.79-2.8,2.17-5.61,4.34-8.41,6.51,0,0,.03-.06,.03-.06-.99,.71-1.98,1.41-2.97,2.12,0,0,.03-.04,.03-.04-1.01,.68-2.02,1.36-3.03,2.04,0,0,.04-.05,.04-.05-1.26-.03-2.53-.05-3.79-.08,0,0,0,.14,0,.14-.38-.33-.75-.66-1.13-.99,0,0,.04,.02,.04,.02-.67-.38-1.34-.76-2.01-1.14,0,0,.11,.05,.1,.05-4.34-2.68-8.68-5.36-13.02-8.04,0,0,.01,.06,.01,.06-1.03-.66-2.05-1.33-3.08-1.99,0,0,.03,.05,.03,.05-.67-.43-1.33-.85-2-1.28Z"/>
    <path class="cls-13" d="M211.51,153.22c1.27,.49,2.53,.97,3.79,1.46,0,0,0-.09,0-.09,.36,.27,.72,.53,1.08,.8,.18,.2,.4,.28,.67,.24,.46,.3,.92,.59,1.38,.89,0,0,.02,.01,.02,.01,1.28,.73,2.57,1.47,3.85,2.2,0,0-.03-.06-.03-.06,1.04,.64,2.08,1.29,3.12,1.93,0,0-.02-.02-.02-.02,.67,.38,1.33,.77,2,1.15,0,0-.08-.12-.08-.12,.38,.31,.77,.62,1.15,.94,10,6.02-.15,7.06-2.62,9.32-3.01,2.75-6.86,4.59-10.35,6.82-10.15-7.12-26.61-13.25-3.96-25.47Z"/>
    <path class="cls-3" d="M168.46,152.53c-2.39,1.94-4.78,3.88-7.16,5.82,0,0,.1,.02,.1,.02-.64,.39-1.28,.79-1.92,1.18,0,0-.02,.01-.02,.01-.37,.31-.75,.62-1.12,.93,0,0,.03-.09,.03-.09-1,.69-2,1.38-3,2.07,0,0,.06-.03,.06-.03-.43,.33-.87,.67-1.3,1-.56,.36-1.12,.71-1.68,1.07-.43,.31-.87,.62-1.3,.93,0,0-.44-.05-.44-.05-1.19-.87-2.38-1.75-3.58-2.6-4.79-3.4-9.58-6.79-14.38-10.18,5.56-4.07,11.11-8.14,16.67-12.21,6.35,4.03,12.7,8.07,19.05,12.1Z"/>
    <path class="cls-3" d="M163.5,33.68c3.67-2.23,7.34-4.47,11.02-6.71,.68-.44,1.36-.88,2.05-1.32,0,0-.08,.04-.08,.04,.37-.36,.74-.73,1.11-1.09,.3-.01,.59-.07,.88-.16l7.85,2.31s-.01-.07-.01-.07c1.68,1.01,3.35,2.03,5.03,3.04,0,0-.02-.06-.02-.06,1.68,1.02,3.35,2.04,5.03,3.06,0,0-.04-.06-.03-.06,1.39,.96,2.78,1.92,4.17,2.87-.04,.3-.06,.6-.06,.91-.4,.35-.81,.7-1.21,1.05-.32,.02-.57,.16-.77,.41-.68,.54-1.35,1.09-2.03,1.63,0,0,.03-.02,.03-.02-.38,.33-.75,.66-1.13,.98,0,0,.09-.1,.09-.1-.37,.35-.75,.71-1.12,1.06,0,0,.09-.14,.09-.14-.65,.4-1.31,.8-1.96,1.2,0,0,.03-.02,.03-.02-.44,.32-.88,.64-1.32,.97-.56,.36-1.11,.71-1.67,1.07-.37,.32-.75,.64-1.12,.96,0,0,.09-.1,.09-.1-.62,.4-1.24,.79-1.86,1.19,0,0-.08,.05-.08,.05-.38,.29-.75,.58-1.13,.87,0,0,.03-.09,.03-.09-.63,.12-1.27,.24-1.9,.36-6.65-4.7-13.31-9.41-19.96-14.11Z"/>
    <path class="cls-13" d="M212.68,180.63c-7.54,3.97-12.73,15.14-23.95,7.81-.74-.37-1.48-.73-2.23-1.1,0,0,.09,.12,.09,.12-.37-.34-.75-.68-1.12-1.02,0,0,.07,.06,.07,.06-.35-.24-.71-.49-1.06-.73-.28-.15-.58-.24-.91-.26-.37-.35-.74-.7-1.11-1.05,0,0,.05,.03,.05,.03-1.02-.67-2.03-1.34-3.05-2.01,0,0,.03,.02,.03,.02-1.01-.68-2.01-1.36-3.02-2.04,0,0,.04,.03,.04,.03-.09-.3-.15-.61-.18-.93,9.45-7.1,18.79-14.68,30.2-3.03,1.69,1.72,4.08,2.75,6.14,4.1Z"/>
    <path class="cls-13" d="M265.6,122.29c-.45-.56-.91-1.13-1.36-1.69,8.8-6.64,17.32-14.79,28.59-3.8,1.81,1.76,4.56,2.56,6.87,3.8-8.14,2.42-11.98,17.96-24.19,7.92-.36-.34-.72-.68-1.08-1.02,0,0,.03,.02,.03,.02-.67-.37-1.34-.74-2.02-1.1,0,0,.08,.04,.08,.04-1.03-.65-2.07-1.3-3.1-1.95-.6-.35-1.19-.69-1.79-1.04-.72-.37-1.45-.75-2.17-1.12l.13-.06Z"/>
    <path class="cls-3" d="M163.8,68.87c7.27,.63,12.05,6.07,17.99,9.28-10.41,13.26-21.22,13.75-32.36,1.45,.16-.32,.33-.63,.49-.95,.26,0,.45-.11,.58-.33,.32-.25,.64-.51,.96-.76,0,0-.02,.01-.02,.01,.38-.32,.77-.64,1.15-.96,0,0-.1,.12-.1,.12,.64-.4,1.28-.8,1.92-1.2,0,0,.02-.01,.02-.01,.38-.31,.75-.62,1.13-.93,0,0-.04,.1-.04,.1,.99-.71,1.97-1.41,2.96-2.12,0,0-.03,.02-.03,.02,.37-.33,.75-.66,1.12-1,0,0-.02,.13-.02,.13,1-.69,2-1.39,2.99-2.08,0,0-.07,.02-.07,.02,.38-.34,.77-.67,1.15-1.01l.17,.2Z"/>
    <path class="cls-3" d="M147.36,104.88c-5.79-3.53-11.59-7.05-17.38-10.58,.15-.56,.29-1.12,.44-1.68,.39-.34,.77-.68,1.16-1.02,0,0,0,.13,0,.13,.99-.71,1.97-1.42,2.96-2.13,0,0-.07,.03-.07,.03,.38-.34,.77-.67,1.15-1.01,0,0-.11,.13-.11,.13,.65-.4,1.3-.8,1.95-1.2,0,0-.02,0-.02,0,.44-.31,.88-.63,1.32-.94,.55-.38,1.11-.76,1.66-1.14,.37-.3,.74-.61,1.11-.91,0,0-.08,.07-.08,.07,.48-.34,.95-.67,1.43-1.01,.52-.35,1.04-.7,1.56-1.05,.32-.02,.64-.05,.95-.09,12.16,6.18,23.66,12.42,2.17,21.94-.11,.05-.14,.29-.21,.44Z"/>
    <path class="cls-13" d="M213.24,146.59c-16.79-7.09-10.24-13.28,.75-19.29,1.14-.62,2.27-1.28,3.4-1.91,11.61,6.62,18.96,13.49,1.34,21.92-.27,.13-.22,.93-.32,1.42l-1.95-.29c-.59-.32-1.18-.64-1.77-.95-.43-.27-.86-.54-1.28-.8l-.17-.08Z"/>
    <path class="cls-3" d="M124.44,98.62c5.33,3.36,10.65,6.71,15.98,10.07-10.2,12.38-21.19,12.42-32.83,2.1,3.12-2.53,6.24-5.05,9.36-7.58,0,0-.09-.24-.09-.25,1.23-.78,2.46-1.56,3.69-2.34,0,0-.04,.04-.04,.04,1.04-.68,2.09-1.35,3.13-2.03,.27,.07,.54,.06,.81,0Z"/>
    <path class="cls-3" d="M155.03,68.47c-.28,0-.5,.11-.66,.34-.32,.24-.63,.49-.95,.74,0,0,0,0,0,0-.37,.32-.74,.64-1.11,.97,0,0,.08-.1,.08-.1-.63,.39-1.26,.78-1.89,1.17-.38,.26-.75,.53-1.13,.79-1,.71-2.01,1.42-3.01,2.13,0,0,.03-.03,.03-.03-.98,.69-1.96,1.38-2.93,2.08,0,0-.03,.02-.03,.02-.32-.01-.64,0-.96,.05-4.87-3.32-14.02-7.09-13.73-9.87,.63-5.94,8.74-7.77,14.05-10.94,.28-.17,.59-.3,.89-.45,4.57,2.43,9.14,4.87,13.71,7.3,0,0-.04-.07-.04-.07,.35,.26,.7,.51,1.04,.77,.33,.67,.66,1.34,.99,2.02-.37,.36-.75,.72-1.12,1.09,0,0,.08-.15,.08-.15-.65,.4-1.31,.81-1.96,1.21,0,0,.05-.03,.05-.03-.46,.32-.93,.65-1.39,.97Z"/>
    <path class="cls-3" d="M190.2,75.19c-5.85-3.22-11.91-6.11-17.45-9.79-2.85-1.89,1.67-2.24,1.72-3.81,0,0-.02,0-.02,0,.38-.33,.75-.65,1.13-.98,0,0-.02,.13-.02,.13,1-.7,1.99-1.39,2.99-2.09,0,0-.02,.04-.02,.04,1-.69,2-1.38,3-2.07,0,0-.07,.03-.07,.03,.46-.33,.93-.67,1.39-1,.53-.35,1.07-.7,1.6-1.05,.38-.32,.76-.64,1.14-.97,0,0-.09,.14-.09,.14,.61-.1,1.22-.2,1.83-.29,9.96,5.55,22.13,10.74,3.27,20.83-.23,.12-.27,.58-.4,.89Z"/>
    <path class="cls-3" d="M191.75,49.64c.56-.37,1.12-.74,1.68-1.11,.37-.31,.74-.62,1.11-.93,0,0-.07,.08-.07,.08,.64-.38,1.28-.77,1.92-1.15,0,0,.03-.02,.03-.02,.37-.31,.74-.61,1.12-.92,0,0-.07,.07-.07,.07,.38-.34,.76-.68,1.14-1.02,0,0-.09,.13-.09,.13,.66-.39,1.33-.78,1.99-1.18,0,0-.06,.04-.06,.04,.6-.38,1.21-.76,1.81-1.13,.4-.28,.8-.56,1.21-.84,1.04-.68,2.08-1.36,3.13-2.04,.28,.04,.55,.04,.83-.02,.62,.39,1.24,.78,1.87,1.16,0,0-.01-.06-.01-.06,1.26,.76,2.51,1.51,3.77,2.27,0,0,.12-.03,.12-.03,3.44,2.17,6.87,4.35,10.31,6.52,0,0-.22,.33-.22,.33-9.56,9.21-19.45,14.2-30.76,2.54-.51-.53-1.52-.58-2.3-.85,.07-.31,.15-.61,.25-.91,.44-.32,.87-.63,1.31-.95Z"/>
    <path class="cls-3" d="M115.27,97.37c-4.94,3.43-9.87,6.85-14.81,10.28-17.67-9.39-9.23-16.06,2.33-22.41,1.83,.84,3.67,1.68,5.51,2.53,0,0-.02-.06-.01-.06,1.02,.68,2.04,1.35,3.06,2.03,0,0-.04-.07-.03-.07,.7,.36,1.39,.73,2.09,1.09,0,0-.11-.05-.11-.05,1.04,.67,2.07,1.35,3.11,2.02,.56,.31,1.12,.61,1.68,.92-.56,.96-1.11,1.93-1.67,2.89,0,0,.03-.02,.03-.02-.37,.33-.74,.66-1.12,.99l-.05-.13Z"/>
    <path class="cls-3" d="M128.17,87.49c-.59,.41-1.19,.82-1.78,1.22-.38,.27-.76,.53-1.14,.8-.81,.3-1.61,.61-2.42,.91-1.11-.69-2.22-1.37-3.33-2.06-.53-.31-1.07-.62-1.6-.93-1.8-1-3.6-1.99-5.4-2.99,0,0,.04,.08,.04,.08-.35-.36-.71-.72-1.06-1.08,0,0,.06,0,.06,.01-1.4-.94-2.8-1.87-4.2-2.81,8.25-11.79,22.41-12.31,31.09-1.16-.7,.67-1.4,1.34-2.09,2.01,0,0,.04-.04,.04-.04-.99,.7-1.98,1.39-2.97,2.09-.35,.24-.69,.47-1.04,.71-.61,.44-1.23,.89-1.84,1.33-.37,.31-.73,.63-1.1,.94-.42,.32-.84,.64-1.27,.96Z"/>
    <path class="cls-3" d="M167.55,160.66c2.26-1.41,4.53-2.82,6.79-4.23,14.52,5.96,15.74,12.47,.84,19.69-.7,.34-1.22,1.08-1.82,1.63-.33,0-.66,0-.98,.02-1.95-1.13-3.9-2.26-5.84-3.39,0,0,.03,.1,.03,.1-.38-.29-.76-.57-1.14-.86,0,0-.09-.04-.09-.04-.63-.37-1.25-.75-1.88-1.12-.64-.37-1.28-.73-1.92-1.1-1.36-.95-2.71-1.89-4.07-2.84,.1-.24,.13-.48,.08-.74,1-.73,2-1.45,3-2.18,0,0-.07,.03-.07,.03,.38-.34,.76-.68,1.14-1.02,0,0-.09,.12-.09,.12,.63-.4,1.26-.81,1.88-1.21,0,0,.04-.03,.04-.03,.37-.31,.74-.62,1.12-.92,0,0-.03,.11-.03,.11,1.01-.69,2.01-1.38,3.02-2.08v.04Z"/>
    <path class="cls-1" d="M147.36,104.88c.07-.15,.1-.39,.21-.44,21.49-9.52,9.99-15.76-2.17-21.94,.11-.29,.22-.59,.33-.88,.57-.37,1.13-.74,1.7-1.12,.36-.31,.72-.62,1.08-.93,0,0-.05,.06-.05,.05,.32-.03,.65-.04,.98-.03,11.14,12.3,21.95,11.82,32.36-1.45,1.62,1.06,3.24,2.12,4.87,3.19-3.64,2.55-7.53,4.82-10.82,7.77-1.76,1.57-8.38,2.95-1.99,6.9,4.73,2.92,9.87,5.19,14.83,7.75-.99,.63-1.98,1.26-2.97,1.89-11.96-9.14-23.52-11.13-34.26,1.88-1.36-.88-2.72-1.75-4.08-2.63Z"/>
    <path class="cls-1" d="M299.7,120.6c-2.31-1.24-5.06-2.04-6.87-3.8-11.27-10.99-19.79-2.84-28.59,3.8-.97-.6-1.93-1.2-2.9-1.79,19.34-10.48,8.7-16.64-3.25-22.61,.92-.6,1.84-1.2,2.77-1.81,1.63,.78,3.62,1.19,4.83,2.4,8.94,8.88,17.44,7.46,25.78-.77,1.56-1.54,3.22-1.75,4.8-.25,.26,.25-.2,1.95-.71,2.21-19.03,9.52-6.78,13.38,3.12,17.82,1.45,.65,2.56,2.04,3.83,3.09-.93,.57-1.87,1.14-2.8,1.72Z"/>
    <path class="cls-1" d="M173.36,177.76c.6-.55,1.11-1.29,1.82-1.63,14.9-7.23,13.68-13.73-.84-19.69,.94-.65,1.88-1.3,2.81-1.95,11.65,10.37,22.03,8.15,31.5-3.17,.95,.63,1.91,1.27,2.86,1.9-22.66,12.21-6.19,18.35,3.96,25.47-.93,.65-1.86,1.29-2.79,1.94-2.06-1.35-4.45-2.38-6.14-4.1-11.41-11.65-20.76-4.07-30.2,3.03-.62-.06-1.24-.12-1.86-.17,0,0,.06,.1,.06,.1-.37-.32-.73-.65-1.1-.97-.05-.25-.07-.51-.08-.77Z"/>
    <path class="cls-1" d="M190.19,51.5c.78,.27,1.79,.32,2.3,.85,11.31,11.66,21.2,6.67,30.76-2.54,.29-.08,.58-.13,.88-.17,.43,.3,.86,.6,1.29,.9,.15,.16,.34,.24,.56,.25,.57,.51,1.14,1.02,1.71,1.53q-17,9.6-1.85,20.18c.93,.65,1.76,1.46,2.63,2.2-.5,.3-1,.6-1.5,.91-1.88-.54-4.17-.56-5.57-1.69-10.92-8.8-20.39-6.92-28.92,3.48-.76-.74-1.52-1.48-2.28-2.22,.13-.3,.17-.76,.4-.88,18.86-10.08,6.69-15.28-3.27-20.83,.05-.29,.11-.58,.18-.87,0,0-.06,.02-.06,.02,.43-.33,.87-.66,1.3-.99,.48-.05,.96-.09,1.43-.14Z"/>
    <path class="cls-3" d="M61.96,109.28c-4.76-2.6-9.53-5.21-14.29-7.81-.05-.58-.09-1.15-.14-1.73,1.67-1.04,3.35-2.07,5.03-3.11,0,0-.06,.05-.06,.05,1.04-.68,2.08-1.37,3.12-2.05,.3-.01,.59-.06,.87-.15,.71-.29,1.42-.57,2.14-.86,2.86-1.45,5.72-2.9,8.58-4.35,12.03,4.29,11.78,9.31,1.02,15.21-2.28,1.25-4.18,3.19-6.25,4.81Z"/>
    <path class="cls-1" d="M61.96,109.28c2.07-1.62,3.98-3.56,6.25-4.81,10.76-5.9,11.01-10.92-1.02-15.21,1.32-.65,2.65-1.3,3.97-1.95,6.8,7.15,13.7,8.5,21.24,.87,1.99-2.02,4.89-3.15,7.37-4.69,.26-.12,.53-.21,.81-.27,.74,.67,1.47,1.34,2.21,2.01-11.56,6.35-20.01,13.02-2.33,22.41-.49,.32-.98,.65-1.47,.97-12.22-10.68-23.35-9.01-33.58,2.96-1.15-.76-2.3-1.53-3.45-2.29Z"/>
    <path class="cls-1" d="M138.45,79.48c-8.68-11.16-22.84-10.63-31.09,1.16-.58-.06-1.16-.12-1.74-.18-.07-.58-.14-1.17-.2-1.75-.39-3.56,2.52-4.61,4.69-6.3,3.28-2.54,10.98-2.87,5.28-10.12,.51-.27,1.02-.54,1.53-.82,4.46,4.04,8.12,1.64,12.24-.99,3.95-2.51,8.48-4.09,12.75-6.08,.51,.05,1.01,.1,1.52,.15,0,0,0,0,0,0,.1,.26,.18,.52,.24,.79-.3,.15-.6,.28-.89,.45-5.3,3.17-13.42,5-14.05,10.94-.29,2.78,8.86,6.55,13.73,9.87-.07,.29-.12,.59-.16,.88,0,0,.09-.06,.09-.06-.36,.35-.73,.69-1.09,1.04,0,0,.06-.1,.06-.1-.66,.38-1.32,.76-1.98,1.14,0,0,.02-.02,.02-.02-.32,0-.65,0-.97-.02Z"/>
    <path class="cls-3" d="M99.77,83.49c-2.48,1.54-5.37,2.67-7.37,4.69-7.54,7.64-14.44,6.28-21.24-.87,9.17-3.97,17.3-15.79,28.6-3.82Z"/>
    <path class="cls-3" d="M115.39,62.29c5.7,7.25-2,7.58-5.28,10.12-2.17,1.68-5.09,2.73-4.69,6.3-3.05-1.86-6.09-3.71-9.14-5.57,3.62-2.16,7.2-4.36,10.86-6.45,2.71-1.55,5.5-2.93,8.26-4.39Z"/>
    <path class="cls-3" d="M141.92,54.42c-4.27,1.99-8.81,3.57-12.75,6.08-4.13,2.62-7.79,5.02-12.24,.99,4.84-2.97,9.67-5.93,14.51-8.9,.37-.33,.75-.66,1.12-.99,.32-.03,.62-.09,.92-.19,.38-.25,.75-.51,1.13-.76,0,0-.04,.13-.04,.13,2.45,1.22,4.9,2.43,7.35,3.65Z"/>
    <path class="cls-1" d="M163.5,33.68c6.65,4.7,13.31,9.41,19.96,14.11-.38,.56-.75,1.13-1.13,1.69,0,0,.03-.05,.03-.04-.56,.16-1.12,.32-1.67,.47-5.77-5.79-14.9-7.19-19.28-14.79,.7-.48,1.39-.96,2.09-1.44Z"/>
    <path class="cls-8" d="M143.68,55.36c-.06-.27-.14-.54-.24-.79,3.11,.16,3-2.1,3.13-4.18,4.34,2.68,8.68,5.36,13.02,8.04-4.21-.4-3.35,1.84-2.21,4.23-4.57-2.43-9.14-4.87-13.71-7.3Z"/>
    <path class="cls-8" d="M105.62,80.46c.58,.06,1.16,.12,1.74,.18,1.4,.94,2.8,1.87,4.2,2.81-3.06-.06-3.16,2.12-3.26,4.31-1.84-.84-3.67-1.68-5.51-2.53-.73-.67-1.47-1.34-2.21-2.01,1.68-.92,3.36-1.84,5.04-2.77Z"/>
    <path class="cls-8" d="M223.47,49.47c-3.44-2.17-6.87-4.35-10.31-6.52,5.2-.61,8.62,1.59,10.31,6.52Z"/>
    <path class="cls-8" d="M180.69,49.91c.56-.16,1.12-.31,1.67-.47-1.46,5.07-5.43,6.52-10.08,6.99,2.8-2.17,5.6-4.34,8.41-6.51Z"/>
    <path class="cls-8" d="M141.92,54.42c-2.45-1.22-4.9-2.44-7.35-3.65,5.37-4.36,6.2,1.86,8.87,3.8-.51-.05-1.01-.1-1.52-.15Z"/>
    <path class="cls-8" d="M186.31,26.75l-7.85-2.31c3.83-3.34,6.32-2.17,7.85,2.31Z"/>
    <path class="cls-8" d="M240.06,162.4c2.44-1.65,4.88-3.3,7.31-4.96-.82,4.04-3.74,4.98-7.31,4.96Z"/>
    <path class="cls-8" d="M157.46,168.53c1.36,.95,2.71,1.89,4.07,2.84-3.54,2.19-4.74,1.01-4.07-2.84Z"/>
    <path class="cls-8" d="M166.53,174.39c1.95,1.13,3.9,2.26,5.84,3.39-3.35,1.3-4.79-.72-5.84-3.39Z"/>
    <path class="cls-8" d="M306.39,98.59c-2.05-1.29-4.1-2.58-6.15-3.87,2.9-.07,5.47,.41,6.15,3.87Z"/>
    <path class="cls-8" d="M216.46,148.43c.65,.1,1.3,.19,1.95,.29,.93,.69,1.87,1.38,2.8,2.06,.56,.54,1.11,1.08,1.67,1.62-3.06,.16-5.39-.85-6.41-3.97Z"/>
    <path class="cls-8" d="M52.56,96.62c-1.68,1.04-3.35,2.08-5.03,3.11,.22-3.39,2.65-3.2,5.03-3.11Z"/>
    <path class="cls-8" d="M234.54,159.36c1.75,1.01,3.5,2.03,5.25,3.04-2.4,.11-5.01,.58-5.25-3.04Z"/>
    <path class="cls-8" d="M191.33,29.73c-1.68-1.01-3.35-2.03-5.03-3.04,2.38-.15,4.82-.4,5.03,3.04Z"/>
    <path class="cls-8" d="M112.51,84.44c1.8,1,3.6,1.99,5.4,2.99-2.4,.08-5.03,.6-5.4-2.99Z"/>
    <path class="cls-8" d="M196.33,32.73c-1.68-1.02-3.35-2.04-5.03-3.06,2.29,0,4.55,.07,5.03,3.06Z"/>
    <path class="cls-8" d="M200.47,35.54c-1.39-.96-2.78-1.92-4.17-2.87,1.78,.39,4.68-.84,4.17,2.87Z"/>
    <path class="cls-8" d="M162.58,60.35c1.26,.03,2.53,.05,3.79,.08-.73,.66-1.47,1.31-2.2,1.97-.53-.68-1.06-1.37-1.59-2.05Z"/>
    <path class="cls-8" d="M213.04,42.98c-1.26-.76-2.51-1.51-3.77-2.27,1.66,.08,3.97-.91,3.77,2.27Z"/>
    <path class="cls-8" d="M120.54,100.62c-1.23,.78-2.46,1.56-3.69,2.34-.26-3.13,2.08-2.16,3.69-2.34Z"/>
    <path class="cls-8" d="M310.29,100.74c-1.31-.72-2.61-1.44-3.92-2.16,1.65,.1,3.69-.5,3.92,2.16Z"/>
    <path class="cls-8" d="M222.31,158.74c-1.28-.73-2.57-1.47-3.85-2.2,1.63,.14,3.66-.43,3.85,2.2Z"/>
    <path class="cls-8" d="M123.63,98.62c-1.04,.68-2.09,1.35-3.13,2.03,1.04-.68,2.09-1.35,3.13-2.03Z"/>
    <path class="cls-8" d="M116.4,96.53c.56-.96,1.11-1.93,1.67-2.89,2.38,2.66-.37,2.36-1.67,2.89Z"/>
    <path class="cls-8" d="M55.62,94.62c-1.04,.68-2.08,1.37-3.12,2.05,1.04-.68,2.08-1.37,3.12-2.05Z"/>
    <path class="cls-8" d="M146.37,74.51c1-.71,2.01-1.42,3.01-2.13-1,.71-2.01,1.42-3.01,2.13Z"/>
    <path class="cls-8" d="M265.37,128.64c-1.03-.65-2.07-1.31-3.1-1.96,1.03,.65,2.07,1.31,3.1,1.96Z"/>
    <path class="cls-8" d="M162.55,69.65c-1,.69-2,1.39-2.99,2.08,1-.69,2-1.39,2.99-2.08Z"/>
    <path class="cls-8" d="M313.38,102.66c-1.04-.66-2.07-1.32-3.11-1.98,1.04,.66,2.07,1.32,3.11,1.98Z"/>
    <path class="cls-8" d="M138.45,79.48c.32,.02,.65,.03,.97,.02-1.02,.66-2.04,1.33-3.06,1.99,.7-.67,1.4-1.34,2.09-2.01Z"/>
    <path class="cls-8" d="M133.42,83.55c.99-.7,1.98-1.39,2.97-2.09-.99,.7-1.98,1.39-2.97,2.09Z"/>
    <path class="cls-8" d="M206.59,39.63c-1.04,.68-2.08,1.36-3.13,2.04,1.04-.68,2.08-1.36,3.13-2.04Z"/>
    <path class="cls-8" d="M143.5,48.46c1.03,.66,2.05,1.33,3.08,1.99-1.03-.66-2.05-1.33-3.08-1.99Z"/>
    <path class="cls-8" d="M269.43,124.51c1.03,.65,2.07,1.3,3.1,1.95-1.03-.65-2.07-1.3-3.1-1.95Z"/>
    <path class="cls-8" d="M182.33,49.49c.38-.56,.75-1.13,1.13-1.69,.63-.12,1.27-.24,1.9-.36-1.01,.68-2.02,1.37-3.03,2.06Z"/>
    <path class="cls-8" d="M229.55,156.35c1,.72,1.99,1.43,2.99,2.15-1-.72-1.99-1.43-2.99-2.15Z"/>
    <path class="cls-8" d="M225.39,160.6c-1.04-.64-2.08-1.29-3.12-1.93,1.04,.64,2.08,1.29,3.12,1.93Z"/>
    <path class="cls-8" d="M178.55,58.66c-1,.7-1.99,1.39-2.99,2.09,1-.7,1.99-1.39,2.99-2.09Z"/>
    <path class="cls-8" d="M155.36,162.48c1-.69,2-1.38,3-2.07-1,.69-2,1.38-3,2.07Z"/>
    <path class="cls-8" d="M166.33,60.48c1.01-.68,2.02-1.36,3.03-2.04-1.01,.68-2.02,1.36-3.03,2.04Z"/>
    <path class="cls-8" d="M167.55,160.62c-1.01,.69-2.01,1.38-3.02,2.08,1.01-.69,2.01-1.38,3.02-2.08Z"/>
    <path class="cls-8" d="M160.54,165.62c-1,.73-2,1.45-3,2.18,1-.73,2-1.45,3-2.18Z"/>
    <path class="cls-8" d="M176.48,180.46c1.01,.68,2.01,1.36,3.02,2.04-1.01-.68-2.01-1.36-3.02-2.04Z"/>
    <path class="cls-8" d="M181.52,56.62c-1,.69-2,1.38-3,2.07,1-.69,2-1.38,3-2.07Z"/>
    <path class="cls-8" d="M111.35,89.72c-1.02-.68-2.04-1.35-3.06-2.03,1.02,.68,2.04,1.35,3.06,2.03Z"/>
    <path class="cls-8" d="M179.47,182.47c1.02,.67,2.03,1.34,3.05,2.01-1.02-.67-2.03-1.34-3.05-2.01Z"/>
    <path class="cls-8" d="M119.51,88.36c1.11,.69,2.22,1.37,3.33,2.06-1.11-.69-2.22-1.37-3.33-2.06Z"/>
    <path class="cls-8" d="M169.34,58.48c.99-.7,1.98-1.41,2.97-2.12-.99,.7-1.98,1.41-2.97,2.12Z"/>
    <path class="cls-8" d="M143.47,76.56c.98-.69,1.96-1.38,2.93-2.08-.98,.69-1.96,1.38-2.93,2.08Z"/>
    <path class="cls-8" d="M134.54,89.62c-.99,.71-1.97,1.42-2.96,2.13,.99-.71,1.97-1.42,2.96-2.13Z"/>
    <path class="cls-8" d="M116.39,92.72c-1.03-.68-2.07-1.35-3.11-2.02,1.03,.68,2.07,1.35,3.11,2.02Z"/>
    <path class="cls-8" d="M158.49,72.59c-.99,.71-1.97,1.41-2.96,2.12,.99-.71,1.97-1.41,2.96-2.12Z"/>
    <path class="cls-8" d="M275.35,134.75c-1.03-.69-2.05-1.38-3.08-2.08,1.03,.69,2.05,1.38,3.08,2.08Z"/>
    <path class="cls-8" d="M209.28,40.77c-.62-.39-1.24-.78-1.87-1.16,1.72-1.37,1.76-.06,1.87,1.16Z"/>
    <path class="cls-8" d="M196.4,39.55c.68-.54,1.35-1.09,2.03-1.63-.68,.54-1.35,1.09-2.03,1.63Z"/>
    <path class="cls-8" d="M196.39,46.54c-.64,.38-1.28,.76-1.92,1.15,.64-.38,1.28-.76,1.92-1.15Z"/>
    <path class="cls-8" d="M267.38,129.71c-.68-.37-1.36-.74-2.04-1.12,.68,.37,1.36,.74,2.04,1.12Z"/>
    <path class="cls-8" d="M130.54,85.59c.61-.44,1.23-.89,1.84-1.33-.61,.44-1.23,.89-1.84,1.33Z"/>
    <path class="cls-8" d="M154.42,75.54c-.64,.4-1.28,.8-1.92,1.2,.64-.4,1.28-.8,1.92-1.2Z"/>
    <path class="cls-8" d="M159.49,58.38c.67,.38,1.34,.76,2.01,1.14-.67-.38-1.34-.76-2.01-1.14Z"/>
    <path class="cls-8" d="M265.47,122.35c.72,.37,1.45,.75,2.17,1.12-.72-.37-1.45-.75-2.17-1.12Z"/>
    <path class="cls-8" d="M137.47,87.57c-.65,.4-1.3,.8-1.95,1.2,.65-.4,1.3-.8,1.95-1.2Z"/>
    <path class="cls-8" d="M192.39,42.54c.65-.4,1.31-.8,1.96-1.2-.65,.4-1.31,.8-1.96,1.2Z"/>
    <path class="cls-8" d="M113.4,90.75c-.7-.36-1.39-.73-2.09-1.09,.7,.36,1.39,.73,2.09,1.09Z"/>
    <path class="cls-8" d="M270.41,131.59c-.64-.36-1.27-.72-1.91-1.09,.64,.36,1.27,.72,1.91,1.09Z"/>
    <path class="cls-8" d="M227.37,161.73c-.67-.38-1.33-.77-2-1.15,.67,.38,1.33,.77,2,1.15Z"/>
    <path class="cls-8" d="M163.4,163.54c-.63,.4-1.25,.81-1.88,1.21,.63-.4,1.26-.81,1.88-1.21Z"/>
    <path class="cls-8" d="M150.51,71.58c.63-.39,1.26-.78,1.89-1.17-.63,.39-1.26,.78-1.89,1.17Z"/>
    <path class="cls-8" d="M163.45,172.47c.63,.37,1.25,.75,1.88,1.12-.63-.37-1.25-.75-1.88-1.12Z"/>
    <path class="cls-8" d="M200.51,43.61c-.66,.39-1.33,.78-1.99,1.18,.66-.39,1.33-.78,1.99-1.18Z"/>
    <path class="cls-8" d="M156.38,67.52c.65-.4,1.31-.81,1.96-1.21-.65,.4-1.31,.81-1.96,1.21Z"/>
    <path class="cls-8" d="M174.48,179.39c.62,.06,1.24,.12,1.86,.17,.04,.31,.1,.62,.18,.93-.68-.37-1.36-.73-2.04-1.1Z"/>
    <path class="cls-8" d="M186.54,46.6c.62-.4,1.24-.79,1.86-1.19-.62,.4-1.24,.79-1.86,1.19Z"/>
    <path class="cls-8" d="M159.47,159.56c.64-.39,1.28-.79,1.93-1.18-.64,.39-1.28,.79-1.93,1.18Z"/>
    <path class="cls-8" d="M262.38,126.72c-.68-.37-1.35-.75-2.03-1.12,.68,.37,1.35,.75,2.03,1.12Z"/>
    <path class="cls-8" d="M186.5,187.33c.74,.37,1.48,.73,2.23,1.1-.74-.37-1.48-.73-2.23-1.1Z"/>
    <path class="cls-8" d="M141.53,47.23c.67,.43,1.33,.85,2,1.28-.67-.43-1.33-.85-2-1.28Z"/>
    <path class="cls-8" d="M176.56,25.66c-.68,.44-1.36,.88-2.05,1.32,.68-.44,1.36-.88,2.05-1.32Z"/>
    <path class="cls-8" d="M58.62,93.61c-.71,.29-1.43,.57-2.14,.86,.71-.29,1.43-.57,2.14-.86Z"/>
    <path class="cls-8" d="M202.26,42.51c-.6,.38-1.21,.75-1.81,1.13,.6-.38,1.21-.75,1.81-1.13Z"/>
    <path class="cls-8" d="M272.45,126.42c.67,.37,1.34,.74,2.02,1.1-.67-.37-1.34-.74-2.02-1.1Z"/>
    <path class="cls-8" d="M272.37,132.72c-.67-.38-1.33-.77-2-1.15,.67,.38,1.33,.77,2,1.15Z"/>
    <path class="cls-8" d="M139.39,79.53c.66-.38,1.32-.76,1.98-1.14-.66,.38-1.32,.76-1.98,1.14Z"/>
    <path class="cls-8" d="M187.51,52.61c-.07,.29-.13,.57-.18,.87-.61,.1-1.22,.2-1.83,.29,.67-.39,1.34-.77,2.02-1.16Z"/>
    <path class="cls-8" d="M191.1,43.48c.44-.32,.88-.64,1.32-.97-.44,.32-.88,.64-1.32,.97Z"/>
    <path class="cls-8" d="M213.41,146.67c.43,.27,.86,.54,1.28,.8-.43-.27-.86-.54-1.28-.8Z"/>
    <path class="cls-8" d="M194.26,41.48c.37-.35,.75-.71,1.12-1.06-.37,.35-.75,.71-1.12,1.06Z"/>
    <path class="cls-8" d="M128.17,87.49c.42-.32,.84-.64,1.27-.96-.42,.32-.84,.64-1.27,.96Z"/>
    <path class="cls-8" d="M223.47,152.66c.44,.27,.87,.53,1.31,.8-.44-.27-.87-.53-1.31-.8Z"/>
    <path class="cls-8" d="M195.3,40.51c.38-.33,.75-.66,1.13-.98-.38,.33-.75,.66-1.13,.98Z"/>
    <path class="cls-8" d="M216.39,155.39c-.36-.27-.72-.53-1.08-.8,.36,.27,.72,.53,1.08,.8Z"/>
    <path class="cls-8" d="M226.44,154.46c.46,.33,.93,.66,1.39,.99-.46-.33-.93-.66-1.39-.99Z"/>
    <path class="cls-8" d="M228.46,155.65c.37,.27,.74,.55,1.11,.82-.37-.27-.74-.55-1.11-.82Z"/>
    <path class="cls-8" d="M247.33,157.51c.35-.28,.7-.56,1.05-.84-.35,.28-.7,.56-1.05,.84Z"/>
    <path class="cls-8" d="M199.19,37.5c.4-.35,.81-.7,1.21-1.05-.4,.35-.81,.7-1.21,1.05Z"/>
    <path class="cls-8" d="M145.74,81.63c-.11,.29-.22,.59-.33,.88-.32,.04-.63,.07-.95,.09,.43-.32,.86-.65,1.28-.97Z"/>
    <path class="cls-8" d="M149.43,79.6c-.33,0-.65,0-.98,.03,.49-.33,.97-.65,1.46-.98-.16,.31-.32,.63-.49,.94Z"/>
    <path class="cls-8" d="M233.47,158.74c.36,.24,.73,.49,1.09,.73-.36-.24-.73-.49-1.09-.73Z"/>
    <path class="cls-8" d="M158.33,160.5c.37-.31,.75-.62,1.12-.93-.37,.31-.75,.62-1.12,.93Z"/>
    <path class="cls-8" d="M151.47,77.57c-.32,.25-.64,.51-.96,.76,.32-.25,.64-.51,.96-.76Z"/>
    <path class="cls-8" d="M141.32,78.49c.36-.35,.73-.69,1.09-1.04-.36,.35-.73,.69-1.09,1.04Z"/>
    <path class="cls-8" d="M177.59,24.61c-.37,.36-.74,.73-1.11,1.09,.37-.36,.74-.73,1.11-1.09Z"/>
    <path class="cls-8" d="M111.49,83.44c.35,.36,.71,.72,1.06,1.08-.35-.36-.71-.72-1.06-1.08Z"/>
    <path class="cls-8" d="M142.89,83.64c-.48,.34-.95,.67-1.43,1.01,.47-.34,.95-.67,1.43-1.01Z"/>
    <path class="cls-8" d="M152.6,76.63c-.38,.32-.77,.64-1.15,.96,.38-.32,.77-.64,1.15-.96Z"/>
    <path class="cls-8" d="M228.44,162.55c-.38-.31-.77-.62-1.15-.94,.38,.31,.77,.62,1.15,.94Z"/>
    <path class="cls-8" d="M154.12,163.46c.43-.33,.87-.67,1.3-1-.43,.33-.87,.67-1.3,1Z"/>
    <path class="cls-8" d="M164.56,162.59c-.37,.31-.74,.62-1.12,.92,.37-.31,.74-.62,1.12-.92Z"/>
    <path class="cls-8" d="M142.31,77.51c.04-.3,.09-.59,.16-.88,.32-.05,.64-.06,.96-.05-.37,.31-.75,.62-1.12,.94Z"/>
    <path class="cls-8" d="M151.14,165.46c.43-.31,.87-.62,1.3-.93-.43,.31-.87,.62-1.3,.93Z"/>
    <path class="cls-8" d="M161.61,164.63c-.38,.34-.76,.68-1.14,1.02,.38-.34,.76-.68,1.14-1.02Z"/>
    <path class="cls-8" d="M141.54,84.59c-.37,.3-.74,.61-1.11,.91,.37-.3,.74-.61,1.11-.91Z"/>
    <path class="cls-8" d="M155.56,74.6c-.38,.31-.75,.62-1.13,.93,.38-.31,.75-.62,1.13-.93Z"/>
    <path class="cls-8" d="M138.77,86.64c-.44,.31-.88,.63-1.32,.94,.44-.31,.88-.63,1.32-.94Z"/>
    <path class="cls-8" d="M125.26,89.51c.38-.27,.76-.53,1.14-.8-.38,.27-.76,.53-1.14,.8Z"/>
    <path class="cls-8" d="M135.63,88.64c-.38,.34-.77,.67-1.15,1.01,.38-.34,.77-.67,1.15-1.01Z"/>
    <path class="cls-8" d="M144.43,170.56c-.43-.28-.87-.55-1.3-.83,.43,.28,.87,.55,1.3,.83Z"/>
    <path class="cls-8" d="M147.42,172.41c-.43-.26-.86-.52-1.29-.77,.43,.26,.86,.52,1.29,.77Z"/>
    <path class="cls-8" d="M149.43,173.58c-.48-.3-.96-.61-1.44-.91,.48,.3,.96,.61,1.44,.91Z"/>
    <path class="cls-8" d="M131.58,91.61c-.39,.34-.77,.68-1.16,1.02,.39-.34,.77-.68,1.16-1.02Z"/>
    <path class="cls-8" d="M150.41,174.29c-.34-.25-.68-.49-1.02-.74,.34,.25,.68,.49,1.02,.74Z"/>
    <path class="cls-8" d="M165.42,173.63c.38,.29,.76,.57,1.14,.86-.38-.29-.76-.57-1.14-.86Z"/>
    <path class="cls-8" d="M152.44,175.49c-.45-.28-.89-.56-1.34-.85,.45,.28,.89,.56,1.34,.85Z"/>
    <path class="cls-8" d="M159.57,71.61c-.37,.33-.75,.66-1.12,1,.37-.33,.75-.66,1.12-1Z"/>
    <path class="cls-8" d="M173.44,178.52c.37,.32,.73,.64,1.1,.97-.37-.32-.73-.65-1.1-.97Z"/>
    <path class="cls-8" d="M152.32,70.51c.37-.32,.74-.64,1.11-.97-.37,.32-.74,.64-1.11,.97Z"/>
    <path class="cls-8" d="M163.63,68.67c-.38,.34-.77,.67-1.15,1.01,.38-.34,.77-.67,1.15-1.01Z"/>
    <path class="cls-8" d="M115.32,97.5c.37-.33,.74-.66,1.12-.99-.37,.33-.74,.66-1.12,.99Z"/>
    <path class="cls-8" d="M153.42,69.54c.32-.25,.63-.49,.95-.74-.32,.25-.63,.49-.95,.74Z"/>
    <path class="cls-8" d="M182.46,184.45c.37,.35,.74,.7,1.11,1.05-.37-.35-.74-.7-1.11-1.05Z"/>
    <path class="cls-8" d="M155.03,68.47c.46-.32,.93-.65,1.39-.97-.46,.32-.93,.65-1.39,.97Z"/>
    <path class="cls-8" d="M188.76,51.64c-.43,.33-.87,.66-1.3,.99,.43-.33,.87-.66,1.3-.99Z"/>
    <path class="cls-8" d="M184.48,185.76c.35,.24,.71,.49,1.06,.73-.35-.24-.71-.49-1.06-.73Z"/>
    <path class="cls-8" d="M158.26,66.46c.37-.36,.75-.72,1.12-1.09-.37,.36-.75,.72-1.12,1.09Z"/>
    <path class="cls-8" d="M185.47,186.43c.37,.34,.75,.68,1.12,1.02-.37-.34-.75-.68-1.12-1.02Z"/>
    <path class="cls-8" d="M158.39,63.36c-.35-.26-.7-.51-1.04-.77,.35,.26,.7,.51,1.04,.77Z"/>
    <path class="cls-8" d="M316.39,104.47c-.44-.28-.88-.56-1.32-.84,.44,.28,.88,.56,1.32,.84Z"/>
    <path class="cls-8" d="M175.58,60.62c-.38,.33-.75,.65-1.13,.98,.38-.33,.75-.65,1.13-.98Z"/>
    <path class="cls-8" d="M148.51,79.58c-.36,.31-.72,.62-1.08,.93,.36-.31,.72-.62,1.08-.93Z"/>
    <path class="cls-8" d="M161.46,59.5c.38,.33,.75,.66,1.13,.99-.38-.33-.75-.66-1.13-.99Z"/>
    <path class="cls-8" d="M182.85,55.65c-.46,.33-.93,.67-1.39,1,.46-.33,.93-.67,1.39-1Z"/>
    <path class="cls-8" d="M185.59,53.63c-.38,.32-.76,.64-1.14,.97,.38-.32,.76-.64,1.14-.97Z"/>
    <path class="cls-8" d="M132.55,51.59c-.37,.33-.75,.66-1.12,.99,.37-.33,.75-.66,1.12-.99Z"/>
    <path class="cls-8" d="M134.6,50.64c-.38,.25-.75,.51-1.13,.76,.38-.25,.75-.51,1.13-.76Z"/>
    <path class="cls-8" d="M225.42,50.53c-.43-.3-.86-.6-1.29-.9,.43,.3,.86,.6,1.29,.9Z"/>
    <path class="cls-8" d="M191.75,49.64c-.44,.32-.87,.63-1.31,.95,.44-.32,.87-.63,1.31-.95Z"/>
    <path class="cls-8" d="M194.54,47.6c-.37,.31-.74,.62-1.11,.93,.37-.31,.74-.62,1.11-.93Z"/>
    <path class="cls-8" d="M274.43,127.5c.36,.34,.72,.68,1.08,1.02-.36-.34-.72-.68-1.08-1.02Z"/>
    <path class="cls-8" d="M268.44,130.48c-.38-.29-.76-.58-1.15-.87,.38,.29,.76,.58,1.15,.87Z"/>
    <path class="cls-8" d="M185.33,47.52c.38-.29,.75-.58,1.13-.87-.38,.29-.75,.58-1.13,.87Z"/>
    <path class="cls-8" d="M197.54,45.6c-.37,.31-.74,.61-1.12,.92,.37-.31,.74-.61,1.12-.92Z"/>
    <path class="cls-8" d="M198.61,44.66c-.38,.34-.76,.68-1.14,1.02,.38-.34,.76-.68,1.14-1.02Z"/>
    <path class="cls-8" d="M188.31,45.52c.37-.32,.75-.64,1.12-.96-.37,.32-.75,.64-1.12,.96Z"/>
    <path class="cls-8" d="M218.43,156.52c-.46-.3-.92-.59-1.38-.89,.46,.3,.92,.59,1.38,.89Z"/>
    <path class="cls-10" d="M192.49,109.76c10.91-13.37,24.57-14.48,36.24-3.12,1.71,1.67,.58,2.13-.5,2.85-6.57,4.42-13.15,8.8-19.73,13.2-5.34-4.31-10.67-8.62-16.01-12.93Z"/>
    <path class="cls-3" d="M234.43,78.6c10.79-12.61,22.27-12.83,34.65-2.24,2.07,1.78,2.69,2.46,.14,4.13-5,3.26-9.87,6.73-14.8,10.11-6.66-4-13.33-8-19.99-12Z"/>
    <path class="cls-3" d="M151.55,138.74c9.14-6.66,17.06-17.13,30.21-5.4,5.17,4.61,6.89,6.32,.14,9.96-3.32,1.79-6.34,4.14-9.5,6.23-6.95-3.6-13.9-7.2-20.85-10.8Z"/>
    <path class="cls-3" d="M192.49,109.76c5.34,4.31,10.67,8.62,16.01,12.93-9.37,11.41-24.52,11.57-32.77,.21-1.97-2.71,1.49-2.7,2.52-3.46,4.62-3.4,9.47-6.48,14.23-9.68Z"/>
    <path class="cls-3" d="M250.46,93.59c-11,13.27-21.63,7.99-32.22-.63-3.5-2.85,.59-3.18,1.54-3.91,4.05-3.13,8.35-5.93,12.56-8.84,5.16,5.66,13.95,6.38,18.11,13.39Z"/>
    <path class="cls-3" d="M142.78,136.63c-11.41,14.42-23.3,12.07-35.44,1.02,10.38-8.77,20.89-15.37,32.73-2.11,.58,.65,1.79,.74,2.71,1.09Z"/>
    <path class="cls-3" d="M188.67,103.75c-4.96-2.56-10.1-4.83-14.83-7.75-6.39-3.95,.23-5.32,1.99-6.9,3.29-2.95,7.18-5.22,10.82-7.77,.61,.26,1.25,.45,1.82,.78q18.4,10.52,.2,21.64Z"/>
    <path class="cls-3" d="M144.51,111.46c.32,.08,.69,.08,.95,.25,5.58,3.63,11.15,7.28,16.72,10.92-5.57,4.02-11.14,8.03-16.71,12.05-13.4-7.2-19.44-14.7-.96-23.22Z"/>
    <path class="cls-3" d="M151.44,107.51c10.74-13.01,22.3-11.02,34.26-1.88-10.77,12.45-22.12,14.33-34.26,1.88Z"/>
    <path class="cls-3" d="M65.41,111.57c10.22-11.97,21.35-13.64,33.58-2.96-10.27,11.48-21.17,15.72-33.58,2.96Z"/>
    <path class="cls-3" d="M258.09,96.19c11.96,5.97,22.59,12.13,3.25,22.61-5.62-3.17-11.41-6.08-16.82-9.58-4.9-3.17,.73-3.8,1.82-4.7,3.69-3.05,7.8-5.59,11.74-8.32Z"/>
    <path class="cls-3" d="M228.48,74.7c-.87-.74-1.7-1.55-2.63-2.2q-15.15-10.59,1.85-20.18c.31,.11,.66,.16,.93,.34,5.18,3.36,10.35,6.74,15.52,10.11-5.22,3.98-10.44,7.96-15.66,11.94Z"/>
    <path class="cls-3" d="M192.49,77.4c8.52-10.4,17.99-12.29,28.92-3.48,1.4,1.13,3.69,1.15,5.57,1.69-10.87,12.59-22.35,13.66-34.49,1.79Z"/>
    <path class="cls-3" d="M103.1,134.8c-13.11-5.42-18.69-11.54-1.87-19.81,1.47-.72,2.81-1.73,4.21-2.6,2.89,2.32,6,4.41,8.58,7.03,1.65,1.67,8.69,1.28,3.63,6.01-4.14,3.88-9.65,6.3-14.55,9.36Z"/>
    <path class="cls-3" d="M220.45,122.61c10.31-11.05,20.94-12.31,31.98-1.05-10.34,10.19-20.84,15.55-31.98,1.05Z"/>
    <path class="cls-1" d="M103.1,134.8c4.9-3.07,10.41-5.49,14.55-9.36,5.06-4.73-1.99-4.34-3.63-6.01-2.58-2.62-5.69-4.71-8.58-7.03,.72-.54,1.43-1.08,2.15-1.62,11.65,10.33,22.63,10.29,32.83-2.1,1.37,.93,2.73,1.86,4.1,2.78-18.47,8.52-12.44,16.02,.96,23.22-.9,.65-1.79,1.3-2.69,1.95-.92-.35-2.13-.44-2.71-1.09-11.84-13.26-22.35-6.66-32.73,2.11-1.41-.95-2.83-1.9-4.24-2.85Z"/>
    <path class="cls-1" d="M220.45,122.61c11.15,14.5,21.65,9.14,31.98-1.05,.7,.5,1.39,1.01,2.09,1.51-.54,.82-.89,1.97-1.66,2.42-13.36,7.91-10.72,14.2,1.84,19.68,1.13,.49,3.48,1.44,1.54,3.07-.88,.74-3.87,.45-4.73-.47-11.52-12.32-21.01-5.93-30.31,3.01-.93-.69-1.87-1.38-2.8-2.06,.1-.49,.05-1.29,.32-1.42,17.62-8.43,10.27-15.3-1.34-21.92,1.02-.93,2.04-1.85,3.06-2.77Z"/>
    <path class="cls-3" d="M208.65,151.32c-9.47,11.32-19.85,13.54-31.5,3.17,9.61-9.88,19.58-16.27,31.5-3.17Z"/>
    <path class="cls-1" d="M151.55,138.74c6.95,3.6,13.9,7.2,20.85,10.8-1.31,1-2.62,1.99-3.94,2.99-6.35-4.03-12.7-8.07-19.05-12.1,.71-.56,1.42-1.12,2.14-1.69Z"/>
    <path class="cls-1" d="M250.46,93.59c-4.16-7-12.96-7.73-18.11-13.39,.7-.53,1.39-1.06,2.09-1.6,6.66,4,13.33,8,19.99,12-1.32,.99-2.64,1.99-3.97,2.98Z"/>
    <polyline class="cls-9" points="142.78 180.85 152.87 176.29 172.35 187.7"/>
  </g>
</svg>