<?xml version="1.0" encoding="UTF-8"?>
<svg id="Layer_2" data-name="Layer 2" xmlns="http://www.w3.org/2000/svg" viewBox="0 0 384.26 303.34">
  <defs>
    <style>
      .cls-1 {
        fill: #2c4b5b;
      }

      .cls-2 {
        fill: #8fbec8;
      }

      .cls-3 {
        fill: #8ea227;
      }

      .cls-4 {
        fill: #d5a362;
      }

      .cls-5 {
        fill: #525142;
      }

      .cls-6 {
        fill: #d49e5e;
      }

      .cls-7 {
        fill: #fdfaeb;
      }

      .cls-8 {
        fill: #f3f9ec;
      }

      .cls-9 {
        fill: #5fabbe;
      }

      .cls-10 {
        fill: #cc9253;
      }

      .cls-11 {
        fill: #eacb99;
      }

      .cls-12 {
        fill: #5aa8bc;
      }

      .cls-13 {
        fill: #835e3b;
      }

      .cls-14 {
        fill: #fcfdf8;
      }

      .cls-15 {
        fill: #c0e1e2;
      }

      .cls-16 {
        fill: #336b81;
      }

      .cls-17 {
        fill: #f6f5e6;
      }
    </style>
  </defs>
  <g id="Layer_1-2" data-name="Layer 1">
    <path class="cls-1" d="M75.06,85.37c-13.08-17.21-12.27-34.43,2.39-50.98,14.87-16.79,27.6-19.36,34.51-5.62,4.52,8.98,7.95,5.21,12.81,2.48,17.39-9.78,34.83-19.48,52.08-29.5,4.16-2.42,7.29-2.28,11.38,.16,61.16,36.53,122.44,72.88,183.61,109.41,4.14,2.47,11.87,2.55,11.5,8.52-.85,13.57,4.35,27.74-3.39,40.71-3.24,.19-4.26-1.38-4.23-4.54,.09-10.32-.07-20.64-.13-30.96,.81-3.15-1.7-3.92-3.65-5.08-62.3-37.02-124.6-74.05-186.96-110.97-1.26-.74-3.6-.96-4.8-.29-21.35,11.9-42.56,24.05-63.9,35.96-4.14,2.31-3.05,3.54,.16,5.43,12.46,7.34,24.83,14.83,37.31,22.14,1.63,.95,3.76,3.84,5.56,.04,1.33-2.82,2.27-5.34-1.53-7.49-6.51-3.67-12.8-7.75-19.06-11.84-2.43-1.59-4.54-3.66-6.79-5.52,2.55-1.43,5.11-2.86,7.66-4.29,4.09,6.9,11.62,8.74,18.02,12.25,11.99,4.88,15.85,14.33,14.92,26.49-13.8,10.97-20.54,26.78-28.55,41.71-11.07-7.04-21.32-15.62-34.62-18.46,1.54-1.79,3.07-3.58,4.61-5.37,3.17,1.22,6.35,2.44,9.52,3.67,4.5,4.8,10.02,9.94,16.23,9.2,5.4-.64,13.56-27.14,10.95-31.3-13.83-8.6-27.65-17.22-41.54-25.7-.4-.24-2.08,.69-2.43,1.42-4.61,9.7-9.09,19.46-13.6,29.2-4.09,5.97,.37,15.33-7.82,19.68-5.58-4.43-1.55-10.89-3.4-16.11-.87-3.62-4.45-3.08-6.8-4.42Zm19.75-40.56c-9.92-6.22-20.18,3.64-21.35,20.51-.32,6.73,3.29,11.67,9.08,13.36,5.73,1.68,6.06-4.96,8.03-8.3,2.76-4.7,4.75-9.86,6.92-14.89,1.8-4.16,2.18-8.12-2.68-10.68Zm1.33-17.03c-3.61,.52-6.34,1.83-7.82,5.04,5.77,2.63,12.34,3.91,16.4,9.5,.61-1.25,1.83-2.55,1.71-3.73-.64-6.3-4.54-9.64-10.29-10.81Z"/>
    <path class="cls-13" d="M375.58,125.03c.06,10.32,.22,20.64,.13,30.96-.03,3.16,.99,4.73,4.23,4.54-.49,2.23-.98,4.46-1.48,6.69-.6,.64-1.2,1.27-1.8,1.9-.64,.44-1.28,.89-1.92,1.33-.35,.27-.7,.55-1.05,.82l.04-.04c-.36,.34-.72,.68-1.08,1.02v-.07c-2.93,2.13-5.86,4.26-8.78,6.39-25.09,15.2-50.18,30.4-75.27,45.6-.01-7.71-.03-15.43-.04-23.14,5.18-9.33,10.35-18.66,15.53-27.99,5.24-1.11,5.77-4.9,5.28-9.27,22.07-12.92,44.14-25.83,66.21-38.75Z"/>
    <path class="cls-1" d="M35.61,114.38c-15.28-6.27-24.73-16.32-18.42-33.7,2.32-6.39,5.85-12.39,8.14-19.05,2.8-8.15,10.01-12.09,18.79-10.42,8.77,1.66,12.69,7.71,13.87,16.55,1.06,7.93,9.42,13.56,7.97,22.57-.98,3.46-1.96,6.92-2.94,10.38-4.4,3.82-8.79,7.64-13.19,11.46-5.78-.13-5.5,3.86-5.19,7.76,.45,5.56-1.42,9.01-7.62,8.72-.48-4.76-.95-9.51-1.43-14.27Zm17.44-33.99c-3.18-2.55-4.37-5.34-3.66-9.83,.93-5.87-1.89-10.88-8.48-11.11-6.58-.23-9.38,4.27-9.08,10.48,.17,3.49,.82,6.53-2.9,9.07-4.84,3.32-6.02,8.51-4.96,14.2,1.23,8.28,7.46,11.34,14.41,11.9,7.67,.62,14.18-2.49,17.72-10.17,2.64-5.73,1.98-10.55-3.05-14.56Z"/>
    <path class="cls-16" d="M70.66,216.3c-18.31-11.55-36.62-23.1-54.92-34.65,.6-7.37,1.21-14.74,1.81-22.11,.42-.15,.84-.31,1.26-.46,4.57,3.19,9.05,6.53,13.73,9.54,13.43,8.66,26.93,17.18,40.41,25.76-2.53,7.12-2.76,14.49-2.28,21.92Z"/>
    <path class="cls-16" d="M160.78,272.39c-18.07-11.41-36.14-22.83-54.21-34.24,.81-7.09,1.62-14.18,2.42-21.28,.33-.2,.66-.39,1-.59,17.28,10.65,34.56,21.31,51.84,31.96,.08,.37,.16,.74,.24,1.11-.43,7.68-.87,15.36-1.3,23.04Z"/>
    <path class="cls-7" d="M18.81,159.08c-.42,.15-.84,.31-1.25,.46-6.71-2.87-12.33-7.13-16.57-13.13-1.16-15.48,12.2-18.07,21.53-24.17,4.26-2.78,8.72-5.25,13.09-7.86,.48,4.76,.95,9.51,1.42,14.26,5.19,2.99,10.37,5.99,15.56,8.99-11.26,7.15-22.52,14.3-33.78,21.44Z"/>
    <path class="cls-11" d="M109.01,216.87c-.81,7.09-1.62,14.19-2.43,21.28-11.97-7.28-23.94-14.56-35.91-21.85-.47-7.44-.25-14.8,2.28-21.92,.29-.04,.57-.08,.86-.12,11.73,7.54,23.47,15.07,35.2,22.6Z"/>
    <path class="cls-6" d="M160.78,272.39c.43-7.68,.87-15.36,1.3-23.04,5.27,2.64,10.54,5.28,15.81,7.93-.31,.24-.61,.48-.92,.71,.69,.08,1.39,.17,2.08,.25h.39s.36,.15,.36,.15c4.74,7.72,15.49,9.71,18.33,19.24-6.31,5.49-14.02,4.54-21.49,4.7-5.29-3.31-10.58-6.62-15.86-9.93Z"/>
    <path class="cls-4" d="M.99,146.41c4.24,6,9.86,10.25,16.57,13.13-.61,7.37-1.21,14.74-1.81,22.12C.76,174.12-1.8,161.38,.99,146.41Z"/>
    <path class="cls-16" d="M63.03,100.72c.98-3.46,1.96-6.92,2.94-10.38,3.03-1.66,6.06-3.31,9.09-4.97,2.35,1.34,5.93,.8,6.8,4.42-6.28,3.64-12.55,7.29-18.83,10.93Z"/>
    <path class="cls-15" d="M209.76,301.35c1.63,.07,3.57-.47,4.01,1.99-1.34-.66-2.67-1.33-4.01-1.99Z"/>
    <path class="cls-9" d="M73.81,194.26c-.29,.04-.57,.08-.86,.12-13.48-8.58-26.99-17.1-40.41-25.76-4.68-3.02-9.16-6.35-13.73-9.54,11.26-7.15,22.52-14.3,33.78-21.44,7-4.16,13.99-8.32,20.99-12.47,7.07-4.03,14.13-8.05,21.2-12.08,4.85-2.66,9.7-5.32,14.55-7.98,13.31,2.85,23.56,11.42,34.63,18.46-1.33,5.61-2.66,11.22-3.99,16.83-.4,8.49-6.77,11.7-13.11,15.18-11.63,6.39-23.26,12.78-34.59,19.68-7.68,4.68-16.09,9.01-18.46,19Zm26.56-56.36c6.29-4.58,12.32-8.47,17.6-13.2,1.19-1.07-2.42-4.43-3.98-3.67-6.78,3.27-13.22,7.25-19.79,10.98,1.81,1.73,3.61,3.45,6.18,5.9Zm-18.74,23.45c-3.3-4.31-8.17-7.04-13.49-8.57-1.23-.35-3.41,2.58-5.15,4,4.76,3.13,9.32,6.64,14.37,9.19,1.74,.88,3.77-1.54,4.27-4.62Z"/>
    <path class="cls-17" d="M375.58,125.03c-22.07,12.92-44.14,25.83-66.2,38.75-14.06-8.27-28.04-16.7-42.25-24.71-5.04-2.84-.55-4.78,.08-6.99,.9-3.13,2.81-2.14,4.88-.89,10.95,6.63,21.97,13.14,32.94,19.73,2.07,1.24,3.73,2.03,6.31,.46,13.22-8.01,26.62-15.73,39.93-23.59,2.25-1.33,4.38-2.85,6.56-4.29-2.34-1.42-4.68-2.84-7.02-4.26,0,0,.06,.05,.06,.05-.7-.38-1.4-.77-2.1-1.15l.17,.12c-.7-.46-1.4-.92-2.1-1.38-54.17-32.23-108.33-64.47-162.54-96.63-1.03-.61-2.96-.73-3.97-.17-11.17,6.22-22.23,12.63-33.33,18.98-.76,.42-1.51,.84-2.27,1.26,0,0,.04-.02,.04-.02-.66,.35-1.32,.7-1.99,1.06,0,0,.01,0,.01,0-.53,.33-1.06,.66-1.59,.99l-.22-.17s-.19,.2-.19,.2c-.41,.31-.81,.62-1.22,.93,0,0-.04-.19-.04-.19-2.55,1.43-5.11,2.86-7.66,4.29,2.25,1.85,4.36,3.93,6.79,5.52,6.26,4.09,12.55,8.17,19.06,11.84,3.81,2.15,2.86,4.67,1.53,7.49-1.8,3.8-3.93,.92-5.56-.04-12.48-7.3-24.84-14.8-37.31-22.14-3.21-1.89-4.3-3.12-.16-5.43,21.34-11.91,42.55-24.06,63.9-35.96,1.2-.67,3.55-.45,4.8,.29,62.36,36.93,124.66,73.95,186.96,110.97,1.96,1.16,4.46,1.93,3.65,5.08Z"/>
    <path class="cls-16" d="M147.01,39.07c11.09-6.35,22.16-12.76,33.33-18.98,1.01-.56,2.94-.44,3.97,.17,54.21,32.15,108.37,64.4,162.54,96.63,.7,.46,1.4,.92,2.1,1.38,0,0-.17-.12-.17-.11,.7,.38,1.4,.77,2.1,1.15,0,0-.06-.05-.06-.05-3.46,5.47-9.76,6.34-14.86,9.16-30.69-18.39-61.38-36.78-92.08-55.17l-.02,.04c-2.02-1.32-4.04-2.64-6.07-3.96-1.87-1.03-3.75-2.05-5.62-3.08-7.17-4.49-15.05-8.15-21.36-13.62-15.47-13.42-30.48-12.32-46.1-.8-2.1,1.55-4.74,2.39-7.13,3.55-6.4-3.51-13.93-5.35-18.02-12.25,0,0,.04,.19,.04,.19,.41-.31,.81-.62,1.22-.93l.19-.2s.22,.17,.22,.17c.53-.33,1.06-.66,1.59-.99,0,0-.01,0-.01,0,.66-.35,1.32-.7,1.99-1.06,0,0-.04,.02-.04,.02,.76-.42,1.51-.84,2.27-1.26Z"/>
    <path class="cls-17" d="M93.07,86.22c4.51-9.74,8.99-19.5,13.6-29.2,.35-.73,2.03-1.66,2.43-1.42,13.9,8.49,27.71,17.1,41.54,25.7-9.06,7.37-18.12,14.74-27.18,22.11-3.17-1.22-6.35-2.44-9.52-3.67-6.96-4.51-13.91-9.01-20.87-13.52Z"/>
    <path class="cls-8" d="M139.96,140.4c1.33-5.61,2.66-11.22,3.99-16.83,8.01-14.93,14.75-30.74,28.55-41.71,10.32-5.75,20.75-11.01,33.17-7.44,1.34,.66,2.68,1.32,4.03,1.98,1.36,1.32,2.73,2.64,4.09,3.96-7.4,2.31-15.39,2.06-22.44,6.19-23.71,13.89-31.22,37.6-38.13,61.76-4.49,5.56-8.7,8.79-11.34-1.35-.57-2.2-1.28-4.37-1.92-6.55Z"/>
    <path class="cls-9" d="M205.67,74.42c-12.41-3.57-22.84,1.69-33.17,7.44,.93-12.15-2.93-21.61-14.92-26.49,2.39-1.17,5.03-2,7.13-3.55,15.62-11.52,30.63-12.61,46.1,.8,6.31,5.47,14.19,9.14,21.36,13.62-7.67,1.5-11.23-6.3-17.7-7.83-4.48-1.07-8.16-.18-11.13,2.7-1.46,1.41-.68,3.94,1.7,4.75,7.09,2.41,4.07,5.44,.63,8.56Z"/>
    <path class="cls-7" d="M94.78,113.08c-7.07,4.03-14.13,8.05-21.2,12.08-7.91-4.33-15.83-8.66-23.74-12.99,4.4-3.82,8.79-7.64,13.19-11.46,6.28-3.64,12.55-7.29,18.83-10.93,1.84,5.22-2.19,11.68,3.4,16.11,3.18,2.4,6.35,4.79,9.53,7.19Z"/>
    <path class="cls-10" d="M123.46,103.41c9.06-7.37,18.12-14.74,27.18-22.11,2.61,4.16-5.55,30.66-10.95,31.3-6.2,.74-11.73-4.39-16.23-9.2Z"/>
    <path class="cls-10" d="M94.78,113.08c-3.17-2.4-6.35-4.79-9.53-7.19,8.18-4.34,3.73-13.71,7.82-19.68,6.96,4.51,13.91,9.01,20.87,13.52-1.53,1.79-3.07,3.58-4.61,5.37-4.85,2.66-9.7,5.32-14.55,7.98Z"/>
    <path class="cls-13" d="M94.81,44.8c4.85,2.57,4.47,6.52,2.68,10.68-2.17,5.03-4.16,10.2-6.92,14.89-1.97,3.34-2.29,9.98-8.03,8.3-5.79-1.69-9.4-6.63-9.08-13.37,6.29,2.18,21.68-12.6,21.36-20.51Z"/>
    <path class="cls-3" d="M94.81,44.8c.32,7.91-15.07,22.69-21.36,20.51,1.18-16.87,11.44-26.73,21.36-20.51Z"/>
    <path class="cls-3" d="M96.14,27.77c5.75,1.17,9.65,4.52,10.29,10.81,.12,1.17-1.11,2.48-1.71,3.73-4.06-5.59-10.62-6.86-16.4-9.5,1.48-3.21,4.21-4.52,7.82-5.04Z"/>
    <path class="cls-10" d="M198.14,277.62c-2.85-9.52-13.59-11.52-18.33-19.24,3.24-.35,6.85,.1,9.67-1.19,31.31-14.25,59.56-33.9,89.3-50.94,.39-.28,.79-.56,1.18-.84l.05,.11c2.85-1.49,5.71-2.99,8.56-4.48,.01,7.72,.03,15.43,.04,23.14-23.61,14.04-47.22,28.08-70.84,42.12-2.39-1.61-2.5,.4-2.95,1.86-.86,.44-1.72,.88-2.59,1.32-.81,.58-1.62,1.16-2.43,1.74-1.5,.76-2.99,1.52-4.49,2.28-1.17,.86-2.33,1.72-3.49,2.58-1.22,.51-2.45,1.02-3.67,1.52Z"/>
    <path class="cls-17" d="M288.57,201.05c-2.85,1.49-5.71,2.99-8.56,4.48,.98-3.69-.73-5.8-3.48-8.32-4.52-4.14-11.83-3.99-14.83-10.12-.31-.67-.47-1.78-.95-1.94-20.97-7.15-15.4-19.21-6.06-32.07,1.46-2,2.43-4.35,3.83-6.4,.48-.71,2.01-1.6,2.38-1.36,14.33,9.36,30.22,16.3,43.2,27.74-5.18,9.33-10.35,18.66-15.53,27.99Z"/>
    <path class="cls-1" d="M304.09,173.06c-12.99-11.44-28.87-18.39-43.2-27.74-.37-.24-1.89,.65-2.38,1.36-1.4,2.05-2.38,4.4-3.83,6.4-9.34,12.86-14.91,24.93,6.06,32.07,.48,.16,.64,1.27,.95,1.94-2.21,.93-4.42,1.87-6.62,2.8-6.67-4.44-13.35-8.88-20.02-13.31,1.71-4.4,3.07-8.99,5.2-13.18,7-13.81,14.29-27.48,21.46-41.2,3.06,.06,6.68-.93,9.1,.35,10.24,5.44,20.52,10.98,29.99,17.62,6.03,4.23,10.51,4.32,16.25,.16,6.02-4.36,12.59-7.98,18.92-11.92,5.1-2.82,11.4-3.69,14.86-9.16,2.34,1.42,4.68,2.84,7.02,4.26-2.18,1.43-4.31,2.96-6.56,4.29-13.31,7.86-26.71,15.58-39.93,23.59-2.58,1.56-4.25,.78-6.31-.46-10.97-6.59-21.99-13.1-32.94-19.73-2.07-1.25-3.98-2.24-4.88,.89-.64,2.21-5.12,4.15-.08,6.99,14.21,8.01,28.19,16.44,42.25,24.71,.49,4.37-.04,8.17-5.28,9.28Z"/>
    <path class="cls-2" d="M374.74,170.47c-.35,.27-.7,.55-1.05,.82,.35-.27,.7-.55,1.05-.82Z"/>
    <path class="cls-2" d="M373.73,171.25c-.36,.34-.72,.68-1.08,1.02,.36-.34,.72-.68,1.08-1.02Z"/>
    <path class="cls-6" d="M214.82,268.18c.45-1.46,.57-3.47,2.95-1.86-.98,.62-1.97,1.24-2.95,1.86Z"/>
    <path class="cls-6" d="M201.82,276.1c1.16-.86,2.33-1.72,3.49-2.58-1.16,.86-2.33,1.72-3.49,2.58Z"/>
    <path class="cls-6" d="M209.8,271.23c.81-.58,1.62-1.16,2.43-1.74-.81,.58-1.62,1.16-2.43,1.74Z"/>
    <path class="cls-3" d="M23.97,93.22c-1.06-5.69,.12-10.89,4.96-14.2,3.71-2.54,3.07-5.58,2.9-9.07-.3-6.22,2.49-10.71,9.08-10.48,6.59,.23,9.41,5.23,8.48,11.11-.71,4.48,.48,7.28,3.66,9.83-6.63,11.21-13.75,21.31-29.07,12.83Z"/>
    <path class="cls-10" d="M49.84,112.17c7.91,4.33,15.83,8.66,23.74,12.99-7,4.16-13.99,8.32-20.99,12.47-5.19-3-10.38-5.99-15.56-8.99,6.2,.29,8.07-3.15,7.62-8.72-.31-3.9-.59-7.89,5.19-7.76Z"/>
    <path class="cls-5" d="M23.97,93.22c15.32,8.48,22.44-1.61,29.07-12.83,5.03,4.01,5.69,8.83,3.05,14.56-3.54,7.68-10.04,10.79-17.72,10.17-6.96-.56-13.18-3.63-14.41-11.9Z"/>
    <path class="cls-9" d="M235.04,176.57c6.67,4.44,13.35,8.88,20.02,13.31-14.58,8.78-29.35,17.27-43.7,26.41-16.56,10.55-35.32,17.72-49.52,31.94-17.28-10.65-34.56-21.31-51.84-31.96,2.38-5.5,6.99-8.81,11.92-11.57,19.55-10.94,39.18-21.72,58.79-32.55,4.58,7.2,14.03,1.1,19.1,6.98-6.51,3.14-5.98,5.89,.26,8.81,2.83,1.32,5.4,3.25,7.96,5.09,2.8,2.01,5,1.81,7.32-.87,2.74-3.17,.24-4.66-1.65-6.47,1.54-3.39,4.67-2.04,7.22-2.41,4.71-2.24,9.42-4.47,14.13-6.71Zm-72.68,35.75c5.59-4.06,13.47-5.07,17.19-11.56,1.34-2.34-2.91-4.93-4.79-4.06-6.61,3.05-13.19,6.51-18.87,10.97-1.28,1,3.82,2.95,6.47,4.65Z"/>
    <path class="cls-14" d="M180.71,172.15c-19.6,10.84-39.24,21.62-58.79,32.55-4.93,2.76-9.54,6.07-11.92,11.57-.33,.2-.67,.39-1,.59-11.73-7.53-23.46-15.07-35.2-22.6,2.37-10,10.78-14.33,18.46-19,11.32-6.9,22.96-13.29,34.59-19.68,6.33-3.48,12.71-6.69,13.11-15.18,.64,2.18,1.35,4.35,1.92,6.55,2.64,10.14,6.84,6.91,11.34,1.35,.24,.99,.48,1.98,.72,2.98,12.15-7.58,18.47,3.79,26.9,8.29,.98,3.51,1.96,7.02,2.94,10.52-1.02,.69-2.05,1.38-3.07,2.07Z"/>
    <path class="cls-7" d="M161.85,248.24c14.2-14.21,32.95-21.38,49.52-31.94,14.35-9.14,29.11-17.63,43.7-26.41,2.21-.93,4.42-1.87,6.63-2.8,3,6.13,10.31,5.98,14.83,10.12,2.75,2.52,4.46,4.63,3.48,8.32,0,0-.05-.11-.05-.11-.39,.28-.78,.56-1.18,.84-29.74,17.04-57.99,36.69-89.3,50.94-2.82,1.28-6.43,.83-9.67,1.19,0,0-.36-.15-.36-.15,0,0-.39,0-.39,0-.39-.32-.78-.65-1.16-.97-5.27-2.64-10.54-5.28-15.81-7.93-.08-.37-.16-.74-.24-1.11Z"/>
    <path class="cls-10" d="M177.89,257.27c.39,.32,.78,.65,1.16,.97-.69-.09-1.39-.17-2.08-.25,.31-.24,.61-.48,.92-.71Z"/>
    <path class="cls-8" d="M100.37,137.9c-2.56-2.45-4.37-4.17-6.18-5.9,6.56-3.72,13-7.7,19.79-10.98,1.57-.75,5.18,2.6,3.98,3.67-5.28,4.73-11.3,8.62-17.6,13.2Z"/>
    <path class="cls-8" d="M81.63,161.35c-.5,3.08-2.53,5.5-4.27,4.62-5.05-2.55-9.61-6.06-14.37-9.19,1.74-1.42,3.92-4.36,5.15-4,5.32,1.53,10.2,4.27,13.49,8.57Z"/>
    <path class="cls-1" d="M348.95,118.26c-.7-.46-1.4-.92-2.1-1.38,.7,.46,1.4,.92,2.1,1.38Z"/>
    <path class="cls-1" d="M350.88,119.3c-.7-.38-1.4-.77-2.1-1.15,.7,.38,1.4,.77,2.1,1.15Z"/>
    <path class="cls-1" d="M144.79,40.3c-.66,.35-1.32,.7-1.99,1.06,.66-.35,1.32-.7,1.99-1.06Z"/>
    <path class="cls-1" d="M147.01,39.07c-.76,.42-1.51,.84-2.27,1.26,.76-.42,1.51-.84,2.27-1.26Z"/>
    <path class="cls-1" d="M140.81,42.38c-.41,.31-.81,.62-1.22,.93,.41-.31,.81-.62,1.22-.93Z"/>
    <path class="cls-1" d="M142.81,41.35c-.53,.33-1.06,.66-1.59,.99,.53-.33,1.06-.66,1.59-.99Z"/>
    <path class="cls-12" d="M180.83,159.56c-8.43-4.5-14.74-15.87-26.9-8.29-.24-.99-.48-1.98-.72-2.98,6.92-24.16,14.43-47.87,38.13-61.76,7.04-4.13,15.03-3.87,22.44-6.19,1.81-.47,3.61-.95,5.42-1.42-3.17-.85-6.34-1.69-9.5-2.54-1.34-.66-2.68-1.32-4.03-1.98,3.44-3.12,6.46-6.15-.63-8.56-2.38-.81-3.16-3.34-1.7-4.75,2.98-2.88,6.65-3.77,11.13-2.7,6.46,1.54,10.02,9.33,17.7,7.83,1.88,1.03,3.75,2.05,5.62,3.08-.09,4.56,3.12,4.05,6.07,3.96,0,0,.02-.04,.02-.04-.39,5.08-1.95,10.49,5.8,11.94,1.55,.29,4.04,4.25,3.56,5.1-1.57,2.82-2.44,6.78-6.64,7.37,0,0,.02-.07,.02-.07-5.08-4.85-10.53-6.6-16.73-1.96-1.03,.27-2.06,.53-3.09,.8-1.66-1.57-2.58-.98-3.01,1.03-1.56,.82-3.18,1.54-4.66,2.48-22,13.94-31.23,36.09-38.3,59.63Z"/>
    <path class="cls-9" d="M246.6,97.66c4.2-.6,5.07-4.55,6.64-7.37,.48-.86-2.01-4.81-3.56-5.1-7.75-1.45-6.2-6.86-5.8-11.94,30.69,18.39,61.38,36.78,92.08,55.16-6.33,3.94-12.89,7.56-18.92,11.92-5.74,4.16-10.22,4.06-16.25-.16-9.47-6.64-19.75-12.18-29.99-17.62-2.41-1.28-6.03-.29-9.1-.35-7.15,.72-12.37,5.14-17.76,9.25-5.19-1.55-6.64-9.92-13.85-7.68-6.14,1.91-9.14-.35-9.36-6.64,6.57-7.27,14.78-11.64,24.32-13.56,2.19-.44,4.44-.56,6.67-.82-1.71-1.7-3.41-3.39-5.12-5.09Z"/>
    <path class="cls-9" d="M243.86,73.28c-2.94,.1-6.16,.61-6.07-3.96,2.02,1.32,4.04,2.64,6.07,3.96Z"/>
    <path class="cls-9" d="M209.7,76.39c3.17,.85,6.34,1.69,9.5,2.54-1.81,.47-3.61,.95-5.42,1.42-1.36-1.32-2.73-2.64-4.09-3.96Z"/>
    <path class="cls-17" d="M278.78,206.26c.39-.28,.78-.56,1.18-.84-.39,.28-.78,.56-1.18,.84Z"/>
    <path class="cls-16" d="M243.94,131.44c5.39-4.1,10.61-8.52,17.76-9.25-7.18,13.72-14.46,27.39-21.46,41.2-2.13,4.19-3.49,8.78-5.2,13.18-4.71,2.23-9.42,4.47-14.13,6.7,2.41-19.62,10.77-36.59,23.03-51.84Z"/>
    <path class="cls-12" d="M243.94,131.44c-12.26,15.24-20.62,32.22-23.03,51.84-2.55,.37-5.68-.98-7.22,2.41-3.34-1.97-6.67-3.94-10.01-5.91-.59-.28-1.18-.56-1.78-.84-.7,.06-1.4,.13-2.11,.19-5.07-5.88-14.51,.22-19.1-6.98,1.02-.69,2.05-1.38,3.07-2.07,7.29-3.47,13.78-6.95,16.15-16.2,3.56-13.91,10.01-26.69,20.81-36.76,.22,6.3,3.22,8.56,9.36,6.64,7.21-2.24,8.66,6.13,13.85,7.68Z"/>
    <path class="cls-8" d="M162.37,212.32c-2.65-1.7-7.75-3.64-6.47-4.65,5.68-4.46,12.26-7.91,18.87-10.97,1.89-.87,6.14,1.71,4.79,4.06-3.72,6.48-11.6,7.5-17.19,11.56Z"/>
    <path class="cls-8" d="M199.8,179.13c.7-.06,1.4-.13,2.11-.19,.59,.28,1.18,.56,1.78,.84,3.34,1.97,6.67,3.94,10.01,5.91,1.89,1.81,4.39,3.3,1.65,6.47-2.32,2.69-4.52,2.89-7.32,.87-2.56-1.84-5.13-3.77-7.96-5.09-6.24-2.92-6.77-5.68-.26-8.81Z"/>
    <path class="cls-8" d="M220.73,117.12c-10.79,10.07-17.25,22.85-20.81,36.76-2.37,9.26-8.86,12.73-16.15,16.2-.98-3.51-1.96-7.02-2.94-10.52,7.07-23.53,16.31-45.69,38.3-59.63,1.48-.94,3.1-1.66,4.66-2.48,1-.34,2.01-.69,3.01-1.03,1.03-.27,2.06-.53,3.09-.8,5.58,.65,11.15,1.31,16.73,1.96,0,0-.02,.07-.02,.07,1.71,1.7,3.41,3.39,5.12,5.09-2.22,.26-4.48,.38-6.67,.82-9.54,1.91-17.75,6.29-24.32,13.56Z"/>
    <path class="cls-9" d="M246.63,97.58c-5.58-.66-11.15-1.31-16.73-1.96,6.2-4.63,11.65-2.89,16.73,1.96Z"/>
    <path class="cls-9" d="M226.81,96.42c-1,.34-2.01,.69-3.01,1.03,.43-2.02,1.35-2.61,3.01-1.03Z"/>
    <path class="cls-9" d="M203.69,179.78c-.59-.28-1.18-.56-1.78-.84,.59,.28,1.18,.56,1.78,.84Z"/>
    <polyline class="cls-1" points="375.58 125.03 309.37 163.78 304.09 173.06 376.55 131.59"/>
    <polyline class="cls-1" points="375.71 156 375.74 169.78 382.32 165.32 383.77 149.74"/>
  </g>
</svg>