<?xml version="1.0" encoding="UTF-8"?>
<svg id="Layer_1" data-name="Layer 1" xmlns="http://www.w3.org/2000/svg" viewBox="0 0 194.44 156.59">
  <defs>
    <style>
      .cls-1 {
        fill: #9ec9c8;
      }

      .cls-1, .cls-2, .cls-3, .cls-4, .cls-5, .cls-6, .cls-7, .cls-8, .cls-9, .cls-10, .cls-11, .cls-12, .cls-13, .cls-14, .cls-15, .cls-16, .cls-17, .cls-18, .cls-19, .cls-20, .cls-21, .cls-22, .cls-23, .cls-24, .cls-25, .cls-26, .cls-27, .cls-28, .cls-29, .cls-30, .cls-31, .cls-32, .cls-33, .cls-34, .cls-35, .cls-36, .cls-37, .cls-38, .cls-39, .cls-40, .cls-41, .cls-42, .cls-43, .cls-44, .cls-45, .cls-46, .cls-47, .cls-48, .cls-49, .cls-50, .cls-51, .cls-52, .cls-53, .cls-54, .cls-55, .cls-56, .cls-57, .cls-58, .cls-59, .cls-60, .cls-61, .cls-62, .cls-63, .cls-64, .cls-65, .cls-66, .cls-67, .cls-68, .cls-69, .cls-70, .cls-71, .cls-72, .cls-73, .cls-74, .cls-75, .cls-76, .cls-77, .cls-78, .cls-79, .cls-80, .cls-81, .cls-82, .cls-83, .cls-84, .cls-85, .cls-86, .cls-87, .cls-88, .cls-89, .cls-90, .cls-91, .cls-92, .cls-93, .cls-94, .cls-95, .cls-96, .cls-97, .cls-98, .cls-99, .cls-100, .cls-101, .cls-102, .cls-103, .cls-104, .cls-105, .cls-106, .cls-107, .cls-108, .cls-109, .cls-110, .cls-111, .cls-112, .cls-113, .cls-114, .cls-115, .cls-116, .cls-117, .cls-118, .cls-119, .cls-120, .cls-121, .cls-122, .cls-123, .cls-124, .cls-125, .cls-126, .cls-127, .cls-128, .cls-129 {
        stroke-width: 0px;
      }

      .cls-2 {
        fill: #70a0ad;
      }

      .cls-3 {
        fill: #416472;
      }

      .cls-4 {
        fill: #f8faf0;
      }

      .cls-5 {
        fill: #c2d0d5;
      }

      .cls-6 {
        fill: #1e404b;
      }

      .cls-7 {
        fill: #d1dee1;
      }

      .cls-8 {
        fill: #295769;
      }

      .cls-9 {
        fill: #d4e7e8;
      }

      .cls-10 {
        fill: #ccd7da;
      }

      .cls-11 {
        fill: #bcd5da;
      }

      .cls-12 {
        fill: #113c50;
      }

      .cls-13 {
        fill: #76b0b7;
      }

      .cls-14 {
        fill: #265060;
      }

      .cls-15 {
        fill: #ccdee1;
      }

      .cls-16 {
        fill: #cdd9de;
      }

      .cls-17 {
        fill: #2f5764;
      }

      .cls-18 {
        fill: #6da1b3;
      }

      .cls-19 {
        fill: #22576c;
      }

      .cls-20 {
        fill: #daeaec;
      }

      .cls-21 {
        fill: #508e9e;
      }

      .cls-22 {
        fill: #82b1b4;
      }

      .cls-23 {
        fill: #6d92a1;
      }

      .cls-24 {
        fill: #214f5b;
      }

      .cls-25 {
        fill: #446472;
      }

      .cls-26 {
        fill: #2c636e;
      }

      .cls-27 {
        fill: #c4dbe0;
      }

      .cls-28 {
        fill: #cee7df;
      }

      .cls-29 {
        fill: #dcebee;
      }

      .cls-30 {
        fill: #a6cacb;
      }

      .cls-31 {
        fill: #dfeff0;
      }

      .cls-32 {
        fill: #9bb7c0;
      }

      .cls-33 {
        fill: #4e859c;
      }

      .cls-34 {
        fill: #1c4e5a;
      }

      .cls-35 {
        fill: #215268;
      }

      .cls-36 {
        fill: #83b7ca;
      }

      .cls-37 {
        fill: #cfdddf;
      }

      .cls-38 {
        fill: #2f5f6b;
      }

      .cls-39 {
        fill: #2b566d;
      }

      .cls-40 {
        fill: #6ea2be;
      }

      .cls-41 {
        fill: #dde7e3;
      }

      .cls-42 {
        fill: #345e6b;
      }

      .cls-43 {
        fill: #83b3b3;
      }

      .cls-44 {
        fill: #255663;
      }

      .cls-45 {
        fill: #73a4b2;
      }

      .cls-46 {
        fill: #d39d5e;
      }

      .cls-47 {
        fill: #bdd2d7;
      }

      .cls-48 {
        fill: #d8e7e6;
      }

      .cls-49 {
        fill: #79b4ba;
      }

      .cls-50 {
        fill: #133f53;
      }

      .cls-51 {
        fill: #d5e2e4;
      }

      .cls-52 {
        fill: #466a73;
      }

      .cls-53 {
        fill: #567e8f;
      }

      .cls-54 {
        fill: #6a9fa9;
      }

      .cls-55 {
        fill: #edf3f2;
      }

      .cls-56 {
        fill: #24515c;
      }

      .cls-57 {
        fill: #c7dee2;
      }

      .cls-58 {
        fill: #bfd0d5;
      }

      .cls-59 {
        fill: #264348;
      }

      .cls-60 {
        fill: #437287;
      }

      .cls-61 {
        fill: #b0d8d3;
      }

      .cls-62 {
        fill: #aec3c8;
      }

      .cls-63 {
        fill: #255562;
      }

      .cls-64 {
        fill: #75a1a4;
      }

      .cls-65 {
        fill: #234d5e;
      }

      .cls-66 {
        fill: #dbe6e1;
      }

      .cls-67 {
        fill: #cb9153;
      }

      .cls-68 {
        fill: #447688;
      }

      .cls-69 {
        fill: #a4c6c5;
      }

      .cls-70 {
        fill: #c0d2d6;
      }

      .cls-71 {
        fill: #113e51;
      }

      .cls-72 {
        fill: #224858;
      }

      .cls-73 {
        fill: #2b515e;
      }

      .cls-74 {
        fill: #648e9d;
      }

      .cls-75 {
        fill: #164254;
      }

      .cls-76 {
        fill: #c8d1cf;
      }

      .cls-77 {
        fill: #cadddf;
      }

      .cls-78 {
        fill: #32606d;
      }

      .cls-79 {
        fill: #225669;
      }

      .cls-80 {
        fill: #d2ad4d;
      }

      .cls-81 {
        fill: #c3d8db;
      }

      .cls-82 {
        fill: #f9faf1;
      }

      .cls-83 {
        fill: #cedadc;
      }

      .cls-84 {
        fill: #1e4557;
      }

      .cls-85 {
        fill: #87b8be;
      }

      .cls-86 {
        fill: #fcf9ea;
      }

      .cls-87 {
        fill: #3e5e70;
      }

      .cls-88 {
        fill: #d5e7eb;
      }

      .cls-89 {
        fill: #75b1b7;
      }

      .cls-90 {
        fill: #eff5eb;
      }

      .cls-91 {
        fill: #fcfcf2;
      }

      .cls-92 {
        fill: #548392;
      }

      .cls-93 {
        fill: #90b8b7;
      }

      .cls-94 {
        fill: #305165;
      }

      .cls-95 {
        fill: #f6f9f1;
      }

      .cls-96 {
        fill: #85b0c5;
      }

      .cls-97 {
        fill: #f9faf2;
      }

      .cls-98 {
        fill: #1d4e60;
      }

      .cls-99 {
        fill: #b0c7cd;
      }

      .cls-100 {
        fill: #accece;
      }

      .cls-101 {
        fill: #e6f1f2;
      }

      .cls-102 {
        fill: #2a4b61;
      }

      .cls-103 {
        fill: #bcdfd9;
      }

      .cls-104 {
        fill: #fbfcf3;
      }

      .cls-105 {
        fill: #214959;
      }

      .cls-106 {
        fill: #d1dddd;
      }

      .cls-107 {
        fill: #184457;
      }

      .cls-108 {
        fill: #355965;
      }

      .cls-109 {
        fill: #255567;
      }

      .cls-110 {
        fill: #295066;
      }

      .cls-111 {
        fill: #416476;
      }

      .cls-112 {
        fill: #cad7da;
      }

      .cls-113 {
        fill: #2a5567;
      }

      .cls-114 {
        fill: #032e45;
      }

      .cls-115 {
        fill: #2a5167;
      }

      .cls-116 {
        fill: #4b6b7b;
      }

      .cls-117 {
        fill: #1c4153;
      }

      .cls-118 {
        fill: #2c525f;
      }

      .cls-119 {
        fill: #f9fbf1;
      }

      .cls-120 {
        fill: #2a4f5b;
      }

      .cls-121 {
        fill: #3a6071;
      }

      .cls-122 {
        fill: #c6dfe3;
      }

      .cls-123 {
        fill: #c2d5d9;
      }

      .cls-124 {
        fill: #ccd8da;
      }

      .cls-125 {
        fill: #e1f1f3;
      }

      .cls-126 {
        fill: #315a6c;
      }

      .cls-127 {
        fill: #d0e4e5;
      }

      .cls-128 {
        fill: #5d91a1;
      }

      .cls-129 {
        fill: #a4cdcb;
      }
    </style>
  </defs>
  <path class="cls-86" d="M146.02,59.1c.11-1.8.23-3.6.34-5.4,1-.97,1.86-.14,2.64.29,13.19,7.24,26.5,14.28,39.23,22.32,1.99,1.25,3.81,2.6,4.8,4.82.59,3.11-1.81,4.44-3.72,5.88-6.24,4.71-12.88,8.84-19.48,12.98-16.34,10.24-32.08,21.32-47.63,32.71-6.05,4.43-12.48,8.19-19.14,11.62-3.65,1.88-7.18,2.43-10.97.73-13.04-5.49-25.13-12.66-37.11-20.15-11.67-7.3-24.33-12.89-36.14-19.98-6.22-3.73-12.99-6.74-17.7-12.61-2.43-4.56-.93-9.19,4.58-12.74,5.55-3.58,11.32-6.84,17-10.22,6.81-4.06,13.63-8.12,20.45-12.18,1.98,1.38,1.62,3.48,1.61,5.42-.03,6.95.06,13.89.01,20.84-.02,3.06.39,5.94,2.99,8.01,2.46,1.29,4.55,3.2,7.14,4.28,7.49,4.39,15.2,8.36,22.91,12.36,5.21,2.54,10.03,5.78,15.28,8.25,1.63.76,3.06,1.51,5.07.33,13.73-8.01,27.73-15.57,41.4-23.69,3.51-2.09,5.16-4.67,5.17-8.82.01-4.3-.43-8.58-.42-12.88,1.43-3.94-1.13-8.43,1.7-12.17Z"/>
  <path class="cls-67" d="M92.46,143.85c4.06,1.6,7.67.5,11.35-1.48,9.1-4.88,17.64-10.64,25.82-16.85,17.34-13.16,36.04-24.25,54.08-36.35,3.43-2.3,7.04-4.4,9.31-8.05,3.25,7.52.78,15.4-5.92,19.9-23.52,15.81-47.9,30.33-70.76,47.13-3.72,2.74-7.91,4.81-12.13,6.8-5.55,2.6-10.5,2.19-15.11-1.86,1.02-2.14,2.22-4.18,1.75-6.77-.18-.97-.61-2.77,1.62-2.46Z"/>
  <path class="cls-46" d="M92.46,143.85c-1.25,1.4-.21,2.88,0,4.24.44,2.86-.52,4.49-3.37,4.99-12.41-5.63-23.96-12.87-35.94-19.29-14.78-7.91-29.32-16.28-43.98-24.4-7.69-4.26-10.05-9.19-8.04-17.1,10.5,6.32,20.66,13.22,31.65,18.7,20.34,10.15,38.87,23.58,59.69,32.86Z"/>
  <path class="cls-107" d="M146.02,59.1c.3,4.44-.12,8.85-.63,13.25-.65-.39-.66-1.03-.66-1.68-.08.42.07.87-.04,1.27-.33,1.2,1.1,4.19-2.33,2.37-1.2-9.64-1.22-19.31-.81-28.98.08-1.81.27-3.61,0-5.39-1.84-3.3-3.5-.1-5.22.17-4.34,2.26-8.86,4.27-11.89,8.38-.63,14.7-.72,29.38.1,44.06-.32,2.96-2.2,3.18-4.54,2.6-.43-.41-.74-.89-.95-1.44-.39-12.38-.79-24.77-.38-37.17.09-2.63.67-5.63-3.54-5.49-.76-.13-1.45-.43-1.96-1.03-.65-1.87.88-2.6,1.91-3.57,1.17-1.1,2.76-1.88,2.82-3.79.14-.74.34-1.48.31-2.24-.23-.85-1.01-1.03-1.68-1.33-2.5-1.47-6.07-1.59-6.75-5.35.34-1.12,1.18-1.57,2.24-1.77,3.81.1,6.8,2.05,9.7,4.23.71.72,1.22,1.57,1.56,2.51.49.91.58,2.94,2.01,2.08,5.31-3.21,11.77-4.59,15.84-9.76-.3-.49-.79-.76-1.24-1.09-.47-.33-.84-.74-1.07-1.27-.17-.53-.25-1.09-.34-1.64-.26-.9-.82-1.75-.53-2.76.39-.55.88-.74,1.51-.44,4.6,1.39,5.91,4.35,5.94,9.2.06,8.68-1.04,17.42.61,26.06Z"/>
  <path class="cls-71" d="M76.15,10.07c-.85,2.92-.21,5.92,3.17,3.88,5.75-3.47,11.3-.44,16.87-.64,3.79-.14,8.08-2.14,11.77,1.16,1.2,1.07,2.95,1.53,3.29,3.42-2.66,2.09-4.55-.53-6.78-1.1-.96-.25-1.99-.71-2.75.24-.64.8.07,1.53.45,2.24.93,1.75,1.62,3.44-1.03,4.35-2.63-.52-5.22-1.31-7.95-1.23-1.1-.07-2.2-.17-2.91.96-.59.71-1.27,1.26-2.28,1.18-2.5-1.18-1.84-3.1-1.15-5,1.23-3.37-.67-3.77-3.22-3.27-3.48.67-5.58,3.74-5.65,7.96.25,6.74-.22,7.52-5.89,9.93-8.14,1.37-15.48-3.12-13.73-11.88.49-.85,1.24-1.46,1.95-2.11.37-.28.78-.49,1.22-.61.45-.04.9.01,1.33.16.99.53,1.92,1.09,1.67,2.46-.34.76-.52,1.5.3,2.11,1.58.47,3.17.41,5.27.15-1.62.04-2.73.05-3.8-.31-.43-.18-.81-.43-1.13-.76-.17-4.14,4.24-1.5,5.36-3.64-.31-.15-.59-.23-.93-.22-1.46-.08-2.91.09-4.31-.4-.42-.18-.79-.45-1.1-.78-.35-2.56,1.7-2.26,3.15-2.61,1.35-.33,2.98.37,3.98-1.12.06-.96-.68-1.86-.24-2.85.24-.37.52-.69.85-.97,1.32-.76,2.54-2.11,4.21-.68Z"/>
  <path class="cls-75" d="M124.18,2.07c1.32,2.25,1.56,4.94,4.28,6.67,1.13.72.82,4.43.41,6.63-.34,1.78.18,2.75,1.26,3.8.55.81.09,1.65.09,2.48.07,1.36.21,2.71.09,4.08-.76,6.35-2.15,7.41-10.23,7.8-8.19-1.64-10.47-5.63-7.78-13.63,1.26-2.88.58-5.9.32-8.8-.15-1.67.2-2.47,1.45-3.2.65-.42,1.11-.08,1.53.39.21.34.37.7.51,1.07.25.8.88,1.24,1.54,1.67.32.25.59.55.8.89.15.6-.03,1.13-.34,1.62-.22.43-.5.86-.17,1.38,1.72.41,3.68,2.05,4.58-1.03-.1-.62-.1-1.23.04-1.83.73-1.56-.49-1.38-1.37-1.48-.92-.21-1.69-.63-2.23-1.43-.13-.44-.12-.88.04-1.31,1.87-1.25,2.92-3.06,3.48-5.2.43-.58.92-.99,1.69-.6Z"/>
  <path class="cls-72" d="M61.26,20.1c.01.8-.12,1.54-.93,1.96-3.49,0-5.65,2.95-8.69,3.93-1.05.62-2.26,1.16-.55,2.44,1.15.86,2.7,1.51,2.34,3.43-.46.67-1.13.98-1.9,1.12-2.51-.09-3.57,1.13-3.53,3.62.1,5.46-.55,10.91-.37,16.36.31,9.25-.64,18.5.18,27.74,0,3.72.17,7.42.99,11.07,0,.57-.2,1.06-.58,1.48-4.47-.64-4.43-4.03-4.5-7.36-.19-9.57-.38-19.15-.58-28.72.06-7.1.32-14.21.14-21.3-.17-6.68,1.26-12.01,8.59-14.09,2.18-.62,4.15-1.99,6.22-3.02,1.08.38,2.46.07,3.16,1.35Z"/>
  <path class="cls-82" d="M112.3,19.91c.65.6.9,1.32.84,2.22-.51,7.95-.31,8.22,7.04,10.12,1.38.53,2.82.3,4.23.27,1.58-.04,2.41.54,2.28,2.2-1.21,2.21-3.03,3-5.47,2.37-2.99-1.35-5.98-2.7-8.98-4.05-4.07-1.19-8.73-1.3-10.84-6.03-.41-.61-.69-1.28-.85-2-.09-.76.09-1.43.64-1.98,1.43-1.19,1.18-2.05-.34-3.04-1.12-.72-3.32-1.51-2-3.23,1.23-1.61,3.25-2.85,5.65-1.8,2.24.98,4.49,1.96,6.73,2.94.35.67.7,1.35,1.06,2.02Z"/>
  <path class="cls-59" d="M61.26,20.1c-1.2-.11-2.45-.1-3.16-1.35.56-.86,2.22-.92,1.65-2.6-1.86-5.44,2.19-9.43,3.71-14,.71-2.12,3.37-2.43,5.59-1.94,3.69.82,4.14,3.75,4.23,6.85.48,1.54-.74,2.16-1.61,2.97-.84.59-1.75.98-2.77,1.13-2.12.07-4.02-.27-4.85-2.61.51-2.12,4.04-1.47,3.86-4.19-1.23-.6-1.71.23-2.16,1.1-.18.8-.47,1.55-1.05,2.14-.99.81-.64,1.69-.14,2.58.41.66.94,1.25,1.11,2.03.03.38-.05.75-.22,1.1-.4.6-1.03.98-1.41,1.59-.08.51-.13,1.03-.2,1.55-.23.69-.52,1.36-.87,2-.43.63-1.14.95-1.64,1.5l-.08.16Z"/>
  <path class="cls-120" d="M115.22,9.02c-.38-.37-.76-.73-1.14-1.1.84-.96,1.79-1.67,2.13-3.16,1.15-4.97,3.64-5.72,7.98-2.69-.33.34-.66.69-.99,1.03-.32.29-.66.57-1,.84-1.03.55-2.41.71-2.54,2.28-.1.6-.33,1.17-.46,1.76,0,.33.02.66.04.99-1.32,1.28-2.67.99-4.02.06Z"/>
  <path class="cls-73" d="M128.21,21.01c.64-.61,1.28-1.23,1.92-1.84,3.45.88,6.34,2.87,9.33,4.66-.41.33-.82.65-1.23.98-4.34,1.37-6.88-2.03-10.03-3.8Z"/>
  <path class="cls-113" d="M71.24,9.11c.68-.69,1.36-1.38,2.04-2.06,1.12.85,3.03.96,2.87,3.02-1.69-.17-2.55,1.47-4,1.83-.27-.3-.49-.64-.67-1-.21-.58-.2-1.19-.24-1.79Z"/>
  <path class="cls-117" d="M120.38,95.03c1.29-.64,2.57-1.28,3.86-1.91-.66-1.75.8-2.32,1.79-3.05,1.33-.98,2.84-1.7,4.35-2.34,5.99-2.53,11.55-5.48,12.94-12.69,1.75-2.01.24-4.69,1.56-7.64.22,2.18.36,3.57.5,4.96,1.44,5.41.45,10.92.56,16.37.05,2.29-1.89,3.36-3.65,4.37-14.66,8.44-29.32,16.86-43.96,25.33-1.47.85-2.72.89-4.18.06-5.62-3.19-11.27-6.31-16.91-9.46-.57-.6-.59-1.28-.25-1.99,2.12-1.18,3.78.23,5.52,1.03.89.41,1.75.92,2.63,1.37,2.79,1.42,5.54,3.79,8.47,3.81,3.79.03,1.25-5.32,4.14-6.76,5.55-3.52,11.33-6.64,17.04-9.87,1.7-.96,3.46-1.97,5.57-1.58Z"/>
  <path class="cls-50" d="M77.25,107.21c0,.6,0,1.2,0,1.81-7.9-3.57-15.52-7.68-22.91-12.19-.13-.93.47-1.31,1.2-1.58,4.5-.39,7.53,2.84,11.18,4.52,1.09.5,1.97.48,2.02-1.01.08-2.49.05-4.99.05-7.49,0-13.61,0-27.21,0-40.8-.31-2.75.72-5.66-.9-8.27-.47-.59-.81-1.24-.98-1.97-.06-.8.28-1.41.89-1.9,1.06-.68,2.21-1,3.48-.74.72.28,1.26.76,1.67,1.41.36.69.55,1.42.61,2.2.08,1.06.02,2.12-.18,3.17-.06.56-.18,1.11-.3,1.66-.32,14.17-1.04,28.34.46,42.48.37,1.96.51,3.95.42,5.94-.78,4.74.04,9.08,3.32,12.77Z"/>
  <path class="cls-126" d="M55.35,95.98l-1.01.85c-2.22-.88-4.35-1.92-6.12-3.59.01-.37.02-.74.03-1.11,3.44-.71,6,.22,7.1,3.85Z"/>
  <path class="cls-89" d="M143.33,75.03c.97,6.06-1.85,9.44-7.36,11.65-4.11,1.65-7.83,4.25-11.73,6.43-1.91-.03-1.93-1.38-1.92-2.75,0-14.2,0-28.4.05-42.6,0-.55.59-1.1.9-1.65,2.88-.66,5.74-1.53,8.73-.64,3.03-.45,6.16-.7,7.76-3.95,1.15-1.45.57-4.19,3.3-4.46.09,12.65.18,25.31.27,37.96Z"/>
  <path class="cls-49" d="M120.38,95.03c-7.27,4.14-14.28,8.77-22.04,12.02-.24-.2-.47-.39-.71-.59-1.28-1.78-.86-3.83-.87-5.78-.03-12.44,0-24.87-.03-37.31,0-1.97.3-4-.78-5.83-.54-1.56.56-2.64,1.15-3.87,1.38-2.06,3.51-2.96,5.73-3.73.49-.14.99-.2,1.49-.2,1.01,0,1.96.19,2.77.85,1.48,2.94-3.01,3.1-2.56,5.55.66,1.95,2.36,2.37,4.05,2.81.45.18.86.41,1.25.69,2.05,3.62,6.44,6.39,4.22,11.57-1.13,1.73-2.71,2.89-4.65,3.59.41.49-2.71-.4-.31.87.35.33.51.72.53,1.18-.62,2.5-3.64,2.62-4.64,4.72-.13.78-.02,1.58-.11,2.36-.06.74-.23,1.48-.24,2.23.02.55.04,1.09.15,1.63.29.74.99,1.14,1.45,1.74.25.37.34.77.32,1.21-.25,1.01-1.08,1.87-.76,3.01.08.36.17.73.31,1.06,3.45-.28,6-2.32,8.57-4.26.54-.65.62-1.44.66-2.25.04-.8.14-1.6.22-2.39-.05-.62-.03-1.25.04-1.87.11-.87.29-1.73.52-2.59.23-.7.6-1.29,1.26-1.65.51.03.95.23,1.32.6,1.86,4.39.34,9.14,1.45,13.61.08.34.15.69.23,1.03Z"/>
  <path class="cls-13" d="M113.22,70.92c1.8-4.76-3.62-6.85-3.99-10.8.43-2.26,2.46-2.8,4.1-3.68,2.05-1.1,1.74-2.36.58-3.85-.2-.43-.3-.88-.3-1.35.09-.48.34-.85.74-1.13.32-.1.65-.15.94-.3,5.08-2.55,5.09-2.55,5.09,2.9,0,10.45,0,20.9-.04,31.35-.01,3.31-.12,6.63-.19,9.94-1.96-2.86-.15-6.22-1.21-9.16-.61-1.67-.3-3.71-1.89-5-2.86.44-5.21,2.13-7.8,3.2-1.58.65-3.1,2.23-5.02.76-.34-.53-.69-1.06-1.03-1.59,2.57-3.04,6.71-3.33,9.49-5.47-.95.41-2.14,1.14-3.45.19,0-.33,0-.65,0-.98-.4-1.96,1.59-1.77,2.37-2.66.64-.72,2.57-.58,1.63-2.38Z"/>
  <path class="cls-43" d="M142.17,29.11c1.88,2.15,1.16,3.82-1.06,5.03-5.92,3.24-11.88,6.42-17.88,9.65-1.42-1.47-.68-3.22-1-4.75.49-1.8,2.56-.79,3.43-1.93,5.64-2.4,10.83-5.7,16.51-8.01Z"/>
  <path class="cls-97" d="M110.25,34c2.54,1.39,5.08,2.78,7.62,4.17.07,3.35-2.76,3.15-4.79,3.93-3.9-.57-7.81-1.13-10.64-4.35-.75-1.42-1.27-2.9-1-4.55.25-1.06.77-1.94,1.68-2.56,3.08-.39,5.22,1.24,7.13,3.36Z"/>
  <path class="cls-30" d="M126.14,34.82c-.9-3.37-4.42-.67-5.95-2.58,7.97-.74,8.23-.96,8.74-7.26,4.2-2.06,7.52.7,11.11,2.01-.25.42-.5.85-.75,1.27-.73,1.62-2.19,2.38-3.67,3.12-3.27.85-5.55,4.42-9.48,3.43Z"/>
  <path class="cls-17" d="M113.22,41.05c1.55-.96,3.09-1.92,4.64-2.88,1.21.17,1.93.88,2.26,2.03-1.87.95-2.69,3.24-4.86,3.8-4.55,1.74-8.38,4.91-12.98,6.57-2.15.14-4.58,4.27-6.39-.44.57-1.87,2.24-2.51,3.71-3.37,4.49-2.02,8.6-4.97,13.62-5.71Z"/>
  <path class="cls-22" d="M107.45,51.12c-1.14-.06-2.28-.13-3.42-.19,2.27-4.4,7.12-5.03,10.8-7.38,1.53-.38,2.59-2.2,4.48-1.48,1.24,5.14-3.8,4.91-6.04,7.06-1.56,1.77-3.18,3.37-5.82,1.99Z"/>
  <path class="cls-42" d="M126.14,34.82c3.05-1.5,6.11-3,9.16-4.5.49.09.89.34,1.17.76-2.42,4.42-7.42,4.64-11.17,6.9-1.02.36-2.05.71-3.07,1.07-.34-.66-.67-1.31-1.01-1.97,1.64-.75,3.28-1.51,4.92-2.26Z"/>
  <path class="cls-55" d="M140.04,26.99c-3.84.11-7.4-1.39-11.11-2.01,1.34-1.61-.67-2.61-.72-3.97,3.96-.37,6.55,2.89,10.03,3.8.56.75,1.82.94,1.8,2.17Z"/>
  <path class="cls-11" d="M132.38,47c-3.04-.3-6.08-.59-9.12-.89,4.31-2.36,8.16-5.56,12.89-7.17,1.47-.62,2.37-.49,1.9,1.45-.88,1.25-2.17,2.04-3.53,2.45-2.29.7-2.27,2.34-2.13,4.15Z"/>
  <path class="cls-109" d="M107.45,51.12c1.94-.66,3.88-1.33,5.82-1.99.35.32.71.65,1.06.97-.12.26-.16.53-.13.82-2.48,3.12-6.09,4.29-9.61,5.63-.49,0-.93-.13-1.34-.4-1.4-.18-1.74-.93-.64-1.8,1.51-1.2,3.21-2.16,4.83-3.23Z"/>
  <path class="cls-9" d="M125.3,37.98c3.37-2.79,7.93-3.68,11.05-6.87.83-1.56,2.55-1.45,3.89-2.06.64.02,1.29.04,1.93.06-4.86,4.41-10.32,7.68-16.87,8.87Z"/>
  <path class="cls-85" d="M137.01,40.26c1.16-1.39-.29-1.06-.86-1.31,2.25-.81,3.88-3.89,6.9-1.88-1.7,1.2.35,4.48-2.72,4.93-1.86.87-2.87.11-3.33-1.73Z"/>
  <path class="cls-121" d="M110.25,34l-6.91-2.82c-3.99-1.1-2.94-3.14-.99-5.34,1.47,4.92,7.09,4.12,9.9,7.19-.67.33-1.33.65-2,.98Z"/>
  <path class="cls-73" d="M140.23,29.05c-1.05,1.15-2.36,1.81-3.89,2.06-.35-.26-.7-.53-1.05-.79,1.33-.69,2.66-1.37,3.99-2.06.32.26.63.52.95.79Z"/>
  <path class="cls-77" d="M119.31,42.07c-1.37.6-2.74,1.2-4.11,1.8-.57-.39-.6-.82-.11-1.3,1.74-.66,2.95-2.45,5.03-2.37-.27.62-.54,1.24-.82,1.86Z"/>
  <path class="cls-119" d="M77.04,23.85c-1.91-4.16.56-5.99,3.73-8.01,3.54-2.26,6.51-1.94,9.28.82,1.05,1.05.13,2.09-1.07,2.71-2.33,1.2-2.35,2.91-1.01,4.89.5.38.59.83.28,1.38-.66.98-1.62,1.47-2.74,1.7-3.21-.22-7.01.99-8.46-3.49Z"/>
  <path class="cls-95" d="M51.23,24.95c2.22-1.26,4.41-2.58,6.68-3.76.96-.5,2.22-1.1,2.42.87-1.7,1.96-.34,8.04,2.14,9.25,3.05,1.48,6.29,2.02,9.68,1.64,1.73-.25,3.12.05,3.4,2.13-.85,2.02-2.45,2.7-4.52,2.51-1.3.3-2.62.48-3.87-.13-5.03-2.42-10.14-4.68-14.66-8.04-1.68-1.25-2.68-2.45-1.26-4.46Z"/>
  <path class="cls-1" d="M75.2,34.82c-1.02-.63-2.03-1.26-3.05-1.88,5.17-1.13,4-5.66,4.88-9.09,2.73,1.98,5.89,2.15,9.09,2.15,1.77,1.36,2.22,3.31.35,4.43-3.46,2.08-6.74,4.98-11.28,4.4Z"/>
  <path class="cls-53" d="M101.2,23.01c.06.64.11,1.28.17,1.92-1.39,1.27-3.17,1.26-4.88,1.5-2.5-.11-5.35.59-6.53-2.7.05-.97.71-1.53,1.53-1.36,1.89.39.08-1.12.73-1.3,3.12.04,6.5-1.1,8.98,1.94Z"/>
  <path class="cls-19" d="M64.21,22.35c-.65-.73-1.31-1.46-1.96-2.19,1.29-1.77,3.19-.89,4.83-1.1,1.75.03,3.62.71,5.06-.93,3.39.88,2.37,2.15.11,2.99-2.23.83-4.63,1.18-6.96,1.73-.7.58-.94.16-1.08-.5Z"/>
  <path class="cls-19" d="M66,23.2c2.54.03,5.16-1.01,7.56.53.17.11.11,1.09-.14,1.29-2.44,1.9-5.31.94-8.01,1.02-.72.02-1.46-.57-2.19-.89,1.67-2.19,3.88.05,5.72-.7.67.03-.16-.93.02-.28.07.25-.05.36-.35.33-1.04-.1-2.39.43-2.62-1.3Z"/>
  <path class="cls-72" d="M62.25,17.9c.34-.65.68-1.31,1.01-1.96,2.82-2.05,6.03-2.2,9.33-1.97.25-.02.5-.04.75-.06,1.21,3.53-1.91,2.6-3.37,3.07-1.82.58-3.98-.54-5.7.96-.68.61-1.36.61-2.02-.03Z"/>
  <path class="cls-27" d="M71.33,29.17c-1.78,1.7-3.24,1.49-4.65,1.16-1.66-.38-4.08.21-4.55-2.01-.42-1.96,1.23-1.26,2.22-.89.76.28,1.42.87,2.19,1.05,1.41.32,2.87.42,4.79.69Z"/>
  <path class="cls-3" d="M90.24,23.04c1.64,3.09,4.62,1.62,7.04,2.06-.25,2.61-2.57,2.18-4.15,2.86-1.95.06-3.76-.31-5.16-1.82-.15-.54-.08-1.06.2-1.55l-.21-.34c.48-.8.95-1.6,1.43-2.4.74.06,1.21.33.85,1.18Z"/>
  <path class="cls-47" d="M66,23.2c1.02,1.49,2.92.02,4.38,1.53-2.49,1.08-4.87.3-7.15.42-1.88-1.7-1.32-2.55.97-2.8.36.17.72.33,1.08.5.19.22.43.34.72.35Z"/>
  <path class="cls-105" d="M65.21,13.24c0-.36.01-.72.02-1.07,2.01-1.59,4.03-1.56,6.05-.03.69.59,1.37,1.19,2.06,1.78,0,0-.19.19-.19.19-1.78.89-3.78.06-5.58.74-1.16,0-2.23-.11-2.36-1.61Z"/>
  <path class="cls-88" d="M62.25,17.9c.67.01,1.35.02,2.02.03.11.24.29.33.54.26,1.1.41,2.29.23,3.4.57.28.41.3.83.04,1.26-2,.04-4,.09-6,.13-.29-.14-.59-.22-.91-.22,0-.81-.1-1.67.92-2.03Z"/>
  <path class="cls-100" d="M94.08,18.17c-1.2-.17-2.03-.67-1.9-1.84.15-1.39,1.38-1.05,2.25-1.1.68-.04,1.79-.42,1.66.88-.11,1.19-.74,2.1-2.01,2.07Z"/>
  <path class="cls-106" d="M90.24,23.04c-.28-.39-.57-.79-.85-1.18.56-1.63,1.71-1.16,2.83-.79.44.83,2.44.61,1.9,1.5-.77,1.27-2.52.6-3.88.47Z"/>
  <path class="cls-60" d="M71.29,12.14c-2.02,0-4.03.02-6.05.02-.75-.23-1.51-.43-1.78-1.31,1.8-1.4,3.76.08,5.61-.32,1.07-.04,2.2-.48,3.15.43.01.32,0,.63-.06.95-.29.08-.57.16-.86.23Z"/>
  <path class="cls-40" d="M68.25,20.03c-.04-.29-.06-.57-.07-.86.8-1.17,2.31-.19,3.21-1.05.25.06.5.06.75,0,.11,2.32-.76,2.75-3.89,1.91Z"/>
  <path class="cls-72" d="M71.39,18.11c-.87.95-2.09.86-3.21,1.05-1.12-.32-2.25-.64-3.37-.97,2.19-.03,4.39-.06,6.58-.09Z"/>
  <path class="cls-45" d="M123.28,13.83c.76.23,1.96.25,2.2.74.68,1.41-.83,1.48-1.58,1.7-3.01.9-6.05,1.51-8.5-1.33,1.46-1.13,3.37-1.06,4.94-1.88,1.1-.19,2.06.13,2.94.77Z"/>
  <path class="cls-23" d="M119.15,23.13h7.4c-3.23,2.71-5.53,3.53-8.34,1.91-.11-.84.37-1.4.94-1.91Z"/>
  <path class="cls-68" d="M122.21,3.05c.33-.02.66,0,.98.04.33,2.99-.41,5.09-3.99,4.87-.3-.35-.59-.7-.89-1.06.38-2.22,1.83-3.35,3.9-3.86Z"/>
  <path class="cls-18" d="M121.21,19.11c1.53-.26,3.07-.52,4.94-.83-2.52,3.08-4.61,3.41-10.05,1.87,1.35-2.1,3.57.1,5.11-1.04Z"/>
  <path class="cls-128" d="M121.4,9.91c1.34-.46,2.67-.91,4.11-1.4.59,2.46-1.34,2.62-2.29,3.52-1.67,1.14-3.36,1.47-5.1.16-.26-.11-.54-.17-.82-.2-.26-.27-.36-.54-.3-.83.06-.29.13-.44.21-.44,1.25-1.01,2.79-.53,4.19-.81Z"/>
  <path class="cls-57" d="M121.4,9.91c-1.02,1.78-2.81,1.07-4.3,1.32-1.35-.12-2.29-.59-1.9-2.21h.01c1.33-.69,2.68-.13,4.02-.07.72.32,1.44.64,2.16.96Z"/>
  <path class="cls-8" d="M118.12,12.19c1.7-.05,3.4-.11,5.1-.16.02.6.04,1.2.06,1.8-1.05.11-2.11.21-3.16.32-1.27.41-2.59,1.01-3.16-.93l1.17-1.02Z"/>
  <path class="cls-99" d="M121.21,19.11c-1.42,1.72-3.44.52-5.11,1.04-1.11-.76-2.52-1.83.03-2.14,1.63-.2,3.38.7,5.08,1.1Z"/>
  <path class="cls-70" d="M119.18,29.88c-1.84.04-3.53-.24-4.75-2.35,1.86-1.23,3.3-.11,4.76.58.61.59.61,1.18-.01,1.76Z"/>
  <path class="cls-20" d="M119.15,23.13c.36.97-.35,1.41-.94,1.91-1.08-.17-2.98.02-2.69-1.33.47-2.18,2.38-.33,3.62-.58Z"/>
  <path class="cls-74" d="M123.15,28.16c1.02-.4,1.89-1.38,3.52-.62-.66,1.61-1.73,2.44-3.5,2.42-.54-.59-.55-1.19-.02-1.79Z"/>
  <path class="cls-32" d="M123.15,28.16c0,.6.02,1.2.02,1.79-1.33-.02-2.66-.05-3.99-.07,0-.59,0-1.18.01-1.76,1.32.01,2.63.03,3.95.04Z"/>
  <path class="cls-29" d="M116.95,13.21c1.05.31,2.11.62,3.16.93-1.34,1.67-3.14.59-4.72.79-.41-1.42.55-1.59,1.56-1.73Z"/>
  <path class="cls-120" d="M115.2,9.03c-.03,1.31.98,1.72,1.9,2.21.05.26.11.51.2.75-1.52-.41-3.74-.32-2.09-2.96Z"/>
  <path class="cls-104" d="M67.32,39.88c.32.36.64.73.96,1.09,1.72,2.32.4,4.87.42,7.28.09,11.99.07,23.99.02,35.99,0,2.14.33,4.35-.83,6.35-1.15,1.38-2.69,1.35-4.09.74-6.23-2.7-12.51-5.36-17.41-10.34-1.44-14.37-.52-28.74.13-43.1.04-.83.15-1.66.14-2.48q-.07-6.02,5.37-3.26c5.51,1.75,11.26,3.03,15.28,7.73Z"/>
  <path class="cls-61" d="M46.39,80.99c6.64,3.39,13.27,6.78,19.91,10.17,2.99-.67,1.99-3.16,1.89-4.84-.68-10.77.06-21.53.13-32.29.01-1.73-1.06-4.13,1.76-4.98.02,14.62.04,29.24.06,43.86-1.3,1.2-1.31,2.77-1.44,4.39-.13,1.6.16,3.72-2.46,3.8-3.71-1.55-6.62-4.77-10.89-5.13-2.03-1.9-4.48-3.03-7.1-3.85-4.24-3.11-1.3-7.41-1.86-11.13Z"/>
  <path class="cls-66" d="M51.23,24.95c-.02,1.36.15,2.67,1.55,3.34,6.13,2.94,11.55,7.4,18.44,8.72.25.2.33.4.24.6-.09.19-.18.29-.26.29-.75.83-1.66,1.23-2.78,1.03-5.44-1.84-10.64-4.16-15.2-7.72-.81-.5-1.68-.93-2.42-1.53-1.08-.88-3.31-.97-3.25-2.41.07-1.81,2.21-1.89,3.69-2.32Z"/>
  <path class="cls-39" d="M53.21,31.22c5.55,1.63,10.32,4.78,15.2,7.72-.36.32-.73.63-1.09.95-5.33-2.11-10.58-4.38-15.28-7.73.39-.31.78-.63,1.17-.94Z"/>
  <path class="cls-12" d="M71.2,37.9c-.05-.3-.04-.59.03-.88,1.33-.73,2.66-1.46,3.98-2.19,2.77-1.35,5.43-3.07,8.33-3.95,2.88-.88,3.13-2.51,2.59-4.87.68-.47,1.36-.94,2.04-1.41.06.53.11,1.05.17,1.58.61.62,1.41.96,2.12,1.42,1.35.93,2.89,1.03,4.46,1,.67-.02,0,.3.41-.06.41-.37-.44-.14-.61-.4-.65-.25-1.14-.62-1.43-1.24,1.33-.59,2.66-1.19,3.99-1.78,1.35-.44,2.69-.83,4.09-.17.33.3.65.6.98.91-.15,1.87-1.03,3.87.99,5.34-.37.62-.75,1.24-1.12,1.86-.46,2.89-1.6,5.05-5.07,4.08-2.22-.62-2.6-1.83-.65-3.33.1-.21,1.47-.77-.18-.5-.44.07-.88.09-1.33.1-1.96.15-3.74-1.09-5.72-.74-1.04.33-1.92,1.02-3,1.24-4.68.63-7.87,4.39-12.17,5.83-.75.07-1.4-.16-1.92-.71-.32-.37-.65-.74-.97-1.1Z"/>
  <path class="cls-33" d="M69.46,2.98c.8,4.26.69,4.37-5.19,5.26l.03.03c.05-1.1.1-2.21.15-3.31,1.35-1.46,3.05-2.04,5-1.97Z"/>
  <path class="cls-96" d="M67.21,14.16c1.98-.02,3.97-.04,5.95-.06-3.06,1.88-6.45,2.01-9.89,1.84-.26-.33-.52-.67-.78-1,1.34-1.65,3.27.2,4.72-.78Z"/>
  <path class="cls-122" d="M69.46,2.98c-1.36,1.43-3.23,1.57-5,1.97.73-3.02,2.63-3.1,5-1.97Z"/>
  <path class="cls-31" d="M69.18,10.97c-1.91-.04-3.82-.08-5.73-.12-.44-1.1-.94-2.22.85-2.59,0,0-.03-.03-.03-.03,1.17,1.81,3.04,1.84,4.89,1.9.41.17.55.35.42.54-.13.19-.26.29-.4.29Z"/>
  <path class="cls-125" d="M67.21,14.16c-1.39,1.4-3.15.5-4.72.78-.19-2.32,1.69-1.34,2.73-1.71.66.31,1.33.62,1.99.93Z"/>
  <path class="cls-36" d="M69.18,10.97c.09-.28.08-.56-.03-.83.7-.34,1.39-.68,2.09-1.02,1.22.15,2.16.44.97,1.85-1.01,0-2.02,0-3.03.01Z"/>
  <path class="cls-101" d="M122.21,3.05c-1.3,1.29-2.6,2.57-3.9,3.86-.93-3.54.26-4.94,3.9-3.86Z"/>
  <path class="cls-129" d="M77.25,107.21c-6.16-2.31-4.82-7.54-4.77-12.27,4.48-.54,7.54,2.73,11.24,4.24,3.49,1.43,6.69,3.46,9.87,5.49,1.19,1.09,3.12.81,4.15,2.2.19.1.39.15.6.17-1.7,1.57-1.36,3.61-1.31,5.59.07,3.43-1.32,4.09-4.3,2.5-5.11-2.73-10.31-5.29-15.48-7.92Z"/>
  <path class="cls-91" d="M93.24,106.03c-6.92-3.69-13.84-7.39-20.75-11.08-.12-1.99-.23-3.97-.35-5.96-.51-14.99-.8-29.97.14-44.95l.05.1c1.22-1.31,2.67-1.15,4.09-.5,5.98,2.76,11.93,5.59,17.44,9.23,1.32.88,2.17,2,2,3.69.69,1.55.9,3.16.89,4.85-.02,13.26.02,26.53-.05,39.79-.01,2.29.59,5.32-3.47,4.83Z"/>
  <path class="cls-103" d="M70.08,49.05c-1.29,1.59-.8,3.48-.8,5.25.01,11.15-1.47,22.3-.09,33.47.2,1.63,1.12,4.9-2.89,3.38,1.44-1.52.94-3.44.95-5.2.07-10.57.09-21.14.07-31.71-.01-4.46-.04-8.9.96-13.28,3.99,1.93,1.23,5.38,1.81,8.08Z"/>
  <path class="cls-41" d="M72.16,39c.63-.11,1.26-.21,1.88-.32,8.11,2.64,15.73,6.23,22.49,11.49,1.99,3.4,3.59-1.14,5.46-.26,1.08-.53,1.26.03,1.17.95-1.66,1.11-3.31,2.23-4.97,3.34-1.38,1-2.54.11-3.65-.52-6.73-3.85-13.46-7.69-20.49-10.98-.76-.35-1.19-1.13-1.79-1.69-.03-.67-.07-1.34-.1-2.01Z"/>
  <path class="cls-14" d="M72.27,41.01c9.18,3.33,16.94,9.47,25.93,13.19.12,1.38-.54,1.97-1.88,1.86-.42-.16-.8-.39-1.12-.71-7.32-4.35-14.51-8.96-22.86-11.22-.02-1.04-.04-2.08-.07-3.12Z"/>
  <path class="cls-114" d="M72.28,44.04c-.05,14.98-.1,29.97-.14,44.96-.91-.93-.88-2.1-.88-3.27,0-12.66,0-25.32,0-37.98,0-1.32-.15-2.7,1.02-3.71Z"/>
  <path class="cls-21" d="M66.23,101.11c1.74-1.43.97-3.4,1-5.14.03-2.07.77-3.14,2.9-3.06.06,2.12.06,4.24.19,6.35.24,4.24-1.48,4-4.09,1.84Z"/>
  <path class="cls-6" d="M140.28,66c.03,5.66-3.69,10.91-7.94,10.98-4.18.07-5.23-2.66-5.27-6.24-.06-5.66,3.73-10.58,8.25-10.59,3.48-.01,4.93,1.7,4.96,5.85Z"/>
  <path class="cls-65" d="M137.01,40.26c1.11.58,2.22,1.15,3.33,1.73-.66,4.84-4.75,4.21-7.95,5.01-.94-.85-1.87-1.69-2.91-2.63,2.19-1.98,5.04-2.74,7.54-4.11Z"/>
  <path class="cls-28" d="M95.19,55.35c.37.24.75.47,1.12.71.79,1.01,1.89,1.77,1.87,3.32-.23,15.83.54,31.67-.44,47.5-1.54-.07-3.23.66-4.5-.85,2.69-.52,2-2.69,2-4.38.02-15.43-.02-30.87-.05-46.3Z"/>
  <path class="cls-84" d="M114.24,52.04c1.46.63,3.44,1.12,3.45,2.89,0,1.56-2.02,1.88-3.25,2.58-1.69.95-3.47,1.75-5.22,2.61,0,0-.41-.12-.41-.12h-.43c-.97-.69-2.37-.87-2.74-2.28,1.33-4.21,5.41-4.28,8.6-5.67Z"/>
  <path class="cls-24" d="M109.22,76.93c2.71-.37,4.65-3.2,9.33-2.31-5.49,3.74-10.23,6.03-15.37,7.59.15-3.89,4.26-3.25,6.04-5.28Z"/>
  <path class="cls-44" d="M113.22,70.92c1.18,0,2.72-1.72,3.41-.13.61,1.4-1.22,1.84-2.39,2.39-1.73.82-3.36,1.84-5.03,2.77-1.79.62-3.59,1.23-5.38,1.85,2.16-3.81,6.53-4.26,9.38-6.88Z"/>
  <path class="cls-63" d="M105.23,93.93c-.58-.15-1.64-.25-1.67-.46-.22-2.05,2.02-2.11,2.86-3.35,3.21-2.28,6.03-5.66,10.71-3.88-.29.61-.58,1.23-.87,1.84-2.73,3.74-6.58,5.37-11.04,5.85Z"/>
  <path class="cls-38" d="M104.22,83.8c3.35-1.58,6.68-3.19,10.04-4.73,1.07-.49,2.46-1.62,2.78.77,0,0,.06.05.06.05-3.99,3.46-7.91,7.07-13.85,6.08-.08-.9.1-1.69.96-2.17Z"/>
  <path class="cls-34" d="M116.34,91.01c-2.94,2.98-6.78,4.42-10.47,6.12-.68.32-1.68.94-2.1-.05-.47-1.1.72-1.64,1.42-2.27,2.8-2.45,6.38-3.34,9.65-4.85.82-.38,1.65-.23,1.5,1.05Z"/>
  <path class="cls-56" d="M117.18,82.15c-.3.66-.59,1.32-.89,1.98-2.88,2.89-6.48,4.37-10.39,5.21-1.24-.44-1.38-1.34-1.01-2.45,2.73-2.25,6.11-3.3,9.15-4.98,1.04-.58,2.17-.93,3.14.24Z"/>
  <path class="cls-127" d="M103.16,50.86c-.39-.32-.78-.63-1.17-.95,4.1-2.92,8.56-5.2,13.1-7.34.04.43.07.87.11,1.3-3.72,2.35-7.44,4.7-11.17,7.06-.29-.01-.58-.03-.87-.07Z"/>
  <path class="cls-2" d="M116.34,91.01c-4.17-.07-7.32,2.87-11.15,3.8,0-.29.01-.59.03-.88,3.28-2.7,7.33-3.96,11.04-5.85.29.97,1.39,1.92.08,2.94Z"/>
  <path class="cls-13" d="M117.18,82.15c-4.61.19-7.92,3.41-11.89,5.1-.63.42-1,1.54-2.07.73.01-.67.02-1.35.03-2.02,5.02-1.11,8.94-4.72,13.86-6.08.02.75.04,1.51.06,2.26Z"/>
  <path class="cls-54" d="M105.94,88.85c3.45-1.57,6.9-3.15,10.35-4.72.28.7.57,1.4.85,2.1-3.92.33-6.7,3.82-10.71,3.88,0,0-.23-.15-.23-.15-.31-.19-.46-.42-.43-.68.03-.29.09-.43.17-.43Z"/>
  <path class="cls-15" d="M106.25,58.02c1.02.32,1.84.87,2.13,1.98-2.67,0-4.8-.73-5.13-3.86.26-.15.54-.21.83-.2,2.15-.8,1.21,1.63,2.16,2.08Z"/>
  <path class="cls-26" d="M105.94,88.85c.09.37.17.74.26,1.12-1.45.02-3.12.39-2.97-1.98.69-.24,1.38-.49,2.07-.73.22.53.43,1.07.65,1.6Z"/>
  <path class="cls-123" d="M106.25,58.02c-.72-.69-1.44-1.38-2.16-2.08,3.17-2.09,6.35-4.14,10.11-5.03.01.37.02.75.04,1.12-2.12,2.72-6.99,1.76-7.99,5.98Z"/>
  <path class="cls-98" d="M98.25,34.06c-.62.46-1.23.93-1.85,1.39q3.67.57,5.81-2.42c-.84,1.65,1.15,2.58,1.04,4.04,2.13,8.27-.59,10.9-10.54,10.17-8.36-2.76-10.52-7.47-6.51-14.19.69-.67,1.37-1.33,2.06-2,2.24,1.46,4.7,2.09,7.36,2,.99.04,1.99.05,2.62,1.02Z"/>
  <path class="cls-69" d="M92.21,46.17c1.48.02,2.97.1,4.44.05,5.29-.19,6.37-1.51,5.72-6.98-.11-.92.25-1.58.88-2.17,2.88,2.44,6.57,2.86,9.97,3.98-4.34,2.3-8.69,4.6-13.03,6.91-2.66-.61-6.11,2.37-7.98-1.78Z"/>
  <path class="cls-4" d="M92.21,46.17c2.29,2.23,5.66-.35,7.98,1.78-1.22.74-2.43,1.48-3.65,2.22-7.81-3.23-15.52-6.63-22.49-11.49,2.74-1.77,5.44-3.59,8.23-5.27,1.18-.71,2.48-1.83,3.93-.37.69,2.2-.33,4.35-.12,6.68.41,4.38,2.7,5.62,6.12,6.45Z"/>
  <path class="cls-48" d="M89.19,28.13c-.82-.42-.92-1.15-.86-1.96,1.8-.78,3.17,1.38,4.95.71.6.09,1.2.18,1.81.26-1.46,3.39-3.85,1.16-5.9.98Z"/>
  <path class="cls-115" d="M64.06,43.71c-.56,1.91-2.21,2.84-3.78,2.18-3.49-1.47-6.79-3.43-10.13-5.26-.79-.43-1.17-1.44-.73-2.15.47-.77,1.08-2.01,2.23-1.67,4.31,1.29,8.13,3.64,11.95,5.95.23.14.29.58.46.95Z"/>
  <path class="cls-52" d="M56.35,62.05c-.67-2.09-5.18-2.13-3.76-4.23,1.39-2.05,3.83,1.08,5.87,1.71,1.39.43,2.63,1.34,3.92,2.05,2.74,1.49,3.95,2.98-.03,4.42-3.47.93-4.77-1.45-5.99-3.95Z"/>
  <path class="cls-102" d="M60.35,72.84c.71.4,1.46.74,2.12,1.22.96.7,3.03.75,2.4,2.48-.55,1.54-2.35.24-3.52.67-.69.04-1.32-.16-1.92-.48-2.1-1.5-5.08-1.86-6.17-4.7-.99-1.22-1.74-2.44.84-2.09,1.08.15,2.1.76,3.14,1.16,1.5-.26,2.45.47,3.1,1.74Z"/>
  <path class="cls-118" d="M56.35,62.05c2.42.67,3.35,3.6,5.99,3.95,1.46.6,3.07,1.06,2.96,3.14-2.62,1.62-4.77.06-7-1.01-1.57-1.1-3.26-2.06-4.15-3.89-.2-.74-3.64-1.31-.1-2.28.83-.23,1.49,1.56,2.29.09Z"/>
  <path class="cls-25" d="M64.3,70.97c.13.58.53,1.51.33,1.68-1.27,1.01-2.2-.52-3.36-.62-1.4-.53-2.94-.73-4.05-1.89-1.18-1.96-4.41-1.49-4.99-4.18,1.75-.99,3.3-.29,4.84.55,2.15,1.9,5.39,2.05,7.22,4.47Z"/>
  <path class="cls-87" d="M60.5,75.99c.28.41.57.81.85,1.22,1.2,1.11,3.55,1.07,3.48,4.15-4.49-2.3-9.25-3.36-12.52-7.24,3.34-2.02,5.28,2.02,8.18,1.88Z"/>
  <path class="cls-76" d="M60.5,75.99c-3.18,1.36-5.11-2.76-8.18-1.88.32-.69.63-1.39.95-2.08,2.41,1.32,4.82,2.64,7.24,3.96Z"/>
  <path class="cls-124" d="M64.3,70.97l-7.2-3.87c.52-.52,1.09-.59,1.72-.21,2.36.2,3.94,2.62,6.49,2.26-.33.61-.67,1.22-1,1.82Z"/>
  <path class="cls-83" d="M58.82,66.88c-.57.07-1.15.14-1.72.21-1.71,0-2.99-1.82-4.86-1.15.64-.57,1.28-1.14,1.92-1.71,1.55.88,3.11,1.76,4.66,2.64Z"/>
  <path class="cls-10" d="M57.23,70.14c1.51.28,2.96.7,4.05,1.89-.31.27-.61.55-.92.82-1.03-.58-2.06-1.16-3.1-1.74-.03-.32-.04-.65-.03-.97Z"/>
  <path class="cls-92" d="M89.19,28.13c1.97-.33,4.27,1.39,5.9-.98.99-.04,1.97-.12,2.96-.1.82.02,1.79.11,1.72,1.22-.05.91-.88,1.42-1.7,1.51-3.11.34-6.26.76-8.87-1.65Z"/>
  <path class="cls-81" d="M95.21,34c-2.53-.49-5.83.86-6.94-2.95,2.47-.7,4.58.95,6.92,1.06.64.62.63,1.25.02,1.89Z"/>
  <path class="cls-64" d="M95.21,34c0-.63-.01-1.26-.02-1.89,1.6-.34,3.19-.68,5-1.06.44,1.9-1.18,2.19-1.94,3.02-1.01-.02-2.02-.04-3.03-.06Z"/>
  <path class="cls-78" d="M80.62,103.4c.28,1.89-.08,2.82-1.06,2.49-1.65-.54-3.63-.93-4.04-3.12-.22-1.19.34-1.98,1.59-1.82,1.97.25,3.37,1.25,3.52,2.45Z"/>
  <path class="cls-79" d="M87.82,106.79c2.88.85,4.97,1.41,4.89,4.21-.02.76-.69,1.18-1.38,1.02-2.46-.55-3.22-2.33-3.52-5.23Z"/>
  <path class="cls-93" d="M84.91,106.64c.06.87-.2,1.45-.92,1.5-.21.02-.62-.58-.68-.94-.09-.57-.14-1.36.75-1.33.32.01.63.55.86.77Z"/>
  <path class="cls-35" d="M78.14,50.24c4.21,2.27,8.15,4.38,12.08,6.51.64.35,1.06,1.04.53,1.6-.66.69-1.52,1.27-2.41,1.63-.9.37-12.57-5.29-12.73-6.2-.35-2,1.07-2.72,2.53-3.54Z"/>
  <path class="cls-108" d="M80.1,73.32c-.84-.72-2.44-1.3-1.73-2.59.85-1.55,2.14-.16,2.88.39,3.28,2.44,8.24,2.5,10.05,7.03-5.18,1.76-8.02-1.93-11.19-4.82Z"/>
  <path class="cls-111" d="M90.32,79.88c.72.56,1.21,1.39.67,2.13-.75,1.03-1.79-.14-2.72,0-3.56-.65-7.06-1.41-9.07-4.92l-.94-2.07c5.2-1.31,8.23,2.76,12.06,4.85Z"/>
  <path class="cls-110" d="M81.18,86.28c-1.15-.9-3.15-1.03-2.9-3.2,3.87-2.42,6.47,1.26,9.68,2.02.66.46,1.08,1.06,1.16,1.88,0,1.42,2.71,1.34,1.88,2.98-.54,1.09-1.76-.16-2.67,0-1.18-.54-2.6-.01-3.72-.81-1.44-.59-2.58-1.55-3.42-2.87Z"/>
  <path class="cls-94" d="M89.12,86.98c-.33-.38-.65-.75-.98-1.13-3.16-1.23-6.39-2.33-8.96-4.69-.36-.38-.72-.75-1.08-1.13-.07-1.87,1.23-1.71,2.25-1.26,2.47,1.09,5.18,1.82,6.96,4.1,1.41.69,3.39.78,3.82,2.61.31,1.34-1.12,1.26-2.01,1.5Z"/>
  <path class="cls-116" d="M87.4,90.75c.3.14.64.22.89.42,1.01.85,3.7.75,2.73,2.64-.88,1.72-2.57-.12-3.62-.78-2.98-1.87-6.73-2.52-9.11-5.43,1.02-.98,2-.55,2.94-.4,1.27.06,2.3.69,3.31,1.37,1.05.6,2.1,1.19,2.86,2.17Z"/>
  <path class="cls-90" d="M92.54,99.81c-5.31-1.28-10.27-3.34-14.14-7.48,4.71,2.49,9.43,4.99,14.14,7.48Z"/>
  <path class="cls-37" d="M90.32,79.88c-4.32-.87-7.4-4.81-12.06-4.85.61-.57,1.22-1.14,1.83-1.71,3.95,1.09,6.97,4.36,11.19,4.82-.32.58-.65,1.16-.97,1.74Z"/>
  <path class="cls-16" d="M87.31,82.87c-2.15-1.07-4.3-2.14-6.46-3.2-.99-.49-2.06-1.4-2.75.37-1.67-1.74.76-1.95,1.09-2.94,3.02,1.64,6.05,3.28,9.07,4.92-.32.29-.64.57-.95.85Z"/>
  <path class="cls-112" d="M79.18,81.16c3.2,1.16,6.18,2.73,8.96,4.69-3.91,1.31-6.09-3.58-9.86-2.76.3-.64.6-1.28.9-1.92Z"/>
  <path class="cls-5" d="M87.4,90.75c-1.06-.57-2.11-1.14-3.17-1.72.19-.45.51-.73.98-.84,1.04.59,2.08,1.19,3.12,1.78-.31.26-.62.52-.93.78Z"/>
  <path class="cls-7" d="M85.21,88.19c-.33.28-.65.56-.98.84-1.14-.37-2.32-.69-3-1.82-.1-.31-.11-.61-.05-.93,1.34.64,2.68,1.27,4.03,1.91Z"/>
  <path class="cls-80" d="M135.26,63.19c-1.22,3.18,3.11,4.61.78,7.43-.72.87-1.67,3.07-2.33,2.08-.85-1.26-3.67-1.73-2.46-4.21.79-1.61,1.16-3.47,4.02-5.3Z"/>
  <path class="cls-58" d="M88.31,36.37c3.64-.9,6.11,1.19,8.88,1.31-3.05,1.73-5.84,1.72-8.88-1.31Z"/>
  <path class="cls-62" d="M93.21,42.1c1.25.03,2.65-.33,3.46,1.54-2.01.86-3.84.87-5.62-.47.39-1.03,1.49-.62,2.17-1.07Z"/>
  <path class="cls-51" d="M93.21,42.1c-.45.91-1.36.88-2.17,1.07-1.2-.26-2.62-1.05-1.58-2.12,1.1-1.13,2.52.47,3.74,1.05Z"/>
</svg>